<?xml version="1.0" encoding="UTF-8" standalone="no"?>
<!DOCTYPE svg PUBLIC "-//W3C//DTD SVG 1.1//EN"
 "http://www.w3.org/Graphics/SVG/1.1/DTD/svg11.dtd">
<!-- Generated by graphviz version 2.47.3 (20210619.1520)
 -->
<!-- Title: dependencies Pages: 1 -->
<svg width="1495pt" height="247pt"
 viewBox="0.00 0.00 1495.00 246.80" xmlns="http://www.w3.org/2000/svg" xmlns:xlink="http://www.w3.org/1999/xlink">
<g id="graph0" class="graph" transform="scale(1 1) rotate(0) translate(4 242.8)">
<title>dependencies</title>
<polygon fill="white" stroke="transparent" points="-4,4 -4,-242.8 1491,-242.8 1491,4 -4,4"/>
<text text-anchor="middle" x="743.5" y="-8.2" font-family="sans-serif" font-size="14.00">dependencies</text>
<g id="clust1" class="cluster">
<title>cluster_AirLoadersModule</title>
<polygon fill="none" stroke="black" stroke-dasharray="1,5" points="8,-32.8 8,-230.8 1479,-230.8 1479,-32.8 8,-32.8"/>
</g>
<g id="clust2" class="cluster">
<title>cluster_AirLoadersModule_declarations</title>
<polygon fill="none" stroke="black" points="614,-40.8 614,-92.8 1033,-92.8 1033,-40.8 614,-40.8"/>
</g>
<g id="clust6" class="cluster">
<title>cluster_AirLoadersModule_imports</title>
<polygon fill="none" stroke="black" points="367,-40.8 367,-92.8 606,-92.8 606,-40.8 367,-40.8"/>
</g>
<g id="clust7" class="cluster">
<title>cluster_AirLoadersModule_exports</title>
<polygon fill="none" stroke="black" points="16,-170.8 16,-222.8 1471,-222.8 1471,-170.8 16,-170.8"/>
</g>
<!-- LoadDirective -->
<g id="node1" class="node">
<title>LoadDirective</title>
<polygon fill="#ffffb3" stroke="black" points="1025.35,-84.8 928.65,-84.8 928.65,-48.8 1025.35,-48.8 1025.35,-84.8"/>
<text text-anchor="middle" x="977" y="-62.6" font-family="Times,serif" font-size="14.00">LoadDirective</text>
</g>
<!-- AirLoadersModule -->
<g id="node4" class="node">
<title>AirLoadersModule</title>
<polygon fill="#8dd3c7" stroke="black" points="758.79,-149.8 755.79,-153.8 734.79,-153.8 731.79,-149.8 635.21,-149.8 635.21,-113.8 758.79,-113.8 758.79,-149.8"/>
<text text-anchor="middle" x="697" y="-127.6" font-family="Times,serif" font-size="14.00">AirLoadersModule</text>
</g>
<!-- LoadDirective&#45;&gt;AirLoadersModule -->
<g id="edge1" class="edge">
<title>LoadDirective&#45;&gt;AirLoadersModule</title>
<path fill="none" stroke="black" d="M934.93,-84.83C934.93,-101.86 934.93,-124.8 934.93,-124.8 934.93,-124.8 768.89,-124.8 768.89,-124.8"/>
<polygon fill="black" stroke="black" points="768.89,-121.3 758.89,-124.8 768.89,-128.3 768.89,-121.3"/>
</g>
<!-- LoaderComponent -->
<g id="node2" class="node">
<title>LoaderComponent</title>
<polygon fill="#ffffb3" stroke="black" points="910.47,-84.8 789.53,-84.8 789.53,-48.8 910.47,-48.8 910.47,-84.8"/>
<text text-anchor="middle" x="850" y="-62.6" font-family="Times,serif" font-size="14.00">LoaderComponent</text>
</g>
<!-- LoaderComponent&#45;&gt;AirLoadersModule -->
<g id="edge2" class="edge">
<title>LoaderComponent&#45;&gt;AirLoadersModule</title>
<path fill="none" stroke="black" d="M806.92,-85.04C806.92,-100.37 806.92,-119.8 806.92,-119.8 806.92,-119.8 768.71,-119.8 768.71,-119.8"/>
<polygon fill="black" stroke="black" points="768.71,-116.3 758.71,-119.8 768.71,-123.3 768.71,-116.3"/>
</g>
<!-- ProgressBarComponent -->
<g id="node3" class="node">
<title>ProgressBarComponent</title>
<polygon fill="#ffffb3" stroke="black" points="771.75,-84.8 622.25,-84.8 622.25,-48.8 771.75,-48.8 771.75,-84.8"/>
<text text-anchor="middle" x="697" y="-62.6" font-family="Times,serif" font-size="14.00">ProgressBarComponent</text>
</g>
<!-- ProgressBarComponent&#45;&gt;AirLoadersModule -->
<g id="edge3" class="edge">
<title>ProgressBarComponent&#45;&gt;AirLoadersModule</title>
<path fill="none" stroke="black" d="M697,-84.91C697,-84.91 697,-103.79 697,-103.79"/>
<polygon fill="black" stroke="black" points="693.5,-103.79 697,-113.79 700.5,-103.79 693.5,-103.79"/>
</g>
<!-- AutofocusDirective  -->
<g id="node7" class="node">
<title>AutofocusDirective </title>
<polygon fill="#fb8072" stroke="black" points="1462.9,-214.8 1333.1,-214.8 1333.1,-178.8 1462.9,-178.8 1462.9,-214.8"/>
<text text-anchor="middle" x="1398" y="-192.6" font-family="Times,serif" font-size="14.00">AutofocusDirective </text>
</g>
<!-- AirLoadersModule&#45;&gt;AutofocusDirective  -->
<g id="edge6" class="edge">
<title>AirLoadersModule&#45;&gt;AutofocusDirective </title>
<path fill="none" stroke="black" stroke-dasharray="5,2" d="M758.9,-129.8C930.21,-129.8 1398,-129.8 1398,-129.8 1398,-129.8 1398,-168.49 1398,-168.49"/>
<polygon fill="black" stroke="black" points="1394.5,-168.49 1398,-178.49 1401.5,-168.49 1394.5,-168.49"/>
</g>
<!-- ClearInputBeforeUploadDirective  -->
<g id="node8" class="node">
<title>ClearInputBeforeUploadDirective </title>
<polygon fill="#fb8072" stroke="black" points="1315.25,-214.8 1104.75,-214.8 1104.75,-178.8 1315.25,-178.8 1315.25,-214.8"/>
<text text-anchor="middle" x="1210" y="-192.6" font-family="Times,serif" font-size="14.00">ClearInputBeforeUploadDirective </text>
</g>
<!-- AirLoadersModule&#45;&gt;ClearInputBeforeUploadDirective  -->
<g id="edge7" class="edge">
<title>AirLoadersModule&#45;&gt;ClearInputBeforeUploadDirective </title>
<path fill="none" stroke="black" stroke-dasharray="5,2" d="M758.88,-134.8C895.32,-134.8 1210,-134.8 1210,-134.8 1210,-134.8 1210,-168.53 1210,-168.53"/>
<polygon fill="black" stroke="black" points="1206.5,-168.53 1210,-178.53 1213.5,-168.53 1206.5,-168.53"/>
</g>
<!-- HideIfEmptyDirective  -->
<g id="node9" class="node">
<title>HideIfEmptyDirective </title>
<polygon fill="#fb8072" stroke="black" points="1086.95,-214.8 941.05,-214.8 941.05,-178.8 1086.95,-178.8 1086.95,-214.8"/>
<text text-anchor="middle" x="1014" y="-192.6" font-family="Times,serif" font-size="14.00">HideIfEmptyDirective </text>
</g>
<!-- AirLoadersModule&#45;&gt;HideIfEmptyDirective  -->
<g id="edge8" class="edge">
<title>AirLoadersModule&#45;&gt;HideIfEmptyDirective </title>
<path fill="none" stroke="black" stroke-dasharray="5,2" d="M758.78,-139.8C842.96,-139.8 983.35,-139.8 983.35,-139.8 983.35,-139.8 983.35,-168.76 983.35,-168.76"/>
<polygon fill="black" stroke="black" points="979.85,-168.76 983.35,-178.76 986.85,-168.76 979.85,-168.76"/>
</g>
<!-- MergePipe  -->
<g id="node10" class="node">
<title>MergePipe </title>
<polygon fill="#fb8072" stroke="black" points="923.42,-214.8 842.58,-214.8 842.58,-178.8 923.42,-178.8 923.42,-214.8"/>
<text text-anchor="middle" x="883" y="-192.6" font-family="Times,serif" font-size="14.00">MergePipe </text>
</g>
<!-- AirLoadersModule&#45;&gt;MergePipe  -->
<g id="edge9" class="edge">
<title>AirLoadersModule&#45;&gt;MergePipe </title>
<path fill="none" stroke="black" stroke-dasharray="5,2" d="M758.78,-144.8C810.7,-144.8 876.51,-144.8 876.51,-144.8 876.51,-144.8 876.51,-168.61 876.51,-168.61"/>
<polygon fill="black" stroke="black" points="873.01,-168.61 876.51,-178.61 880.01,-168.61 873.01,-168.61"/>
</g>
<!-- OverlayDirective  -->
<g id="node11" class="node">
<title>OverlayDirective </title>
<polygon fill="#fb8072" stroke="black" points="824.17,-214.8 707.83,-214.8 707.83,-178.8 824.17,-178.8 824.17,-214.8"/>
<text text-anchor="middle" x="766" y="-192.6" font-family="Times,serif" font-size="14.00">OverlayDirective </text>
</g>
<!-- AirLoadersModule&#45;&gt;OverlayDirective  -->
<g id="edge10" class="edge">
<title>AirLoadersModule&#45;&gt;OverlayDirective </title>
<path fill="none" stroke="black" stroke-dasharray="5,2" d="M733.16,-149.91C733.16,-149.91 733.16,-168.79 733.16,-168.79"/>
<polygon fill="black" stroke="black" points="729.66,-168.79 733.16,-178.79 736.66,-168.79 729.66,-168.79"/>
</g>
<!-- ReplaceStringPipe  -->
<g id="node12" class="node">
<title>ReplaceStringPipe </title>
<polygon fill="#fb8072" stroke="black" points="689.7,-214.8 566.3,-214.8 566.3,-178.8 689.7,-178.8 689.7,-214.8"/>
<text text-anchor="middle" x="628" y="-192.6" font-family="Times,serif" font-size="14.00">ReplaceStringPipe </text>
</g>
<!-- AirLoadersModule&#45;&gt;ReplaceStringPipe  -->
<g id="edge11" class="edge">
<title>AirLoadersModule&#45;&gt;ReplaceStringPipe </title>
<path fill="none" stroke="black" stroke-dasharray="5,2" d="M662.6,-149.91C662.6,-149.91 662.6,-168.79 662.6,-168.79"/>
<polygon fill="black" stroke="black" points="659.1,-168.79 662.6,-178.79 666.1,-168.79 659.1,-168.79"/>
</g>
<!-- ReplaceVarsPipe  -->
<g id="node13" class="node">
<title>ReplaceVarsPipe </title>
<polygon fill="#fb8072" stroke="black" points="547.9,-214.8 432.1,-214.8 432.1,-178.8 547.9,-178.8 547.9,-214.8"/>
<text text-anchor="middle" x="490" y="-192.6" font-family="Times,serif" font-size="14.00">ReplaceVarsPipe </text>
</g>
<!-- AirLoadersModule&#45;&gt;ReplaceVarsPipe  -->
<g id="edge12" class="edge">
<title>AirLoadersModule&#45;&gt;ReplaceVarsPipe </title>
<path fill="none" stroke="black" stroke-dasharray="5,2" d="M635.33,-144.8C584.97,-144.8 522.09,-144.8 522.09,-144.8 522.09,-144.8 522.09,-168.61 522.09,-168.61"/>
<polygon fill="black" stroke="black" points="518.59,-168.61 522.09,-178.61 525.59,-168.61 518.59,-168.61"/>
</g>
<!-- ScrollDirective  -->
<g id="node14" class="node">
<title>ScrollDirective </title>
<polygon fill="#fb8072" stroke="black" points="414.52,-214.8 309.48,-214.8 309.48,-178.8 414.52,-178.8 414.52,-214.8"/>
<text text-anchor="middle" x="362" y="-192.6" font-family="Times,serif" font-size="14.00">ScrollDirective </text>
</g>
<!-- AirLoadersModule&#45;&gt;ScrollDirective  -->
<g id="edge13" class="edge">
<title>AirLoadersModule&#45;&gt;ScrollDirective </title>
<path fill="none" stroke="black" stroke-dasharray="5,2" d="M635.15,-139.8C546.8,-139.8 394.98,-139.8 394.98,-139.8 394.98,-139.8 394.98,-168.76 394.98,-168.76"/>
<polygon fill="black" stroke="black" points="391.48,-168.76 394.98,-178.76 398.48,-168.76 391.48,-168.76"/>
</g>
<!-- ScrollToMeDirective  -->
<g id="node15" class="node">
<title>ScrollToMeDirective </title>
<polygon fill="#fb8072" stroke="black" points="291.73,-214.8 152.27,-214.8 152.27,-178.8 291.73,-178.8 291.73,-214.8"/>
<text text-anchor="middle" x="222" y="-192.6" font-family="Times,serif" font-size="14.00">ScrollToMeDirective </text>
</g>
<!-- AirLoadersModule&#45;&gt;ScrollToMeDirective  -->
<g id="edge14" class="edge">
<title>AirLoadersModule&#45;&gt;ScrollToMeDirective </title>
<path fill="none" stroke="black" stroke-dasharray="5,2" d="M634.9,-134.8C506.15,-134.8 222,-134.8 222,-134.8 222,-134.8 222,-168.53 222,-168.53"/>
<polygon fill="black" stroke="black" points="218.5,-168.53 222,-178.53 225.5,-168.53 218.5,-168.53"/>
</g>
<!-- ThemeDirective  -->
<g id="node16" class="node">
<title>ThemeDirective </title>
<polygon fill="#fb8072" stroke="black" points="134.46,-214.8 23.54,-214.8 23.54,-178.8 134.46,-178.8 134.46,-214.8"/>
<text text-anchor="middle" x="79" y="-192.6" font-family="Times,serif" font-size="14.00">ThemeDirective </text>
</g>
<!-- AirLoadersModule&#45;&gt;ThemeDirective  -->
<g id="edge15" class="edge">
<title>AirLoadersModule&#45;&gt;ThemeDirective </title>
<path fill="none" stroke="black" stroke-dasharray="5,2" d="M635.2,-129.8C478.68,-129.8 79,-129.8 79,-129.8 79,-129.8 79,-168.49 79,-168.49"/>
<polygon fill="black" stroke="black" points="75.5,-168.49 79,-178.49 82.5,-168.49 75.5,-168.49"/>
</g>
<!-- AirCdkModule -->
<g id="node5" class="node">
<title>AirCdkModule</title>
<polygon fill="#8dd3c7" stroke="black" points="597.55,-84.8 594.55,-88.8 573.55,-88.8 570.55,-84.8 496.45,-84.8 496.45,-48.8 597.55,-48.8 597.55,-84.8"/>
<text text-anchor="middle" x="547" y="-62.6" font-family="Times,serif" font-size="14.00">AirCdkModule</text>
</g>
<!-- AirCdkModule&#45;&gt;AirLoadersModule -->
<g id="edge4" class="edge">
<title>AirCdkModule&#45;&gt;AirLoadersModule</title>
<path fill="none" stroke="black" d="M581.96,-85.04C581.96,-100.37 581.96,-119.8 581.96,-119.8 581.96,-119.8 625.1,-119.8 625.1,-119.8"/>
<polygon fill="black" stroke="black" points="625.1,-123.3 635.1,-119.8 625.1,-116.3 625.1,-123.3"/>
</g>
<!-- AirIconModule -->
<g id="node6" class="node">
<title>AirIconModule</title>
<polygon fill="#8dd3c7" stroke="black" points="478.58,-84.8 475.58,-88.8 454.58,-88.8 451.58,-84.8 375.42,-84.8 375.42,-48.8 478.58,-48.8 478.58,-84.8"/>
<text text-anchor="middle" x="427" y="-62.6" font-family="Times,serif" font-size="14.00">AirIconModule</text>
</g>
<!-- AirIconModule&#45;&gt;AirLoadersModule -->
<g id="edge5" class="edge">
<title>AirIconModule&#45;&gt;AirLoadersModule</title>
<path fill="none" stroke="black" d="M455.3,-84.83C455.3,-101.86 455.3,-124.8 455.3,-124.8 455.3,-124.8 625.07,-124.8 625.07,-124.8"/>
<polygon fill="black" stroke="black" points="625.07,-128.3 635.07,-124.8 625.07,-121.3 625.07,-128.3"/>
</g>
</g>
</svg>
