<?xml version="1.0" encoding="UTF-8" standalone="no"?>
<!DOCTYPE svg PUBLIC "-//W3C//DTD SVG 1.1//EN"
 "http://www.w3.org/Graphics/SVG/1.1/DTD/svg11.dtd">
<!-- Generated by graphviz version 2.47.3 (20210619.1520)
 -->
<!-- Title: dependencies Pages: 1 -->
<svg width="1495pt" height="247pt"
 viewBox="0.00 0.00 1495.00 246.80" xmlns="http://www.w3.org/2000/svg" xmlns:xlink="http://www.w3.org/1999/xlink">
<g id="graph0" class="graph" transform="scale(1 1) rotate(0) translate(4 242.8)">
<title>dependencies</title>
<polygon fill="white" stroke="transparent" points="-4,4 -4,-242.8 1491,-242.8 1491,4 -4,4"/>
<text text-anchor="middle" x="743.5" y="-8.2" font-family="sans-serif" font-size="14.00">dependencies</text>
<g id="clust1" class="cluster">
<title>cluster_AirDirectionModule</title>
<polygon fill="none" stroke="black" stroke-dasharray="1,5" points="8,-32.8 8,-230.8 1479,-230.8 1479,-32.8 8,-32.8"/>
</g>
<g id="clust7" class="cluster">
<title>cluster_AirDirectionModule_providers</title>
<polygon fill="none" stroke="black" points="693,-40.8 693,-92.8 861,-92.8 861,-40.8 693,-40.8"/>
</g>
<g id="clust5" class="cluster">
<title>cluster_AirDirectionModule_exports</title>
<polygon fill="none" stroke="black" points="16,-170.8 16,-222.8 1471,-222.8 1471,-170.8 16,-170.8"/>
</g>
<g id="clust2" class="cluster">
<title>cluster_AirDirectionModule_declarations</title>
<polygon fill="none" stroke="black" points="549,-40.8 549,-92.8 685,-92.8 685,-40.8 549,-40.8"/>
</g>
<!-- DirectionDirective -->
<g id="node1" class="node">
<title>DirectionDirective</title>
<polygon fill="#ffffb3" stroke="black" points="677.45,-84.8 556.55,-84.8 556.55,-48.8 677.45,-48.8 677.45,-84.8"/>
<text text-anchor="middle" x="617" y="-62.6" font-family="Times,serif" font-size="14.00">DirectionDirective</text>
</g>
<!-- AirDirectionModule -->
<g id="node2" class="node">
<title>AirDirectionModule</title>
<polygon fill="#8dd3c7" stroke="black" points="762.58,-149.8 759.58,-153.8 738.58,-153.8 735.58,-149.8 631.42,-149.8 631.42,-113.8 762.58,-113.8 762.58,-149.8"/>
<text text-anchor="middle" x="697" y="-127.6" font-family="Times,serif" font-size="14.00">AirDirectionModule</text>
</g>
<!-- DirectionDirective&#45;&gt;AirDirectionModule -->
<g id="edge1" class="edge">
<title>DirectionDirective&#45;&gt;AirDirectionModule</title>
<path fill="none" stroke="black" d="M654.47,-84.91C654.47,-84.91 654.47,-103.79 654.47,-103.79"/>
<polygon fill="black" stroke="black" points="650.97,-103.79 654.47,-113.79 657.97,-103.79 650.97,-103.79"/>
</g>
<!-- AutofocusDirective  -->
<g id="node3" class="node">
<title>AutofocusDirective </title>
<polygon fill="#fb8072" stroke="black" points="1462.9,-214.8 1333.1,-214.8 1333.1,-178.8 1462.9,-178.8 1462.9,-214.8"/>
<text text-anchor="middle" x="1398" y="-192.6" font-family="Times,serif" font-size="14.00">AutofocusDirective </text>
</g>
<!-- AirDirectionModule&#45;&gt;AutofocusDirective  -->
<g id="edge2" class="edge">
<title>AirDirectionModule&#45;&gt;AutofocusDirective </title>
<path fill="none" stroke="black" stroke-dasharray="5,2" d="M762.63,-121.8C936.9,-121.8 1398,-121.8 1398,-121.8 1398,-121.8 1398,-168.64 1398,-168.64"/>
<polygon fill="black" stroke="black" points="1394.5,-168.64 1398,-178.64 1401.5,-168.64 1394.5,-168.64"/>
</g>
<!-- ClearInputBeforeUploadDirective  -->
<g id="node4" class="node">
<title>ClearInputBeforeUploadDirective </title>
<polygon fill="#fb8072" stroke="black" points="1315.25,-214.8 1104.75,-214.8 1104.75,-178.8 1315.25,-178.8 1315.25,-214.8"/>
<text text-anchor="middle" x="1210" y="-192.6" font-family="Times,serif" font-size="14.00">ClearInputBeforeUploadDirective </text>
</g>
<!-- AirDirectionModule&#45;&gt;ClearInputBeforeUploadDirective  -->
<g id="edge3" class="edge">
<title>AirDirectionModule&#45;&gt;ClearInputBeforeUploadDirective </title>
<path fill="none" stroke="black" stroke-dasharray="5,2" d="M762.75,-128.8C901.18,-128.8 1210,-128.8 1210,-128.8 1210,-128.8 1210,-168.58 1210,-168.58"/>
<polygon fill="black" stroke="black" points="1206.5,-168.58 1210,-178.58 1213.5,-168.58 1206.5,-168.58"/>
</g>
<!-- HideIfEmptyDirective  -->
<g id="node5" class="node">
<title>HideIfEmptyDirective </title>
<polygon fill="#fb8072" stroke="black" points="1086.95,-214.8 941.05,-214.8 941.05,-178.8 1086.95,-178.8 1086.95,-214.8"/>
<text text-anchor="middle" x="1014" y="-192.6" font-family="Times,serif" font-size="14.00">HideIfEmptyDirective </text>
</g>
<!-- AirDirectionModule&#45;&gt;HideIfEmptyDirective  -->
<g id="edge4" class="edge">
<title>AirDirectionModule&#45;&gt;HideIfEmptyDirective </title>
<path fill="none" stroke="black" stroke-dasharray="5,2" d="M762.68,-135.8C855.53,-135.8 1014,-135.8 1014,-135.8 1014,-135.8 1014,-168.5 1014,-168.5"/>
<polygon fill="black" stroke="black" points="1010.5,-168.5 1014,-178.5 1017.5,-168.5 1010.5,-168.5"/>
</g>
<!-- MergePipe  -->
<g id="node6" class="node">
<title>MergePipe </title>
<polygon fill="#fb8072" stroke="black" points="923.42,-214.8 842.58,-214.8 842.58,-178.8 923.42,-178.8 923.42,-214.8"/>
<text text-anchor="middle" x="883" y="-192.6" font-family="Times,serif" font-size="14.00">MergePipe </text>
</g>
<!-- AirDirectionModule&#45;&gt;MergePipe  -->
<g id="edge5" class="edge">
<title>AirDirectionModule&#45;&gt;MergePipe </title>
<path fill="none" stroke="black" stroke-dasharray="5,2" d="M762.79,-142.8C803.48,-142.8 848,-142.8 848,-142.8 848,-142.8 848,-168.52 848,-168.52"/>
<polygon fill="black" stroke="black" points="844.5,-168.52 848,-178.52 851.5,-168.52 844.5,-168.52"/>
</g>
<!-- OverlayDirective  -->
<g id="node7" class="node">
<title>OverlayDirective </title>
<polygon fill="#fb8072" stroke="black" points="824.17,-214.8 707.83,-214.8 707.83,-178.8 824.17,-178.8 824.17,-214.8"/>
<text text-anchor="middle" x="766" y="-192.6" font-family="Times,serif" font-size="14.00">OverlayDirective </text>
</g>
<!-- AirDirectionModule&#45;&gt;OverlayDirective  -->
<g id="edge6" class="edge">
<title>AirDirectionModule&#45;&gt;OverlayDirective </title>
<path fill="none" stroke="black" stroke-dasharray="5,2" d="M735.1,-149.91C735.1,-149.91 735.1,-168.79 735.1,-168.79"/>
<polygon fill="black" stroke="black" points="731.6,-168.79 735.1,-178.79 738.6,-168.79 731.6,-168.79"/>
</g>
<!-- ReplaceStringPipe  -->
<g id="node8" class="node">
<title>ReplaceStringPipe </title>
<polygon fill="#fb8072" stroke="black" points="689.7,-214.8 566.3,-214.8 566.3,-178.8 689.7,-178.8 689.7,-214.8"/>
<text text-anchor="middle" x="628" y="-192.6" font-family="Times,serif" font-size="14.00">ReplaceStringPipe </text>
</g>
<!-- AirDirectionModule&#45;&gt;ReplaceStringPipe  -->
<g id="edge7" class="edge">
<title>AirDirectionModule&#45;&gt;ReplaceStringPipe </title>
<path fill="none" stroke="black" stroke-dasharray="5,2" d="M660.66,-149.91C660.66,-149.91 660.66,-168.79 660.66,-168.79"/>
<polygon fill="black" stroke="black" points="657.16,-168.79 660.66,-178.79 664.16,-168.79 657.16,-168.79"/>
</g>
<!-- ReplaceVarsPipe  -->
<g id="node9" class="node">
<title>ReplaceVarsPipe </title>
<polygon fill="#fb8072" stroke="black" points="547.9,-214.8 432.1,-214.8 432.1,-178.8 547.9,-178.8 547.9,-214.8"/>
<text text-anchor="middle" x="490" y="-192.6" font-family="Times,serif" font-size="14.00">ReplaceVarsPipe </text>
</g>
<!-- AirDirectionModule&#45;&gt;ReplaceVarsPipe  -->
<g id="edge8" class="edge">
<title>AirDirectionModule&#45;&gt;ReplaceVarsPipe </title>
<path fill="none" stroke="black" stroke-dasharray="5,2" d="M631.22,-142.8C570.61,-142.8 490,-142.8 490,-142.8 490,-142.8 490,-168.52 490,-168.52"/>
<polygon fill="black" stroke="black" points="486.5,-168.52 490,-178.52 493.5,-168.52 486.5,-168.52"/>
</g>
<!-- ScrollDirective  -->
<g id="node10" class="node">
<title>ScrollDirective </title>
<polygon fill="#fb8072" stroke="black" points="414.52,-214.8 309.48,-214.8 309.48,-178.8 414.52,-178.8 414.52,-214.8"/>
<text text-anchor="middle" x="362" y="-192.6" font-family="Times,serif" font-size="14.00">ScrollDirective </text>
</g>
<!-- AirDirectionModule&#45;&gt;ScrollDirective  -->
<g id="edge9" class="edge">
<title>AirDirectionModule&#45;&gt;ScrollDirective </title>
<path fill="none" stroke="black" stroke-dasharray="5,2" d="M631.21,-135.8C533.65,-135.8 362,-135.8 362,-135.8 362,-135.8 362,-168.5 362,-168.5"/>
<polygon fill="black" stroke="black" points="358.5,-168.5 362,-178.5 365.5,-168.5 358.5,-168.5"/>
</g>
<!-- ScrollToMeDirective  -->
<g id="node11" class="node">
<title>ScrollToMeDirective </title>
<polygon fill="#fb8072" stroke="black" points="291.73,-214.8 152.27,-214.8 152.27,-178.8 291.73,-178.8 291.73,-214.8"/>
<text text-anchor="middle" x="222" y="-192.6" font-family="Times,serif" font-size="14.00">ScrollToMeDirective </text>
</g>
<!-- AirDirectionModule&#45;&gt;ScrollToMeDirective  -->
<g id="edge10" class="edge">
<title>AirDirectionModule&#45;&gt;ScrollToMeDirective </title>
<path fill="none" stroke="black" stroke-dasharray="5,2" d="M631.45,-128.8C501.15,-128.8 222,-128.8 222,-128.8 222,-128.8 222,-168.58 222,-168.58"/>
<polygon fill="black" stroke="black" points="218.5,-168.58 222,-178.58 225.5,-168.58 218.5,-168.58"/>
</g>
<!-- ThemeDirective  -->
<g id="node12" class="node">
<title>ThemeDirective </title>
<polygon fill="#fb8072" stroke="black" points="134.46,-214.8 23.54,-214.8 23.54,-178.8 134.46,-178.8 134.46,-214.8"/>
<text text-anchor="middle" x="79" y="-192.6" font-family="Times,serif" font-size="14.00">ThemeDirective </text>
</g>
<!-- AirDirectionModule&#45;&gt;ThemeDirective  -->
<g id="edge11" class="edge">
<title>AirDirectionModule&#45;&gt;ThemeDirective </title>
<path fill="none" stroke="black" stroke-dasharray="5,2" d="M631.45,-121.8C472.4,-121.8 79,-121.8 79,-121.8 79,-121.8 79,-168.64 79,-168.64"/>
<polygon fill="black" stroke="black" points="75.5,-168.64 79,-178.64 82.5,-168.64 75.5,-168.64"/>
</g>
<!-- DirectionService -->
<g id="node13" class="node">
<title>DirectionService</title>
<ellipse fill="#fdb462" stroke="black" cx="777" cy="-66.8" rx="76.42" ry="18"/>
<text text-anchor="middle" x="777" y="-62.6" font-family="Times,serif" font-size="14.00">DirectionService</text>
</g>
<!-- DirectionService&#45;&gt;AirDirectionModule -->
<g id="edge12" class="edge">
<title>DirectionService&#45;&gt;AirDirectionModule</title>
<path fill="none" stroke="black" d="M731.54,-81.55C731.54,-81.55 731.54,-103.39 731.54,-103.39"/>
<polygon fill="black" stroke="black" points="728.04,-103.39 731.54,-113.39 735.04,-103.39 728.04,-103.39"/>
</g>
</g>
</svg>
