<?xml version="1.0" encoding="UTF-8" standalone="no"?>
<!DOCTYPE svg PUBLIC "-//W3C//DTD SVG 1.1//EN"
 "http://www.w3.org/Graphics/SVG/1.1/DTD/svg11.dtd">
<!-- Generated by graphviz version 2.47.3 (20210619.1520)
 -->
<!-- Title: dependencies Pages: 1 -->
<svg width="896pt" height="247pt"
 viewBox="0.00 0.00 896.00 246.80" xmlns="http://www.w3.org/2000/svg" xmlns:xlink="http://www.w3.org/1999/xlink">
<g id="graph0" class="graph" transform="scale(1 1) rotate(0) translate(4 242.8)">
<title>dependencies</title>
<polygon fill="white" stroke="transparent" points="-4,4 -4,-242.8 892,-242.8 892,4 -4,4"/>
<text text-anchor="middle" x="444" y="-8.2" font-family="sans-serif" font-size="14.00">dependencies</text>
<g id="clust1" class="cluster">
<title>cluster_AirModalModule</title>
<polygon fill="none" stroke="black" stroke-dasharray="1,5" points="8,-32.8 8,-230.8 880,-230.8 880,-32.8 8,-32.8"/>
</g>
<g id="clust5" class="cluster">
<title>cluster_AirModalModule_imports</title>
<polygon fill="none" stroke="black" points="364,-40.8 364,-92.8 872,-92.8 872,-40.8 364,-40.8"/>
</g>
<g id="clust2" class="cluster">
<title>cluster_AirModalModule_declarations</title>
<polygon fill="none" stroke="black" points="16,-40.8 16,-92.8 356,-92.8 356,-40.8 16,-40.8"/>
</g>
<g id="clust6" class="cluster">
<title>cluster_AirModalModule_exports</title>
<polygon fill="none" stroke="black" points="339,-170.8 339,-222.8 686,-222.8 686,-170.8 339,-170.8"/>
</g>
<!-- CloseModalButtonComponent -->
<g id="node1" class="node">
<title>CloseModalButtonComponent</title>
<polygon fill="#ffffb3" stroke="black" points="347.89,-84.8 160.11,-84.8 160.11,-48.8 347.89,-48.8 347.89,-84.8"/>
<text text-anchor="middle" x="254" y="-62.6" font-family="Times,serif" font-size="14.00">CloseModalButtonComponent</text>
</g>
<!-- AirModalModule -->
<g id="node3" class="node">
<title>AirModalModule</title>
<polygon fill="#8dd3c7" stroke="black" points="552.26,-149.8 549.26,-153.8 528.26,-153.8 525.26,-149.8 437.74,-149.8 437.74,-113.8 552.26,-113.8 552.26,-149.8"/>
<text text-anchor="middle" x="495" y="-127.6" font-family="Times,serif" font-size="14.00">AirModalModule</text>
</g>
<!-- CloseModalButtonComponent&#45;&gt;AirModalModule -->
<g id="edge1" class="edge">
<title>CloseModalButtonComponent&#45;&gt;AirModalModule</title>
<path fill="none" stroke="black" d="M253.68,-84.82C253.68,-102.17 253.68,-125.8 253.68,-125.8 253.68,-125.8 427.51,-125.8 427.51,-125.8"/>
<polygon fill="black" stroke="black" points="427.51,-129.3 437.51,-125.8 427.51,-122.3 427.51,-129.3"/>
</g>
<!-- ModalComponent -->
<g id="node2" class="node">
<title>ModalComponent</title>
<polygon fill="#ffffb3" stroke="black" points="141.88,-84.8 24.12,-84.8 24.12,-48.8 141.88,-48.8 141.88,-84.8"/>
<text text-anchor="middle" x="83" y="-62.6" font-family="Times,serif" font-size="14.00">ModalComponent</text>
</g>
<!-- ModalComponent&#45;&gt;AirModalModule -->
<g id="edge2" class="edge">
<title>ModalComponent&#45;&gt;AirModalModule</title>
<path fill="none" stroke="black" d="M83,-85.08C83,-106.12 83,-137.8 83,-137.8 83,-137.8 427.71,-137.8 427.71,-137.8"/>
<polygon fill="black" stroke="black" points="427.71,-141.3 437.71,-137.8 427.71,-134.3 427.71,-141.3"/>
</g>
<!-- CloseModalButtonComponent  -->
<g id="node8" class="node">
<title>CloseModalButtonComponent </title>
<polygon fill="#fb8072" stroke="black" points="677.89,-214.8 486.11,-214.8 486.11,-178.8 677.89,-178.8 677.89,-214.8"/>
<text text-anchor="middle" x="582" y="-192.6" font-family="Times,serif" font-size="14.00">CloseModalButtonComponent </text>
</g>
<!-- AirModalModule&#45;&gt;CloseModalButtonComponent  -->
<g id="edge7" class="edge">
<title>AirModalModule&#45;&gt;CloseModalButtonComponent </title>
<path fill="none" stroke="black" stroke-dasharray="5,2" d="M519.34,-149.91C519.34,-149.91 519.34,-168.79 519.34,-168.79"/>
<polygon fill="black" stroke="black" points="515.84,-168.79 519.34,-178.79 522.84,-168.79 515.84,-168.79"/>
</g>
<!-- ModalComponent  -->
<g id="node9" class="node">
<title>ModalComponent </title>
<polygon fill="#fb8072" stroke="black" points="468.88,-214.8 347.12,-214.8 347.12,-178.8 468.88,-178.8 468.88,-214.8"/>
<text text-anchor="middle" x="408" y="-192.6" font-family="Times,serif" font-size="14.00">ModalComponent </text>
</g>
<!-- AirModalModule&#45;&gt;ModalComponent  -->
<g id="edge8" class="edge">
<title>AirModalModule&#45;&gt;ModalComponent </title>
<path fill="none" stroke="black" stroke-dasharray="5,2" d="M453.16,-149.91C453.16,-149.91 453.16,-168.79 453.16,-168.79"/>
<polygon fill="black" stroke="black" points="449.66,-168.79 453.16,-178.79 456.66,-168.79 449.66,-168.79"/>
</g>
<!-- AirButtonModule -->
<g id="node4" class="node">
<title>AirButtonModule</title>
<polygon fill="#8dd3c7" stroke="black" points="864.33,-84.8 861.33,-88.8 840.33,-88.8 837.33,-84.8 747.67,-84.8 747.67,-48.8 864.33,-48.8 864.33,-84.8"/>
<text text-anchor="middle" x="806" y="-62.6" font-family="Times,serif" font-size="14.00">AirButtonModule</text>
</g>
<!-- AirButtonModule&#45;&gt;AirModalModule -->
<g id="edge3" class="edge">
<title>AirButtonModule&#45;&gt;AirModalModule</title>
<path fill="none" stroke="black" d="M806,-85.08C806,-106.12 806,-137.8 806,-137.8 806,-137.8 562.4,-137.8 562.4,-137.8"/>
<polygon fill="black" stroke="black" points="562.4,-134.3 552.4,-137.8 562.4,-141.3 562.4,-134.3"/>
</g>
<!-- AirCdkModule -->
<g id="node5" class="node">
<title>AirCdkModule</title>
<polygon fill="#8dd3c7" stroke="black" points="729.55,-84.8 726.55,-88.8 705.55,-88.8 702.55,-84.8 628.45,-84.8 628.45,-48.8 729.55,-48.8 729.55,-84.8"/>
<text text-anchor="middle" x="679" y="-62.6" font-family="Times,serif" font-size="14.00">AirCdkModule</text>
</g>
<!-- AirCdkModule&#45;&gt;AirModalModule -->
<g id="edge4" class="edge">
<title>AirCdkModule&#45;&gt;AirModalModule</title>
<path fill="none" stroke="black" d="M652.96,-84.82C652.96,-102.17 652.96,-125.8 652.96,-125.8 652.96,-125.8 562.47,-125.8 562.47,-125.8"/>
<polygon fill="black" stroke="black" points="562.47,-122.3 552.47,-125.8 562.47,-129.3 562.47,-122.3"/>
</g>
<!-- AirIconModule -->
<g id="node6" class="node">
<title>AirIconModule</title>
<polygon fill="#8dd3c7" stroke="black" points="610.58,-84.8 607.58,-88.8 586.58,-88.8 583.58,-84.8 507.42,-84.8 507.42,-48.8 610.58,-48.8 610.58,-84.8"/>
<text text-anchor="middle" x="559" y="-62.6" font-family="Times,serif" font-size="14.00">AirIconModule</text>
</g>
<!-- AirIconModule&#45;&gt;AirModalModule -->
<g id="edge5" class="edge">
<title>AirIconModule&#45;&gt;AirModalModule</title>
<path fill="none" stroke="black" d="M529.92,-84.91C529.92,-84.91 529.92,-103.79 529.92,-103.79"/>
<polygon fill="black" stroke="black" points="526.42,-103.79 529.92,-113.79 533.42,-103.79 526.42,-103.79"/>
</g>
<!-- AirLayoutModule -->
<g id="node7" class="node">
<title>AirLayoutModule</title>
<polygon fill="#8dd3c7" stroke="black" points="489.87,-84.8 486.87,-88.8 465.87,-88.8 462.87,-84.8 372.13,-84.8 372.13,-48.8 489.87,-48.8 489.87,-84.8"/>
<text text-anchor="middle" x="431" y="-62.6" font-family="Times,serif" font-size="14.00">AirLayoutModule</text>
</g>
<!-- AirLayoutModule&#45;&gt;AirModalModule -->
<g id="edge6" class="edge">
<title>AirLayoutModule&#45;&gt;AirModalModule</title>
<path fill="none" stroke="black" d="M463.78,-84.91C463.78,-84.91 463.78,-103.79 463.78,-103.79"/>
<polygon fill="black" stroke="black" points="460.28,-103.79 463.78,-113.79 467.28,-103.79 460.28,-103.79"/>
</g>
</g>
</svg>
