<?xml version="1.0" encoding="UTF-8" standalone="no"?>
<!DOCTYPE svg PUBLIC "-//W3C//DTD SVG 1.1//EN"
 "http://www.w3.org/Graphics/SVG/1.1/DTD/svg11.dtd">
<!-- Generated by graphviz version 2.47.3 (20210619.1520)
 -->
<!-- Title: dependencies Pages: 1 -->
<svg width="523pt" height="247pt"
 viewBox="0.00 0.00 523.00 246.80" xmlns="http://www.w3.org/2000/svg" xmlns:xlink="http://www.w3.org/1999/xlink">
<g id="graph0" class="graph" transform="scale(1 1) rotate(0) translate(4 242.8)">
<title>dependencies</title>
<polygon fill="white" stroke="transparent" points="-4,4 -4,-242.8 519,-242.8 519,4 -4,4"/>
<text text-anchor="middle" x="257.5" y="-8.2" font-family="sans-serif" font-size="14.00">dependencies</text>
<g id="clust1" class="cluster">
<title>cluster_AirExpansionModule</title>
<polygon fill="none" stroke="black" stroke-dasharray="1,5" points="8,-32.8 8,-230.8 507,-230.8 507,-32.8 8,-32.8"/>
</g>
<g id="clust6" class="cluster">
<title>cluster_AirExpansionModule_exports</title>
<polygon fill="none" stroke="black" points="77,-170.8 77,-222.8 439,-222.8 439,-170.8 77,-170.8"/>
</g>
<g id="clust2" class="cluster">
<title>cluster_AirExpansionModule_declarations</title>
<polygon fill="none" stroke="black" points="144,-40.8 144,-92.8 499,-92.8 499,-40.8 144,-40.8"/>
</g>
<g id="clust5" class="cluster">
<title>cluster_AirExpansionModule_imports</title>
<polygon fill="none" stroke="black" points="16,-40.8 16,-92.8 136,-92.8 136,-40.8 16,-40.8"/>
</g>
<!-- ExpansionComponent -->
<g id="node1" class="node">
<title>ExpansionComponent</title>
<polygon fill="#ffffb3" stroke="black" points="491.44,-84.8 350.56,-84.8 350.56,-48.8 491.44,-48.8 491.44,-84.8"/>
<text text-anchor="middle" x="421" y="-62.6" font-family="Times,serif" font-size="14.00">ExpansionComponent</text>
</g>
<!-- AirExpansionModule -->
<g id="node3" class="node">
<title>AirExpansionModule</title>
<polygon fill="#8dd3c7" stroke="black" points="310.81,-149.8 307.81,-153.8 286.81,-153.8 283.81,-149.8 173.19,-149.8 173.19,-113.8 310.81,-113.8 310.81,-149.8"/>
<text text-anchor="middle" x="242" y="-127.6" font-family="Times,serif" font-size="14.00">AirExpansionModule</text>
</g>
<!-- ExpansionComponent&#45;&gt;AirExpansionModule -->
<g id="edge1" class="edge">
<title>ExpansionComponent&#45;&gt;AirExpansionModule</title>
<path fill="none" stroke="black" d="M390.88,-84.91C390.88,-104.14 390.88,-131.8 390.88,-131.8 390.88,-131.8 320.77,-131.8 320.77,-131.8"/>
<polygon fill="black" stroke="black" points="320.77,-128.3 310.77,-131.8 320.77,-135.3 320.77,-128.3"/>
</g>
<!-- ExpansionHeaderComponent -->
<g id="node2" class="node">
<title>ExpansionHeaderComponent</title>
<polygon fill="#ffffb3" stroke="black" points="332.35,-84.8 151.65,-84.8 151.65,-48.8 332.35,-48.8 332.35,-84.8"/>
<text text-anchor="middle" x="242" y="-62.6" font-family="Times,serif" font-size="14.00">ExpansionHeaderComponent</text>
</g>
<!-- ExpansionHeaderComponent&#45;&gt;AirExpansionModule -->
<g id="edge2" class="edge">
<title>ExpansionHeaderComponent&#45;&gt;AirExpansionModule</title>
<path fill="none" stroke="black" d="M242,-84.91C242,-84.91 242,-103.79 242,-103.79"/>
<polygon fill="black" stroke="black" points="238.5,-103.79 242,-113.79 245.5,-103.79 238.5,-103.79"/>
</g>
<!-- ExpansionComponent  -->
<g id="node5" class="node">
<title>ExpansionComponent </title>
<polygon fill="#fb8072" stroke="black" points="430.93,-214.8 287.07,-214.8 287.07,-178.8 430.93,-178.8 430.93,-214.8"/>
<text text-anchor="middle" x="359" y="-192.6" font-family="Times,serif" font-size="14.00">ExpansionComponent </text>
</g>
<!-- AirExpansionModule&#45;&gt;ExpansionComponent  -->
<g id="edge4" class="edge">
<title>AirExpansionModule&#45;&gt;ExpansionComponent </title>
<path fill="none" stroke="black" stroke-dasharray="5,2" d="M298.84,-149.91C298.84,-149.91 298.84,-168.79 298.84,-168.79"/>
<polygon fill="black" stroke="black" points="295.34,-168.79 298.84,-178.79 302.34,-168.79 295.34,-168.79"/>
</g>
<!-- ExpansionHeaderComponent  -->
<g id="node6" class="node">
<title>ExpansionHeaderComponent </title>
<polygon fill="#fb8072" stroke="black" points="269.35,-214.8 84.65,-214.8 84.65,-178.8 269.35,-178.8 269.35,-214.8"/>
<text text-anchor="middle" x="177" y="-192.6" font-family="Times,serif" font-size="14.00">ExpansionHeaderComponent </text>
</g>
<!-- AirExpansionModule&#45;&gt;ExpansionHeaderComponent  -->
<g id="edge5" class="edge">
<title>AirExpansionModule&#45;&gt;ExpansionHeaderComponent </title>
<path fill="none" stroke="black" stroke-dasharray="5,2" d="M221.26,-149.91C221.26,-149.91 221.26,-168.79 221.26,-168.79"/>
<polygon fill="black" stroke="black" points="217.76,-168.79 221.26,-178.79 224.76,-168.79 217.76,-168.79"/>
</g>
<!-- AirIconModule -->
<g id="node4" class="node">
<title>AirIconModule</title>
<polygon fill="#8dd3c7" stroke="black" points="127.58,-84.8 124.58,-88.8 103.58,-88.8 100.58,-84.8 24.42,-84.8 24.42,-48.8 127.58,-48.8 127.58,-84.8"/>
<text text-anchor="middle" x="76" y="-62.6" font-family="Times,serif" font-size="14.00">AirIconModule</text>
</g>
<!-- AirIconModule&#45;&gt;AirExpansionModule -->
<g id="edge3" class="edge">
<title>AirIconModule&#45;&gt;AirExpansionModule</title>
<path fill="none" stroke="black" d="M106.18,-84.91C106.18,-104.14 106.18,-131.8 106.18,-131.8 106.18,-131.8 163.3,-131.8 163.3,-131.8"/>
<polygon fill="black" stroke="black" points="163.3,-135.3 173.3,-131.8 163.3,-128.3 163.3,-135.3"/>
</g>
</g>
</svg>
