<svg width="24" height="24" viewBox="0 0 24 24" fill="none" xmlns="http://www.w3.org/2000/svg">
<path d="M22 0H5.5C4.39543 0 3.5 0.89543 3.5 2V18.5C3.5 19.6046 4.39543 20.5 5.5 20.5H22C23.1046 20.5 24 19.6046 24 18.5V2C24 0.89543 23.1046 0 22 0ZM17.977 11.283L12.055 14.667C11.7337 14.8497 11.3396 14.8481 11.0198 14.6629C10.7 14.4776 10.5025 14.1366 10.501 13.767V7C10.5025 6.63041 10.7 6.28936 11.0198 6.10414C11.3396 5.91891 11.7337 5.91733 12.055 6.1L17.978 9.484C18.3002 9.66914 18.4988 10.0124 18.4988 10.384C18.4988 10.7556 18.3002 11.0989 17.978 11.284L17.977 11.283Z" fill="#0A59EB"/>
<path d="M19.5 22H2.5C2.22386 22 2 21.7761 2 21.5V4.5C2 3.94772 1.55228 3.5 1 3.5C0.447715 3.5 0 3.94772 0 4.5V22C0 23.1046 0.89543 24 2 24H19.5C20.0523 24 20.5 23.5523 20.5 23C20.5 22.4477 20.0523 22 19.5 22Z" fill="#0A59EB"/>
</svg>
