<svg width="24" height="24" viewBox="0 0 24 24" fill="none" xmlns="http://www.w3.org/2000/svg">
<path d="M23.5 19.1888C23.5025 17.9291 22.7977 16.7746 21.676 16.2013L18.8277 14.7344C18.7486 14.6928 18.6994 14.6106 18.7 14.5213V12.9853C18.6997 12.9065 18.7386 12.8328 18.8037 12.7885C19.6298 12.1623 20.1171 11.187 20.1217 10.1504C20.1273 10.0814 20.1623 10.0181 20.2178 9.97664C20.5771 9.66161 20.7685 9.19672 20.7352 8.72C20.757 8.29934 20.6152 7.88657 20.3397 7.568C20.278 7.50455 20.2562 7.41232 20.283 7.328C20.6544 6.35782 20.7656 5.30739 20.6056 4.28096C20.2734 2.95232 18.4658 2.48 17.02 2.48C15.9739 2.43638 14.9416 2.73056 14.0757 3.31904C14.0259 3.35983 13.9947 3.41905 13.9893 3.4832C13.9834 3.54716 14.0035 3.61078 14.045 3.65984C15.1547 5.01987 15.7892 6.70557 15.8517 8.45984C15.9822 10.3952 16.1675 10.5805 16.6197 11.0288C17.0269 11.4321 17.2373 11.9932 17.1957 12.5648C17.1558 13.1336 16.8653 13.6552 16.4027 13.9885C15.8276 14.4018 15.2033 14.742 14.5442 15.0013C14.4556 15.0351 14.3953 15.1178 14.3901 15.2124C14.3849 15.307 14.4358 15.3958 14.5201 15.439C14.9681 15.6694 15.4162 15.9184 15.8642 16.1859C17.4154 17.1489 18.3202 18.8793 18.2257 20.7027V22.4C18.2257 22.5325 18.3332 22.64 18.4657 22.64H23.02C23.2851 22.64 23.5 22.4251 23.5 22.16V19.1888Z" fill="#0A59EB"/>
<path d="M16.54 22.64C16.6725 22.64 16.78 22.5325 16.78 22.4V20.7027C16.8664 19.3877 16.2295 18.1299 15.1182 17.4214C13.9282 16.7029 12.6691 16.1057 11.3598 15.6387C11.019 15.5197 10.66 15.2134 10.66 14.8707V14.3619C10.6597 14.2977 10.6853 14.236 10.731 14.1909C10.7767 14.1457 10.8386 14.1209 10.9028 14.1219C12.5635 14.2401 14.2133 13.7757 15.5684 12.8086C15.6809 12.7185 15.7489 12.584 15.7547 12.44C15.7604 12.2917 15.704 12.1476 15.5992 12.0426C15.2664 11.7534 15.0037 11.3923 14.8312 10.9866C14.57 10.2004 14.4292 9.37929 14.4136 8.55104C14.4226 6.42677 13.3011 4.45803 11.4692 3.3824C9.68906 2.4275 7.54896 2.4275 5.76877 3.3824C3.93701 4.45845 2.81586 6.42759 2.82541 8.552C2.81034 9.38219 2.66821 10.2052 2.40397 10.9923C2.35802 11.1056 2.30379 11.2153 2.24173 11.3206C2.06649 11.6006 1.8547 11.856 1.61197 12.08C1.51206 12.1803 1.46155 12.3197 1.47396 12.4607C1.48636 12.6018 1.56041 12.7302 1.67629 12.8115C2.97827 13.7465 4.55974 14.2103 6.16045 14.1267H6.34093C6.40517 14.126 6.46705 14.1509 6.51284 14.1959C6.55862 14.241 6.58452 14.3025 6.58477 14.3667V14.8755C6.58477 15.2182 6.22573 15.5245 5.88493 15.6435C4.57563 16.1105 3.31652 16.7077 2.12653 17.4262C1.01548 18.1331 0.376957 19.3885 0.45997 20.7027V22.4C0.45997 22.5325 0.567422 22.64 0.69997 22.64H16.54Z" fill="#0A59EB"/>
</svg>
