<?xml version="1.0" encoding="UTF-8" standalone="no"?>
<!DOCTYPE svg PUBLIC "-//W3C//DTD SVG 1.1//EN"
 "http://www.w3.org/Graphics/SVG/1.1/DTD/svg11.dtd">
<!-- Generated by graphviz version 2.47.3 (20210619.1520)
 -->
<!-- Title: dependencies Pages: 1 -->
<svg width="469pt" height="247pt"
 viewBox="0.00 0.00 469.00 246.80" xmlns="http://www.w3.org/2000/svg" xmlns:xlink="http://www.w3.org/1999/xlink">
<g id="graph0" class="graph" transform="scale(1 1) rotate(0) translate(4 242.8)">
<title>dependencies</title>
<polygon fill="white" stroke="transparent" points="-4,4 -4,-242.8 465,-242.8 465,4 -4,4"/>
<text text-anchor="middle" x="230.5" y="-8.2" font-family="sans-serif" font-size="14.00">dependencies</text>
<g id="clust1" class="cluster">
<title>cluster_AirListModule</title>
<polygon fill="none" stroke="black" stroke-dasharray="1,5" points="8,-32.8 8,-230.8 453,-230.8 453,-32.8 8,-32.8"/>
</g>
<g id="clust2" class="cluster">
<title>cluster_AirListModule_declarations</title>
<polygon fill="none" stroke="black" points="21,-40.8 21,-92.8 439,-92.8 439,-40.8 21,-40.8"/>
</g>
<g id="clust7" class="cluster">
<title>cluster_AirListModule_exports</title>
<polygon fill="none" stroke="black" points="16,-170.8 16,-222.8 445,-222.8 445,-170.8 16,-170.8"/>
</g>
<!-- DelimiterComponent -->
<g id="node1" class="node">
<title>DelimiterComponent</title>
<polygon fill="#ffffb3" stroke="black" points="431.48,-84.8 296.52,-84.8 296.52,-48.8 431.48,-48.8 431.48,-84.8"/>
<text text-anchor="middle" x="364" y="-62.6" font-family="Times,serif" font-size="14.00">DelimiterComponent</text>
</g>
<!-- AirListModule -->
<g id="node4" class="node">
<title>AirListModule</title>
<polygon fill="#8dd3c7" stroke="black" points="276.99,-149.8 273.99,-153.8 252.99,-153.8 249.99,-149.8 177.01,-149.8 177.01,-113.8 276.99,-113.8 276.99,-149.8"/>
<text text-anchor="middle" x="227" y="-127.6" font-family="Times,serif" font-size="14.00">AirListModule</text>
</g>
<!-- DelimiterComponent&#45;&gt;AirListModule -->
<g id="edge1" class="edge">
<title>DelimiterComponent&#45;&gt;AirListModule</title>
<path fill="none" stroke="black" d="M387.25,-84.82C387.25,-102.17 387.25,-125.8 387.25,-125.8 387.25,-125.8 287.26,-125.8 287.26,-125.8"/>
<polygon fill="black" stroke="black" points="287.26,-122.3 277.26,-125.8 287.26,-129.3 287.26,-122.3"/>
</g>
<!-- ListComponent -->
<g id="node2" class="node">
<title>ListComponent</title>
<polygon fill="#ffffb3" stroke="black" points="278.61,-84.8 175.39,-84.8 175.39,-48.8 278.61,-48.8 278.61,-84.8"/>
<text text-anchor="middle" x="227" y="-62.6" font-family="Times,serif" font-size="14.00">ListComponent</text>
</g>
<!-- ListComponent&#45;&gt;AirListModule -->
<g id="edge2" class="edge">
<title>ListComponent&#45;&gt;AirListModule</title>
<path fill="none" stroke="black" d="M227,-84.91C227,-84.91 227,-103.79 227,-103.79"/>
<polygon fill="black" stroke="black" points="223.5,-103.79 227,-113.79 230.5,-103.79 223.5,-103.79"/>
</g>
<!-- ListItemComponent -->
<g id="node3" class="node">
<title>ListItemComponent</title>
<polygon fill="#ffffb3" stroke="black" points="157.27,-84.8 28.73,-84.8 28.73,-48.8 157.27,-48.8 157.27,-84.8"/>
<text text-anchor="middle" x="93" y="-62.6" font-family="Times,serif" font-size="14.00">ListItemComponent</text>
</g>
<!-- ListItemComponent&#45;&gt;AirListModule -->
<g id="edge3" class="edge">
<title>ListItemComponent&#45;&gt;AirListModule</title>
<path fill="none" stroke="black" d="M113.63,-84.82C113.63,-102.17 113.63,-125.8 113.63,-125.8 113.63,-125.8 166.94,-125.8 166.94,-125.8"/>
<polygon fill="black" stroke="black" points="166.94,-129.3 176.94,-125.8 166.94,-122.3 166.94,-129.3"/>
</g>
<!-- DelimiterComponent  -->
<g id="node5" class="node">
<title>DelimiterComponent </title>
<polygon fill="#fb8072" stroke="black" points="437.48,-214.8 298.52,-214.8 298.52,-178.8 437.48,-178.8 437.48,-214.8"/>
<text text-anchor="middle" x="368" y="-192.6" font-family="Times,serif" font-size="14.00">DelimiterComponent </text>
</g>
<!-- AirListModule&#45;&gt;DelimiterComponent  -->
<g id="edge4" class="edge">
<title>AirListModule&#45;&gt;DelimiterComponent </title>
<path fill="none" stroke="black" stroke-dasharray="5,2" d="M277.21,-137.8C308.56,-137.8 343,-137.8 343,-137.8 343,-137.8 343,-168.78 343,-168.78"/>
<polygon fill="black" stroke="black" points="339.5,-168.78 343,-178.78 346.5,-168.78 339.5,-168.78"/>
</g>
<!-- ListComponent  -->
<g id="node6" class="node">
<title>ListComponent </title>
<polygon fill="#fb8072" stroke="black" points="280.11,-214.8 173.89,-214.8 173.89,-178.8 280.11,-178.8 280.11,-214.8"/>
<text text-anchor="middle" x="227" y="-192.6" font-family="Times,serif" font-size="14.00">ListComponent </text>
</g>
<!-- AirListModule&#45;&gt;ListComponent  -->
<g id="edge5" class="edge">
<title>AirListModule&#45;&gt;ListComponent </title>
<path fill="none" stroke="black" stroke-dasharray="5,2" d="M227,-149.91C227,-149.91 227,-168.79 227,-168.79"/>
<polygon fill="black" stroke="black" points="223.5,-168.79 227,-178.79 230.5,-168.79 223.5,-168.79"/>
</g>
<!-- ListItemComponent  -->
<g id="node7" class="node">
<title>ListItemComponent </title>
<polygon fill="#fb8072" stroke="black" points="156.27,-214.8 23.73,-214.8 23.73,-178.8 156.27,-178.8 156.27,-214.8"/>
<text text-anchor="middle" x="90" y="-192.6" font-family="Times,serif" font-size="14.00">ListItemComponent </text>
</g>
<!-- AirListModule&#45;&gt;ListItemComponent  -->
<g id="edge6" class="edge">
<title>AirListModule&#45;&gt;ListItemComponent </title>
<path fill="none" stroke="black" stroke-dasharray="5,2" d="M176.82,-137.8C131.25,-137.8 71.12,-137.8 71.12,-137.8 71.12,-137.8 71.12,-168.78 71.12,-168.78"/>
<polygon fill="black" stroke="black" points="67.62,-168.78 71.12,-178.78 74.62,-168.78 67.62,-168.78"/>
</g>
</g>
</svg>
