<svg id="Capa_1" enable-background="new 0 0 512 512" height="512" viewBox="0 0 512 512" width="512" xmlns="http://www.w3.org/2000/svg"><g><path d="m269.563 398.495 1.89-3.845v-161.067l-8.714-10.303h-19.574l-2.617 10.303v161.067l2.875 3.845z" fill="#dbedff"/><path d="m257.546 223.28h-14.381l-2.617 10.303v161.067l2.875 3.845h14.123z" fill="#b5dcff"/><path d="m494.59 239.702c-19.642-108.195-111.055-191.373-223.137-198.423l-3.658 4.907h-23.587l-3.66-4.907c-112.082 7.049-203.497 90.228-223.138 198.423-.734 4.042 4.034 6.69 7.156 4.02 9.096-7.779 20.905-12.477 33.812-12.477 17.063 0 32.201 8.213 41.69 20.9 1.843 2.464 4.581 3.733 7.357 3.835l15.338-32.701h71.469l12.209 32.712 15.091-32.712h66.962l17.066 32.712 14.011-27.733h72.971l12.034 27.721c2.775-.102 5.514-1.371 7.356-3.835 9.489-12.687 24.627-20.9 41.69-20.9 12.907 0 24.717 4.698 33.813 12.477 3.121 2.671 7.889.023 7.155-4.019z" fill="#60b9fe"/><path d="m241.021 41.913-.473-.635c-112.082 7.05-203.497 90.229-223.138 198.424-.734 4.042 4.034 6.69 7.156 4.02 9.096-7.779 20.905-12.477 33.812-12.477 17.063 0 32.201 8.213 41.69 20.9 1.843 2.464 4.581 3.733 7.357 3.835l15.338-32.701h37.934c.428-14.436 1.564-29.822 3.659-46.015 10.334-79.886 56.234-120.817 76.665-135.351z" fill="#1ca8ff"/><path d="m256 0c-8.534 0-15.453 6.918-15.453 15.453v25.826l1.631 1.355h27.256l2.018-1.355v-25.826c.001-8.535-6.918-15.453-15.452-15.453z" fill="#dbedff"/><path d="m256 17.642c0-6.457 3.964-11.983 9.588-14.293-2.635-2.091-5.962-3.349-9.588-3.349-8.534 0-15.453 6.918-15.453 15.453v25.826l1.631 1.355h13.822z" fill="#b5dcff"/><path d="m240.548 394.65v59.107c0 15.074-12.264 27.337-27.338 27.337-15.073 0-27.337-12.264-27.337-27.337v-19.961c0-8.534-6.918-15.453-15.453-15.453-8.534 0-15.453 6.918-15.453 15.453v19.961c0 32.115 26.128 58.243 58.242 58.243 32.116 0 58.243-26.128 58.243-58.243v-59.107z" fill="#ff7f87"/><g fill="#ff636e"><path d="m171.965 453.757v-19.961c0-5.393 2.767-10.135 6.954-12.899-2.439-1.61-5.357-2.554-8.499-2.554-8.534 0-15.453 6.918-15.453 15.453v19.961c0 32.115 26.128 58.243 58.242 58.243 2.887 0 5.723-.219 8.499-.627-28.099-4.127-49.743-28.388-49.743-57.616z"/><path d="m230.208 481.095c15.074 0 27.338-12.264 27.338-27.337v-59.108h-16.998v59.107c0 12.107-7.914 22.395-18.839 25.978 2.677.878 5.532 1.36 8.499 1.36z"/></g><g><path d="m240.547 366.835h-11.665c-4.267 0-7.726-3.459-7.726-7.726s3.459-7.726 7.726-7.726h11.665c4.267 0 7.726 3.459 7.726 7.726.001 4.267-3.458 7.726-7.726 7.726z" fill="#8bcaff"/></g><path d="m274.111 41.463c-4.42-.326-8.871-.539-13.352-.629v.004l-1.54 2.505h-5.065l-2.913-2.505s.002-.004.002-.004c-4.482.09-8.933.303-13.353.629-71.975 13.145-128.079 103.62-130.464 214.518 3.015.111 6.072-1.159 8.074-3.835 9.489-12.687 24.627-20.9 41.69-20.9s32.201 8.213 41.69 20.9c1.888 2.524 4.716 3.801 7.561 3.846l15.091-32.712h66.962l17.066 32.712c2.845-.045 5.673-1.322 7.561-3.846 9.489-12.687 24.627-20.9 41.69-20.9s32.201 8.213 41.69 20.9c2.001 2.676 5.059 3.946 8.074 3.835-2.386-110.898-58.489-201.373-130.464-214.518z" fill="#8bcaff"/><g fill="#60b9fe"><path d="m242.014 41.213c-1.376.079-2.755.149-4.125.25-71.975 13.145-128.079 103.62-130.464 214.518 3.015.111 6.072-1.159 8.074-3.835 9.489-12.687 24.627-20.9 41.69-20.9 1.123 0 2.236.04 3.342.11.201-16.731 1.335-34.84 3.826-54.091 10.504-81.206 57.761-122.162 77.657-136.052z"/><path d="m251.241 40.837c-24.622 10.569-43.992 102.285-44.8 215.154 2.948.046 5.913-1.231 7.869-3.846 9.489-12.687 24.627-20.9 41.69-20.9s32.201 8.213 41.69 20.9c1.956 2.616 4.921 3.893 7.87 3.846-.809-112.869-20.179-204.585-44.801-215.154-1.583-.03-3.168-.053-4.759-.053s-3.176.023-4.759.053z"/></g></g></svg>