<?xml version="1.0" encoding="UTF-8" standalone="no"?>
<!DOCTYPE svg PUBLIC "-//W3C//DTD SVG 1.1//EN"
 "http://www.w3.org/Graphics/SVG/1.1/DTD/svg11.dtd">
<!-- Generated by graphviz version 2.47.3 (20210619.1520)
 -->
<!-- Title: dependencies Pages: 1 -->
<svg width="3760pt" height="247pt"
 viewBox="0.00 0.00 3760.00 246.80" xmlns="http://www.w3.org/2000/svg" xmlns:xlink="http://www.w3.org/1999/xlink">
<g id="graph0" class="graph" transform="scale(1 1) rotate(0) translate(4 242.8)">
<title>dependencies</title>
<polygon fill="white" stroke="transparent" points="-4,4 -4,-242.8 3756,-242.8 3756,4 -4,4"/>
<text text-anchor="middle" x="1876" y="-8.2" font-family="sans-serif" font-size="14.00">dependencies</text>
<g id="clust1" class="cluster">
<title>cluster_AirControlsModule</title>
<polygon fill="none" stroke="black" stroke-dasharray="1,5" points="8,-32.8 8,-230.8 3744,-230.8 3744,-32.8 8,-32.8"/>
</g>
<g id="clust2" class="cluster">
<title>cluster_AirControlsModule_declarations</title>
<polygon fill="none" stroke="black" points="845,-40.8 845,-92.8 3736,-92.8 3736,-40.8 845,-40.8"/>
</g>
<g id="clust23" class="cluster">
<title>cluster_AirControlsModule_exports</title>
<polygon fill="none" stroke="black" points="1100,-170.8 1100,-222.8 2555,-222.8 2555,-170.8 1100,-170.8"/>
</g>
<g id="clust22" class="cluster">
<title>cluster_AirControlsModule_imports</title>
<polygon fill="none" stroke="black" points="16,-40.8 16,-92.8 837,-92.8 837,-40.8 16,-40.8"/>
</g>
<!-- AutocompleteComponent -->
<g id="node1" class="node">
<title>AutocompleteComponent</title>
<polygon fill="#ffffb3" stroke="black" points="3728.15,-84.8 3567.85,-84.8 3567.85,-48.8 3728.15,-48.8 3728.15,-84.8"/>
<text text-anchor="middle" x="3648" y="-62.6" font-family="Times,serif" font-size="14.00">AutocompleteComponent</text>
</g>
<!-- AirControlsModule -->
<g id="node20" class="node">
<title>AirControlsModule</title>
<polygon fill="#8dd3c7" stroke="black" points="1844.43,-149.8 1841.43,-153.8 1820.43,-153.8 1817.43,-149.8 1717.57,-149.8 1717.57,-113.8 1844.43,-113.8 1844.43,-149.8"/>
<text text-anchor="middle" x="1781" y="-127.6" font-family="Times,serif" font-size="14.00">AirControlsModule</text>
</g>
<!-- AutocompleteComponent&#45;&gt;AirControlsModule -->
<g id="edge1" class="edge">
<title>AutocompleteComponent&#45;&gt;AirControlsModule</title>
<path fill="none" stroke="black" d="M3648,-84.84C3648,-106.46 3648,-139.8 3648,-139.8 3648,-139.8 1854.46,-139.8 1854.46,-139.8"/>
<polygon fill="black" stroke="black" points="1854.46,-136.3 1844.46,-139.8 1854.46,-143.3 1854.46,-136.3"/>
</g>
<!-- AutocompleteDirective -->
<g id="node2" class="node">
<title>AutocompleteDirective</title>
<polygon fill="#ffffb3" stroke="black" points="3549.9,-84.8 3402.1,-84.8 3402.1,-48.8 3549.9,-48.8 3549.9,-84.8"/>
<text text-anchor="middle" x="3476" y="-62.6" font-family="Times,serif" font-size="14.00">AutocompleteDirective</text>
</g>
<!-- AutocompleteDirective&#45;&gt;AirControlsModule -->
<g id="edge2" class="edge">
<title>AutocompleteDirective&#45;&gt;AirControlsModule</title>
<path fill="none" stroke="black" d="M3476,-85.08C3476,-106.12 3476,-137.8 3476,-137.8 3476,-137.8 1854.35,-137.8 1854.35,-137.8"/>
<polygon fill="black" stroke="black" points="1854.35,-134.3 1844.35,-137.8 1854.35,-141.3 1854.35,-134.3"/>
</g>
<!-- CheckboxComponent -->
<g id="node3" class="node">
<title>CheckboxComponent</title>
<polygon fill="#ffffb3" stroke="black" points="3384.1,-84.8 3245.9,-84.8 3245.9,-48.8 3384.1,-48.8 3384.1,-84.8"/>
<text text-anchor="middle" x="3315" y="-62.6" font-family="Times,serif" font-size="14.00">CheckboxComponent</text>
</g>
<!-- CheckboxComponent&#45;&gt;AirControlsModule -->
<g id="edge3" class="edge">
<title>CheckboxComponent&#45;&gt;AirControlsModule</title>
<path fill="none" stroke="black" d="M3315,-84.93C3315,-105.37 3315,-135.8 3315,-135.8 3315,-135.8 1854.48,-135.8 1854.48,-135.8"/>
<polygon fill="black" stroke="black" points="1854.48,-132.3 1844.48,-135.8 1854.48,-139.3 1854.48,-132.3"/>
</g>
<!-- FileComponent -->
<g id="node4" class="node">
<title>FileComponent</title>
<polygon fill="#ffffb3" stroke="black" points="3227.61,-84.8 3124.39,-84.8 3124.39,-48.8 3227.61,-48.8 3227.61,-84.8"/>
<text text-anchor="middle" x="3176" y="-62.6" font-family="Times,serif" font-size="14.00">FileComponent</text>
</g>
<!-- FileComponent&#45;&gt;AirControlsModule -->
<g id="edge4" class="edge">
<title>FileComponent&#45;&gt;AirControlsModule</title>
<path fill="none" stroke="black" d="M3176,-85.11C3176,-104.95 3176,-133.8 3176,-133.8 3176,-133.8 1854.57,-133.8 1854.57,-133.8"/>
<polygon fill="black" stroke="black" points="1854.57,-130.3 1844.57,-133.8 1854.57,-137.3 1854.57,-130.3"/>
</g>
<!-- FileItemComponent -->
<g id="node5" class="node">
<title>FileItemComponent</title>
<polygon fill="#ffffb3" stroke="black" points="3106.27,-84.8 2977.73,-84.8 2977.73,-48.8 3106.27,-48.8 3106.27,-84.8"/>
<text text-anchor="middle" x="3042" y="-62.6" font-family="Times,serif" font-size="14.00">FileItemComponent</text>
</g>
<!-- FileItemComponent&#45;&gt;AirControlsModule -->
<g id="edge5" class="edge">
<title>FileItemComponent&#45;&gt;AirControlsModule</title>
<path fill="none" stroke="black" d="M3042,-84.97C3042,-103.89 3042,-130.8 3042,-130.8 3042,-130.8 1854.4,-130.8 1854.4,-130.8"/>
<polygon fill="black" stroke="black" points="1854.4,-127.3 1844.4,-130.8 1854.4,-134.3 1854.4,-127.3"/>
</g>
<!-- FormFieldComponent -->
<g id="node6" class="node">
<title>FormFieldComponent</title>
<polygon fill="#ffffb3" stroke="black" points="2959.45,-84.8 2818.55,-84.8 2818.55,-48.8 2959.45,-48.8 2959.45,-84.8"/>
<text text-anchor="middle" x="2889" y="-62.6" font-family="Times,serif" font-size="14.00">FormFieldComponent</text>
</g>
<!-- FormFieldComponent&#45;&gt;AirControlsModule -->
<g id="edge6" class="edge">
<title>FormFieldComponent&#45;&gt;AirControlsModule</title>
<path fill="none" stroke="black" d="M2889,-85.07C2889,-103.36 2889,-128.8 2889,-128.8 2889,-128.8 1854.55,-128.8 1854.55,-128.8"/>
<polygon fill="black" stroke="black" points="1854.55,-125.3 1844.55,-128.8 1854.55,-132.3 1854.55,-125.3"/>
</g>
<!-- ImageComponent -->
<g id="node7" class="node">
<title>ImageComponent</title>
<polygon fill="#ffffb3" stroke="black" points="2801.31,-84.8 2684.69,-84.8 2684.69,-48.8 2801.31,-48.8 2801.31,-84.8"/>
<text text-anchor="middle" x="2743" y="-62.6" font-family="Times,serif" font-size="14.00">ImageComponent</text>
</g>
<!-- ImageComponent&#45;&gt;AirControlsModule -->
<g id="edge7" class="edge">
<title>ImageComponent&#45;&gt;AirControlsModule</title>
<path fill="none" stroke="black" d="M2743,-84.8C2743,-102.48 2743,-126.8 2743,-126.8 2743,-126.8 1854.49,-126.8 1854.49,-126.8"/>
<polygon fill="black" stroke="black" points="1854.49,-123.3 1844.49,-126.8 1854.49,-130.3 1854.49,-123.3"/>
</g>
<!-- InputAutoWidthDirective -->
<g id="node8" class="node">
<title>InputAutoWidthDirective</title>
<polygon fill="#ffffb3" stroke="black" points="2667.13,-84.8 2506.87,-84.8 2506.87,-48.8 2667.13,-48.8 2667.13,-84.8"/>
<text text-anchor="middle" x="2587" y="-62.6" font-family="Times,serif" font-size="14.00">InputAutoWidthDirective</text>
</g>
<!-- InputAutoWidthDirective&#45;&gt;AirControlsModule -->
<g id="edge8" class="edge">
<title>InputAutoWidthDirective&#45;&gt;AirControlsModule</title>
<path fill="none" stroke="black" d="M2526.82,-84.83C2526.82,-101.86 2526.82,-124.8 2526.82,-124.8 2526.82,-124.8 1854.27,-124.8 1854.27,-124.8"/>
<polygon fill="black" stroke="black" points="1854.27,-121.3 1844.27,-124.8 1854.27,-128.3 1854.27,-121.3"/>
</g>
<!-- InputColorComponent -->
<g id="node9" class="node">
<title>InputColorComponent</title>
<polygon fill="#ffffb3" stroke="black" points="2488.27,-84.8 2345.73,-84.8 2345.73,-48.8 2488.27,-48.8 2488.27,-84.8"/>
<text text-anchor="middle" x="2417" y="-62.6" font-family="Times,serif" font-size="14.00">InputColorComponent</text>
</g>
<!-- InputColorComponent&#45;&gt;AirControlsModule -->
<g id="edge9" class="edge">
<title>InputColorComponent&#45;&gt;AirControlsModule</title>
<path fill="none" stroke="black" d="M2372.49,-84.83C2372.49,-101.2 2372.49,-122.8 2372.49,-122.8 2372.49,-122.8 1854.3,-122.8 1854.3,-122.8"/>
<polygon fill="black" stroke="black" points="1854.3,-119.3 1844.3,-122.8 1854.3,-126.3 1854.3,-119.3"/>
</g>
<!-- InputDirective -->
<g id="node10" class="node">
<title>InputDirective</title>
<polygon fill="#ffffb3" stroke="black" points="2327.63,-84.8 2230.37,-84.8 2230.37,-48.8 2327.63,-48.8 2327.63,-84.8"/>
<text text-anchor="middle" x="2279" y="-62.6" font-family="Times,serif" font-size="14.00">InputDirective</text>
</g>
<!-- InputDirective&#45;&gt;AirControlsModule -->
<g id="edge10" class="edge">
<title>InputDirective&#45;&gt;AirControlsModule</title>
<path fill="none" stroke="black" d="M2279,-85.08C2279,-100.75 2279,-120.8 2279,-120.8 2279,-120.8 1854.32,-120.8 1854.32,-120.8"/>
<polygon fill="black" stroke="black" points="1854.32,-117.3 1844.32,-120.8 1854.32,-124.3 1854.32,-117.3"/>
</g>
<!-- LabelComponent -->
<g id="node11" class="node">
<title>LabelComponent</title>
<polygon fill="#ffffb3" stroke="black" points="2212.7,-84.8 2099.3,-84.8 2099.3,-48.8 2212.7,-48.8 2212.7,-84.8"/>
<text text-anchor="middle" x="2156" y="-62.6" font-family="Times,serif" font-size="14.00">LabelComponent</text>
</g>
<!-- LabelComponent&#45;&gt;AirControlsModule -->
<g id="edge11" class="edge">
<title>LabelComponent&#45;&gt;AirControlsModule</title>
<path fill="none" stroke="black" d="M2135.06,-84.99C2135.06,-99.98 2135.06,-118.8 2135.06,-118.8 2135.06,-118.8 1854.3,-118.8 1854.3,-118.8"/>
<polygon fill="black" stroke="black" points="1854.3,-115.3 1844.3,-118.8 1854.3,-122.3 1854.3,-115.3"/>
</g>
<!-- OptionComponent -->
<g id="node12" class="node">
<title>OptionComponent</title>
<polygon fill="#ffffb3" stroke="black" points="2081.22,-84.8 1960.78,-84.8 1960.78,-48.8 2081.22,-48.8 2081.22,-84.8"/>
<text text-anchor="middle" x="2021" y="-62.6" font-family="Times,serif" font-size="14.00">OptionComponent</text>
</g>
<!-- OptionComponent&#45;&gt;AirControlsModule -->
<g id="edge12" class="edge">
<title>OptionComponent&#45;&gt;AirControlsModule</title>
<path fill="none" stroke="black" d="M1984.18,-84.85C1984.18,-99.17 1984.18,-116.8 1984.18,-116.8 1984.18,-116.8 1854.45,-116.8 1854.45,-116.8"/>
<polygon fill="black" stroke="black" points="1854.45,-113.3 1844.45,-116.8 1854.45,-120.3 1854.45,-113.3"/>
</g>
<!-- RadioButtonComponent -->
<g id="node13" class="node">
<title>RadioButtonComponent</title>
<polygon fill="#ffffb3" stroke="black" points="1942.39,-84.8 1789.61,-84.8 1789.61,-48.8 1942.39,-48.8 1942.39,-84.8"/>
<text text-anchor="middle" x="1866" y="-62.6" font-family="Times,serif" font-size="14.00">RadioButtonComponent</text>
</g>
<!-- RadioButtonComponent&#45;&gt;AirControlsModule -->
<g id="edge13" class="edge">
<title>RadioButtonComponent&#45;&gt;AirControlsModule</title>
<path fill="none" stroke="black" d="M1816.88,-84.91C1816.88,-84.91 1816.88,-103.79 1816.88,-103.79"/>
<polygon fill="black" stroke="black" points="1813.38,-103.79 1816.88,-113.79 1820.38,-103.79 1813.38,-103.79"/>
</g>
<!-- RadioGroupComponent -->
<g id="node14" class="node">
<title>RadioGroupComponent</title>
<polygon fill="#ffffb3" stroke="black" points="1771.04,-84.8 1620.96,-84.8 1620.96,-48.8 1771.04,-48.8 1771.04,-84.8"/>
<text text-anchor="middle" x="1696" y="-62.6" font-family="Times,serif" font-size="14.00">RadioGroupComponent</text>
</g>
<!-- RadioGroupComponent&#45;&gt;AirControlsModule -->
<g id="edge14" class="edge">
<title>RadioGroupComponent&#45;&gt;AirControlsModule</title>
<path fill="none" stroke="black" d="M1744.53,-84.91C1744.53,-84.91 1744.53,-103.79 1744.53,-103.79"/>
<polygon fill="black" stroke="black" points="1741.03,-103.79 1744.53,-113.79 1748.03,-103.79 1741.03,-103.79"/>
</g>
<!-- SelectComponent -->
<g id="node15" class="node">
<title>SelectComponent</title>
<polygon fill="#ffffb3" stroke="black" points="1602.54,-84.8 1487.46,-84.8 1487.46,-48.8 1602.54,-48.8 1602.54,-84.8"/>
<text text-anchor="middle" x="1545" y="-62.6" font-family="Times,serif" font-size="14.00">SelectComponent</text>
</g>
<!-- SelectComponent&#45;&gt;AirControlsModule -->
<g id="edge15" class="edge">
<title>SelectComponent&#45;&gt;AirControlsModule</title>
<path fill="none" stroke="black" d="M1559.41,-84.85C1559.41,-99.17 1559.41,-116.8 1559.41,-116.8 1559.41,-116.8 1707.5,-116.8 1707.5,-116.8"/>
<polygon fill="black" stroke="black" points="1707.5,-120.3 1717.5,-116.8 1707.5,-113.3 1707.5,-120.3"/>
</g>
<!-- SimpleAutocompletePipe -->
<g id="node16" class="node">
<title>SimpleAutocompletePipe</title>
<polygon fill="#ffffb3" stroke="black" points="1468.87,-84.8 1309.13,-84.8 1309.13,-48.8 1468.87,-48.8 1468.87,-84.8"/>
<text text-anchor="middle" x="1389" y="-62.6" font-family="Times,serif" font-size="14.00">SimpleAutocompletePipe</text>
</g>
<!-- SimpleAutocompletePipe&#45;&gt;AirControlsModule -->
<g id="edge16" class="edge">
<title>SimpleAutocompletePipe&#45;&gt;AirControlsModule</title>
<path fill="none" stroke="black" d="M1431.21,-84.99C1431.21,-99.98 1431.21,-118.8 1431.21,-118.8 1431.21,-118.8 1707.66,-118.8 1707.66,-118.8"/>
<polygon fill="black" stroke="black" points="1707.66,-122.3 1717.66,-118.8 1707.66,-115.3 1707.66,-122.3"/>
</g>
<!-- SliderComponent -->
<g id="node17" class="node">
<title>SliderComponent</title>
<polygon fill="#ffffb3" stroke="black" points="1291.27,-84.8 1176.73,-84.8 1176.73,-48.8 1291.27,-48.8 1291.27,-84.8"/>
<text text-anchor="middle" x="1234" y="-62.6" font-family="Times,serif" font-size="14.00">SliderComponent</text>
</g>
<!-- SliderComponent&#45;&gt;AirControlsModule -->
<g id="edge17" class="edge">
<title>SliderComponent&#45;&gt;AirControlsModule</title>
<path fill="none" stroke="black" d="M1254.72,-84.83C1254.72,-101.2 1254.72,-122.8 1254.72,-122.8 1254.72,-122.8 1707.78,-122.8 1707.78,-122.8"/>
<polygon fill="black" stroke="black" points="1707.78,-126.3 1717.78,-122.8 1707.78,-119.3 1707.78,-126.3"/>
</g>
<!-- SliderComponent&#45;&gt;AirControlsModule -->
<g id="edge18" class="edge">
<title>SliderComponent&#45;&gt;AirControlsModule</title>
<path fill="none" stroke="black" d="M1273.05,-85.08C1273.05,-100.75 1273.05,-120.8 1273.05,-120.8 1273.05,-120.8 1707.7,-120.8 1707.7,-120.8"/>
<polygon fill="black" stroke="black" points="1707.7,-124.3 1717.7,-120.8 1707.69,-117.3 1707.7,-124.3"/>
</g>
<!-- TextareaAutosizeDirective -->
<g id="node18" class="node">
<title>TextareaAutosizeDirective</title>
<polygon fill="#ffffb3" stroke="black" points="1158.31,-84.8 991.69,-84.8 991.69,-48.8 1158.31,-48.8 1158.31,-84.8"/>
<text text-anchor="middle" x="1075" y="-62.6" font-family="Times,serif" font-size="14.00">TextareaAutosizeDirective</text>
</g>
<!-- TextareaAutosizeDirective&#45;&gt;AirControlsModule -->
<g id="edge19" class="edge">
<title>TextareaAutosizeDirective&#45;&gt;AirControlsModule</title>
<path fill="none" stroke="black" d="M1133.09,-84.83C1133.09,-101.86 1133.09,-124.8 1133.09,-124.8 1133.09,-124.8 1707.7,-124.8 1707.7,-124.8"/>
<polygon fill="black" stroke="black" points="1707.7,-128.3 1717.7,-124.8 1707.7,-121.3 1707.7,-128.3"/>
</g>
<!-- ToggleComponent -->
<g id="node19" class="node">
<title>ToggleComponent</title>
<polygon fill="#ffffb3" stroke="black" points="973.49,-84.8 852.51,-84.8 852.51,-48.8 973.49,-48.8 973.49,-84.8"/>
<text text-anchor="middle" x="913" y="-62.6" font-family="Times,serif" font-size="14.00">ToggleComponent</text>
</g>
<!-- ToggleComponent&#45;&gt;AirControlsModule -->
<g id="edge20" class="edge">
<title>ToggleComponent&#45;&gt;AirControlsModule</title>
<path fill="none" stroke="black" d="M913,-84.8C913,-102.48 913,-126.8 913,-126.8 913,-126.8 1707.53,-126.8 1707.53,-126.8"/>
<polygon fill="black" stroke="black" points="1707.53,-130.3 1717.53,-126.8 1707.53,-123.3 1707.53,-130.3"/>
</g>
<!-- AutofocusDirective  -->
<g id="node27" class="node">
<title>AutofocusDirective </title>
<polygon fill="#fb8072" stroke="black" points="2546.9,-214.8 2417.1,-214.8 2417.1,-178.8 2546.9,-178.8 2546.9,-214.8"/>
<text text-anchor="middle" x="2482" y="-192.6" font-family="Times,serif" font-size="14.00">AutofocusDirective </text>
</g>
<!-- AirControlsModule&#45;&gt;AutofocusDirective  -->
<g id="edge27" class="edge">
<title>AirControlsModule&#45;&gt;AutofocusDirective </title>
<path fill="none" stroke="black" stroke-dasharray="5,2" d="M1844.5,-141.8C2011.94,-141.8 2452.72,-141.8 2452.72,-141.8 2452.72,-141.8 2452.72,-168.79 2452.72,-168.79"/>
<polygon fill="black" stroke="black" points="2449.22,-168.79 2452.72,-178.79 2456.22,-168.79 2449.22,-168.79"/>
</g>
<!-- ClearInputBeforeUploadDirective  -->
<g id="node28" class="node">
<title>ClearInputBeforeUploadDirective </title>
<polygon fill="#fb8072" stroke="black" points="2399.25,-214.8 2188.75,-214.8 2188.75,-178.8 2399.25,-178.8 2399.25,-214.8"/>
<text text-anchor="middle" x="2294" y="-192.6" font-family="Times,serif" font-size="14.00">ClearInputBeforeUploadDirective </text>
</g>
<!-- AirControlsModule&#45;&gt;ClearInputBeforeUploadDirective  -->
<g id="edge28" class="edge">
<title>AirControlsModule&#45;&gt;ClearInputBeforeUploadDirective </title>
<path fill="none" stroke="black" stroke-dasharray="5,2" d="M1844.27,-143.8C1961.5,-143.8 2200.61,-143.8 2200.61,-143.8 2200.61,-143.8 2200.61,-168.56 2200.61,-168.56"/>
<polygon fill="black" stroke="black" points="2197.11,-168.56 2200.61,-178.56 2204.11,-168.56 2197.11,-168.56"/>
</g>
<!-- HideIfEmptyDirective  -->
<g id="node29" class="node">
<title>HideIfEmptyDirective </title>
<polygon fill="#fb8072" stroke="black" points="2170.95,-214.8 2025.05,-214.8 2025.05,-178.8 2170.95,-178.8 2170.95,-214.8"/>
<text text-anchor="middle" x="2098" y="-192.6" font-family="Times,serif" font-size="14.00">HideIfEmptyDirective </text>
</g>
<!-- AirControlsModule&#45;&gt;HideIfEmptyDirective  -->
<g id="edge29" class="edge">
<title>AirControlsModule&#45;&gt;HideIfEmptyDirective </title>
<path fill="none" stroke="black" stroke-dasharray="5,2" d="M1844.47,-145.8C1924.9,-145.8 2053.19,-145.8 2053.19,-145.8 2053.19,-145.8 2053.19,-168.68 2053.19,-168.68"/>
<polygon fill="black" stroke="black" points="2049.69,-168.68 2053.19,-178.68 2056.69,-168.68 2049.69,-168.68"/>
</g>
<!-- MergePipe  -->
<g id="node30" class="node">
<title>MergePipe </title>
<polygon fill="#fb8072" stroke="black" points="2007.42,-214.8 1926.58,-214.8 1926.58,-178.8 2007.42,-178.8 2007.42,-214.8"/>
<text text-anchor="middle" x="1967" y="-192.6" font-family="Times,serif" font-size="14.00">MergePipe </text>
</g>
<!-- AirControlsModule&#45;&gt;MergePipe  -->
<g id="edge30" class="edge">
<title>AirControlsModule&#45;&gt;MergePipe </title>
<path fill="none" stroke="black" stroke-dasharray="5,2" d="M1844.32,-147.8C1886.6,-147.8 1934.49,-147.8 1934.49,-147.8 1934.49,-147.8 1934.49,-168.55 1934.49,-168.55"/>
<polygon fill="black" stroke="black" points="1930.99,-168.55 1934.49,-178.55 1937.99,-168.55 1930.99,-168.55"/>
</g>
<!-- OverlayDirective  -->
<g id="node31" class="node">
<title>OverlayDirective </title>
<polygon fill="#fb8072" stroke="black" points="1908.17,-214.8 1791.83,-214.8 1791.83,-178.8 1908.17,-178.8 1908.17,-214.8"/>
<text text-anchor="middle" x="1850" y="-192.6" font-family="Times,serif" font-size="14.00">OverlayDirective </text>
</g>
<!-- AirControlsModule&#45;&gt;OverlayDirective  -->
<g id="edge31" class="edge">
<title>AirControlsModule&#45;&gt;OverlayDirective </title>
<path fill="none" stroke="black" stroke-dasharray="5,2" d="M1817.94,-149.91C1817.94,-149.91 1817.94,-168.79 1817.94,-168.79"/>
<polygon fill="black" stroke="black" points="1814.44,-168.79 1817.94,-178.79 1821.44,-168.79 1814.44,-168.79"/>
</g>
<!-- ReplaceStringPipe  -->
<g id="node32" class="node">
<title>ReplaceStringPipe </title>
<polygon fill="#fb8072" stroke="black" points="1773.7,-214.8 1650.3,-214.8 1650.3,-178.8 1773.7,-178.8 1773.7,-214.8"/>
<text text-anchor="middle" x="1712" y="-192.6" font-family="Times,serif" font-size="14.00">ReplaceStringPipe </text>
</g>
<!-- AirControlsModule&#45;&gt;ReplaceStringPipe  -->
<g id="edge32" class="edge">
<title>AirControlsModule&#45;&gt;ReplaceStringPipe </title>
<path fill="none" stroke="black" stroke-dasharray="5,2" d="M1745.82,-149.91C1745.82,-149.91 1745.82,-168.79 1745.82,-168.79"/>
<polygon fill="black" stroke="black" points="1742.32,-168.79 1745.82,-178.79 1749.32,-168.79 1742.32,-168.79"/>
</g>
<!-- ReplaceVarsPipe  -->
<g id="node33" class="node">
<title>ReplaceVarsPipe </title>
<polygon fill="#fb8072" stroke="black" points="1631.9,-214.8 1516.1,-214.8 1516.1,-178.8 1631.9,-178.8 1631.9,-214.8"/>
<text text-anchor="middle" x="1574" y="-192.6" font-family="Times,serif" font-size="14.00">ReplaceVarsPipe </text>
</g>
<!-- AirControlsModule&#45;&gt;ReplaceVarsPipe  -->
<g id="edge33" class="edge">
<title>AirControlsModule&#45;&gt;ReplaceVarsPipe </title>
<path fill="none" stroke="black" stroke-dasharray="5,2" d="M1717.65,-147.8C1674.94,-147.8 1626.34,-147.8 1626.34,-147.8 1626.34,-147.8 1626.34,-168.55 1626.34,-168.55"/>
<polygon fill="black" stroke="black" points="1622.84,-168.55 1626.34,-178.55 1629.84,-168.55 1622.84,-168.55"/>
</g>
<!-- ScrollDirective  -->
<g id="node34" class="node">
<title>ScrollDirective </title>
<polygon fill="#fb8072" stroke="black" points="1498.52,-214.8 1393.48,-214.8 1393.48,-178.8 1498.52,-178.8 1498.52,-214.8"/>
<text text-anchor="middle" x="1446" y="-192.6" font-family="Times,serif" font-size="14.00">ScrollDirective </text>
</g>
<!-- AirControlsModule&#45;&gt;ScrollDirective  -->
<g id="edge34" class="edge">
<title>AirControlsModule&#45;&gt;ScrollDirective </title>
<path fill="none" stroke="black" stroke-dasharray="5,2" d="M1717.77,-145.8C1632.95,-145.8 1492.87,-145.8 1492.87,-145.8 1492.87,-145.8 1492.87,-168.68 1492.87,-168.68"/>
<polygon fill="black" stroke="black" points="1489.37,-168.68 1492.87,-178.68 1496.37,-168.68 1489.37,-168.68"/>
</g>
<!-- ScrollToMeDirective  -->
<g id="node35" class="node">
<title>ScrollToMeDirective </title>
<polygon fill="#fb8072" stroke="black" points="1375.73,-214.8 1236.27,-214.8 1236.27,-178.8 1375.73,-178.8 1375.73,-214.8"/>
<text text-anchor="middle" x="1306" y="-192.6" font-family="Times,serif" font-size="14.00">ScrollToMeDirective </text>
</g>
<!-- AirControlsModule&#45;&gt;ScrollToMeDirective  -->
<g id="edge35" class="edge">
<title>AirControlsModule&#45;&gt;ScrollToMeDirective </title>
<path fill="none" stroke="black" stroke-dasharray="5,2" d="M1717.68,-143.8C1596.21,-143.8 1342.34,-143.8 1342.34,-143.8 1342.34,-143.8 1342.34,-168.56 1342.34,-168.56"/>
<polygon fill="black" stroke="black" points="1338.84,-168.56 1342.34,-178.56 1345.84,-168.56 1338.84,-168.56"/>
</g>
<!-- ThemeDirective  -->
<g id="node36" class="node">
<title>ThemeDirective </title>
<polygon fill="#fb8072" stroke="black" points="1218.46,-214.8 1107.54,-214.8 1107.54,-178.8 1218.46,-178.8 1218.46,-214.8"/>
<text text-anchor="middle" x="1163" y="-192.6" font-family="Times,serif" font-size="14.00">ThemeDirective </text>
</g>
<!-- AirControlsModule&#45;&gt;ThemeDirective  -->
<g id="edge36" class="edge">
<title>AirControlsModule&#45;&gt;ThemeDirective </title>
<path fill="none" stroke="black" stroke-dasharray="5,2" d="M1717.71,-141.8C1566.64,-141.8 1197.42,-141.8 1197.42,-141.8 1197.42,-141.8 1197.42,-168.79 1197.42,-168.79"/>
<polygon fill="black" stroke="black" points="1193.92,-168.79 1197.42,-178.79 1200.92,-168.79 1193.92,-168.79"/>
</g>
<!-- AirButtonModule -->
<g id="node21" class="node">
<title>AirButtonModule</title>
<polygon fill="#8dd3c7" stroke="black" points="829.33,-84.8 826.33,-88.8 805.33,-88.8 802.33,-84.8 712.67,-84.8 712.67,-48.8 829.33,-48.8 829.33,-84.8"/>
<text text-anchor="middle" x="771" y="-62.6" font-family="Times,serif" font-size="14.00">AirButtonModule</text>
</g>
<!-- AirButtonModule&#45;&gt;AirControlsModule -->
<g id="edge21" class="edge">
<title>AirButtonModule&#45;&gt;AirControlsModule</title>
<path fill="none" stroke="black" d="M771,-85.07C771,-103.36 771,-128.8 771,-128.8 771,-128.8 1707.44,-128.8 1707.44,-128.8"/>
<polygon fill="black" stroke="black" points="1707.44,-132.3 1717.44,-128.8 1707.44,-125.3 1707.44,-132.3"/>
</g>
<!-- AirCdkModule -->
<g id="node22" class="node">
<title>AirCdkModule</title>
<polygon fill="#8dd3c7" stroke="black" points="694.55,-84.8 691.55,-88.8 670.55,-88.8 667.55,-84.8 593.45,-84.8 593.45,-48.8 694.55,-48.8 694.55,-84.8"/>
<text text-anchor="middle" x="644" y="-62.6" font-family="Times,serif" font-size="14.00">AirCdkModule</text>
</g>
<!-- AirCdkModule&#45;&gt;AirControlsModule -->
<g id="edge22" class="edge">
<title>AirCdkModule&#45;&gt;AirControlsModule</title>
<path fill="none" stroke="black" d="M644,-84.97C644,-103.89 644,-130.8 644,-130.8 644,-130.8 1707.43,-130.8 1707.43,-130.8"/>
<polygon fill="black" stroke="black" points="1707.43,-134.3 1717.43,-130.8 1707.43,-127.3 1707.43,-134.3"/>
</g>
<!-- AirDirectionModule -->
<g id="node23" class="node">
<title>AirDirectionModule</title>
<polygon fill="#8dd3c7" stroke="black" points="575.58,-84.8 572.58,-88.8 551.58,-88.8 548.58,-84.8 444.42,-84.8 444.42,-48.8 575.58,-48.8 575.58,-84.8"/>
<text text-anchor="middle" x="510" y="-62.6" font-family="Times,serif" font-size="14.00">AirDirectionModule</text>
</g>
<!-- AirDirectionModule&#45;&gt;AirControlsModule -->
<g id="edge23" class="edge">
<title>AirDirectionModule&#45;&gt;AirControlsModule</title>
<path fill="none" stroke="black" d="M510,-85.11C510,-104.95 510,-133.8 510,-133.8 510,-133.8 1707.54,-133.8 1707.54,-133.8"/>
<polygon fill="black" stroke="black" points="1707.54,-137.3 1717.54,-133.8 1707.54,-130.3 1707.54,-137.3"/>
</g>
<!-- AirIconModule -->
<g id="node24" class="node">
<title>AirIconModule</title>
<polygon fill="#8dd3c7" stroke="black" points="426.58,-84.8 423.58,-88.8 402.58,-88.8 399.58,-84.8 323.42,-84.8 323.42,-48.8 426.58,-48.8 426.58,-84.8"/>
<text text-anchor="middle" x="375" y="-62.6" font-family="Times,serif" font-size="14.00">AirIconModule</text>
</g>
<!-- AirIconModule&#45;&gt;AirControlsModule -->
<g id="edge24" class="edge">
<title>AirIconModule&#45;&gt;AirControlsModule</title>
<path fill="none" stroke="black" d="M375,-84.93C375,-105.37 375,-135.8 375,-135.8 375,-135.8 1707.4,-135.8 1707.4,-135.8"/>
<polygon fill="black" stroke="black" points="1707.4,-139.3 1717.4,-135.8 1707.4,-132.3 1707.4,-139.3"/>
</g>
<!-- AirLayoutModule -->
<g id="node25" class="node">
<title>AirLayoutModule</title>
<polygon fill="#8dd3c7" stroke="black" points="305.87,-84.8 302.87,-88.8 281.87,-88.8 278.87,-84.8 188.13,-84.8 188.13,-48.8 305.87,-48.8 305.87,-84.8"/>
<text text-anchor="middle" x="247" y="-62.6" font-family="Times,serif" font-size="14.00">AirLayoutModule</text>
</g>
<!-- AirLayoutModule&#45;&gt;AirControlsModule -->
<g id="edge25" class="edge">
<title>AirLayoutModule&#45;&gt;AirControlsModule</title>
<path fill="none" stroke="black" d="M247,-85.08C247,-106.12 247,-137.8 247,-137.8 247,-137.8 1707.52,-137.8 1707.52,-137.8"/>
<polygon fill="black" stroke="black" points="1707.52,-141.3 1717.52,-137.8 1707.52,-134.3 1707.52,-141.3"/>
</g>
<!-- AirTypographyModule -->
<g id="node26" class="node">
<title>AirTypographyModule</title>
<polygon fill="#8dd3c7" stroke="black" points="170.14,-84.8 167.14,-88.8 146.14,-88.8 143.14,-84.8 23.86,-84.8 23.86,-48.8 170.14,-48.8 170.14,-84.8"/>
<text text-anchor="middle" x="97" y="-62.6" font-family="Times,serif" font-size="14.00">AirTypographyModule</text>
</g>
<!-- AirTypographyModule&#45;&gt;AirControlsModule -->
<g id="edge26" class="edge">
<title>AirTypographyModule&#45;&gt;AirControlsModule</title>
<path fill="none" stroke="black" d="M97,-84.84C97,-106.46 97,-139.8 97,-139.8 97,-139.8 1707.55,-139.8 1707.55,-139.8"/>
<polygon fill="black" stroke="black" points="1707.55,-143.3 1717.55,-139.8 1707.55,-136.3 1707.55,-143.3"/>
</g>
</g>
</svg>
