<?xml version="1.0" encoding="UTF-8" standalone="no"?>
<!DOCTYPE svg PUBLIC "-//W3C//DTD SVG 1.1//EN"
 "http://www.w3.org/Graphics/SVG/1.1/DTD/svg11.dtd">
<!-- Generated by graphviz version 2.47.3 (20210619.1520)
 -->
<!-- Title: dependencies Pages: 1 -->
<svg width="1495pt" height="247pt"
 viewBox="0.00 0.00 1495.00 246.80" xmlns="http://www.w3.org/2000/svg" xmlns:xlink="http://www.w3.org/1999/xlink">
<g id="graph0" class="graph" transform="scale(1 1) rotate(0) translate(4 242.8)">
<title>dependencies</title>
<polygon fill="white" stroke="transparent" points="-4,4 -4,-242.8 1491,-242.8 1491,4 -4,4"/>
<text text-anchor="middle" x="743.5" y="-8.2" font-family="sans-serif" font-size="14.00">dependencies</text>
<g id="clust1" class="cluster">
<title>cluster_AirTypographyModule</title>
<polygon fill="none" stroke="black" stroke-dasharray="1,5" points="8,-32.8 8,-230.8 1479,-230.8 1479,-32.8 8,-32.8"/>
</g>
<g id="clust2" class="cluster">
<title>cluster_AirTypographyModule_declarations</title>
<polygon fill="none" stroke="black" points="461,-40.8 461,-92.8 965,-92.8 965,-40.8 461,-40.8"/>
</g>
<g id="clust8" class="cluster">
<title>cluster_AirTypographyModule_exports</title>
<polygon fill="none" stroke="black" points="16,-170.8 16,-222.8 1471,-222.8 1471,-170.8 16,-170.8"/>
</g>
<!-- ColorDirective -->
<g id="node1" class="node">
<title>ColorDirective</title>
<polygon fill="#ffffb3" stroke="black" points="956.97,-84.8 857.03,-84.8 857.03,-48.8 956.97,-48.8 956.97,-84.8"/>
<text text-anchor="middle" x="907" y="-62.6" font-family="Times,serif" font-size="14.00">ColorDirective</text>
</g>
<!-- AirTypographyModule -->
<g id="node5" class="node">
<title>AirTypographyModule</title>
<polygon fill="#8dd3c7" stroke="black" points="770.14,-149.8 767.14,-153.8 746.14,-153.8 743.14,-149.8 623.86,-149.8 623.86,-113.8 770.14,-113.8 770.14,-149.8"/>
<text text-anchor="middle" x="697" y="-127.6" font-family="Times,serif" font-size="14.00">AirTypographyModule</text>
</g>
<!-- ColorDirective&#45;&gt;AirTypographyModule -->
<g id="edge1" class="edge">
<title>ColorDirective&#45;&gt;AirTypographyModule</title>
<path fill="none" stroke="black" d="M890.24,-85.04C890.24,-100.37 890.24,-119.8 890.24,-119.8 890.24,-119.8 780.33,-119.8 780.33,-119.8"/>
<polygon fill="black" stroke="black" points="780.33,-116.3 770.33,-119.8 780.33,-123.3 780.33,-116.3"/>
</g>
<!-- TextDirectionDirective -->
<g id="node2" class="node">
<title>TextDirectionDirective</title>
<polygon fill="#ffffb3" stroke="black" points="839.11,-84.8 692.89,-84.8 692.89,-48.8 839.11,-48.8 839.11,-84.8"/>
<text text-anchor="middle" x="766" y="-62.6" font-family="Times,serif" font-size="14.00">TextDirectionDirective</text>
</g>
<!-- TextDirectionDirective&#45;&gt;AirTypographyModule -->
<g id="edge2" class="edge">
<title>TextDirectionDirective&#45;&gt;AirTypographyModule</title>
<path fill="none" stroke="black" d="M731.51,-84.91C731.51,-84.91 731.51,-103.79 731.51,-103.79"/>
<polygon fill="black" stroke="black" points="728.01,-103.79 731.51,-113.79 735.01,-103.79 728.01,-103.79"/>
</g>
<!-- TextDirective -->
<g id="node3" class="node">
<title>TextDirective</title>
<polygon fill="#ffffb3" stroke="black" points="674.74,-84.8 581.26,-84.8 581.26,-48.8 674.74,-48.8 674.74,-84.8"/>
<text text-anchor="middle" x="628" y="-62.6" font-family="Times,serif" font-size="14.00">TextDirective</text>
</g>
<!-- TextDirective&#45;&gt;AirTypographyModule -->
<g id="edge3" class="edge">
<title>TextDirective&#45;&gt;AirTypographyModule</title>
<path fill="none" stroke="black" d="M649.28,-84.91C649.28,-84.91 649.28,-103.79 649.28,-103.79"/>
<polygon fill="black" stroke="black" points="645.78,-103.79 649.28,-113.79 652.78,-103.79 645.78,-103.79"/>
</g>
<!-- TitleDirective -->
<g id="node4" class="node">
<title>TitleDirective</title>
<polygon fill="#ffffb3" stroke="black" points="563.02,-84.8 468.98,-84.8 468.98,-48.8 563.02,-48.8 563.02,-84.8"/>
<text text-anchor="middle" x="516" y="-62.6" font-family="Times,serif" font-size="14.00">TitleDirective</text>
</g>
<!-- TitleDirective&#45;&gt;AirTypographyModule -->
<g id="edge4" class="edge">
<title>TitleDirective&#45;&gt;AirTypographyModule</title>
<path fill="none" stroke="black" d="M555.61,-85.04C555.61,-100.37 555.61,-119.8 555.61,-119.8 555.61,-119.8 613.82,-119.8 613.82,-119.8"/>
<polygon fill="black" stroke="black" points="613.82,-123.3 623.82,-119.8 613.82,-116.3 613.82,-123.3"/>
</g>
<!-- AutofocusDirective  -->
<g id="node6" class="node">
<title>AutofocusDirective </title>
<polygon fill="#fb8072" stroke="black" points="1462.9,-214.8 1333.1,-214.8 1333.1,-178.8 1462.9,-178.8 1462.9,-214.8"/>
<text text-anchor="middle" x="1398" y="-192.6" font-family="Times,serif" font-size="14.00">AutofocusDirective </text>
</g>
<!-- AirTypographyModule&#45;&gt;AutofocusDirective  -->
<g id="edge5" class="edge">
<title>AirTypographyModule&#45;&gt;AutofocusDirective </title>
<path fill="none" stroke="black" stroke-dasharray="5,2" d="M770.36,-125.8C950.13,-125.8 1398,-125.8 1398,-125.8 1398,-125.8 1398,-168.52 1398,-168.52"/>
<polygon fill="black" stroke="black" points="1394.5,-168.52 1398,-178.52 1401.5,-168.52 1394.5,-168.52"/>
</g>
<!-- ClearInputBeforeUploadDirective  -->
<g id="node7" class="node">
<title>ClearInputBeforeUploadDirective </title>
<polygon fill="#fb8072" stroke="black" points="1315.25,-214.8 1104.75,-214.8 1104.75,-178.8 1315.25,-178.8 1315.25,-214.8"/>
<text text-anchor="middle" x="1210" y="-192.6" font-family="Times,serif" font-size="14.00">ClearInputBeforeUploadDirective </text>
</g>
<!-- AirTypographyModule&#45;&gt;ClearInputBeforeUploadDirective  -->
<g id="edge6" class="edge">
<title>AirTypographyModule&#45;&gt;ClearInputBeforeUploadDirective </title>
<path fill="none" stroke="black" stroke-dasharray="5,2" d="M770.23,-131.8C911.97,-131.8 1210,-131.8 1210,-131.8 1210,-131.8 1210,-168.69 1210,-168.69"/>
<polygon fill="black" stroke="black" points="1206.5,-168.69 1210,-178.69 1213.5,-168.69 1206.5,-168.69"/>
</g>
<!-- HideIfEmptyDirective  -->
<g id="node8" class="node">
<title>HideIfEmptyDirective </title>
<polygon fill="#fb8072" stroke="black" points="1086.95,-214.8 941.05,-214.8 941.05,-178.8 1086.95,-178.8 1086.95,-214.8"/>
<text text-anchor="middle" x="1014" y="-192.6" font-family="Times,serif" font-size="14.00">HideIfEmptyDirective </text>
</g>
<!-- AirTypographyModule&#45;&gt;HideIfEmptyDirective  -->
<g id="edge7" class="edge">
<title>AirTypographyModule&#45;&gt;HideIfEmptyDirective </title>
<path fill="none" stroke="black" stroke-dasharray="5,2" d="M770.27,-137.8C844.71,-137.8 949.13,-137.8 949.13,-137.8 949.13,-137.8 949.13,-168.78 949.13,-168.78"/>
<polygon fill="black" stroke="black" points="945.63,-168.78 949.13,-178.78 952.63,-168.78 945.63,-168.78"/>
</g>
<!-- MergePipe  -->
<g id="node9" class="node">
<title>MergePipe </title>
<polygon fill="#fb8072" stroke="black" points="923.42,-214.8 842.58,-214.8 842.58,-178.8 923.42,-178.8 923.42,-214.8"/>
<text text-anchor="middle" x="883" y="-192.6" font-family="Times,serif" font-size="14.00">MergePipe </text>
</g>
<!-- AirTypographyModule&#45;&gt;MergePipe  -->
<g id="edge8" class="edge">
<title>AirTypographyModule&#45;&gt;MergePipe </title>
<path fill="none" stroke="black" stroke-dasharray="5,2" d="M770.26,-143.8C809.47,-143.8 849.78,-143.8 849.78,-143.8 849.78,-143.8 849.78,-168.56 849.78,-168.56"/>
<polygon fill="black" stroke="black" points="846.28,-168.56 849.78,-178.56 853.28,-168.56 846.28,-168.56"/>
</g>
<!-- OverlayDirective  -->
<g id="node10" class="node">
<title>OverlayDirective </title>
<polygon fill="#fb8072" stroke="black" points="824.17,-214.8 707.83,-214.8 707.83,-178.8 824.17,-178.8 824.17,-214.8"/>
<text text-anchor="middle" x="766" y="-192.6" font-family="Times,serif" font-size="14.00">OverlayDirective </text>
</g>
<!-- AirTypographyModule&#45;&gt;OverlayDirective  -->
<g id="edge9" class="edge">
<title>AirTypographyModule&#45;&gt;OverlayDirective </title>
<path fill="none" stroke="black" stroke-dasharray="5,2" d="M738.99,-149.91C738.99,-149.91 738.99,-168.79 738.99,-168.79"/>
<polygon fill="black" stroke="black" points="735.49,-168.79 738.99,-178.79 742.49,-168.79 735.49,-168.79"/>
</g>
<!-- ReplaceStringPipe  -->
<g id="node11" class="node">
<title>ReplaceStringPipe </title>
<polygon fill="#fb8072" stroke="black" points="689.7,-214.8 566.3,-214.8 566.3,-178.8 689.7,-178.8 689.7,-214.8"/>
<text text-anchor="middle" x="628" y="-192.6" font-family="Times,serif" font-size="14.00">ReplaceStringPipe </text>
</g>
<!-- AirTypographyModule&#45;&gt;ReplaceStringPipe  -->
<g id="edge10" class="edge">
<title>AirTypographyModule&#45;&gt;ReplaceStringPipe </title>
<path fill="none" stroke="black" stroke-dasharray="5,2" d="M656.77,-149.91C656.77,-149.91 656.77,-168.79 656.77,-168.79"/>
<polygon fill="black" stroke="black" points="653.27,-168.79 656.77,-178.79 660.27,-168.79 653.27,-168.79"/>
</g>
<!-- ReplaceVarsPipe  -->
<g id="node12" class="node">
<title>ReplaceVarsPipe </title>
<polygon fill="#fb8072" stroke="black" points="547.9,-214.8 432.1,-214.8 432.1,-178.8 547.9,-178.8 547.9,-214.8"/>
<text text-anchor="middle" x="490" y="-192.6" font-family="Times,serif" font-size="14.00">ReplaceVarsPipe </text>
</g>
<!-- AirTypographyModule&#45;&gt;ReplaceVarsPipe  -->
<g id="edge11" class="edge">
<title>AirTypographyModule&#45;&gt;ReplaceVarsPipe </title>
<path fill="none" stroke="black" stroke-dasharray="5,2" d="M623.79,-143.8C570.76,-143.8 508.34,-143.8 508.34,-143.8 508.34,-143.8 508.34,-168.56 508.34,-168.56"/>
<polygon fill="black" stroke="black" points="504.84,-168.56 508.34,-178.56 511.84,-168.56 504.84,-168.56"/>
</g>
<!-- ScrollDirective  -->
<g id="node13" class="node">
<title>ScrollDirective </title>
<polygon fill="#fb8072" stroke="black" points="414.52,-214.8 309.48,-214.8 309.48,-178.8 414.52,-178.8 414.52,-214.8"/>
<text text-anchor="middle" x="362" y="-192.6" font-family="Times,serif" font-size="14.00">ScrollDirective </text>
</g>
<!-- AirTypographyModule&#45;&gt;ScrollDirective  -->
<g id="edge12" class="edge">
<title>AirTypographyModule&#45;&gt;ScrollDirective </title>
<path fill="none" stroke="black" stroke-dasharray="5,2" d="M623.48,-137.8C524.87,-137.8 362,-137.8 362,-137.8 362,-137.8 362,-168.78 362,-168.78"/>
<polygon fill="black" stroke="black" points="358.5,-168.78 362,-178.78 365.5,-168.78 358.5,-168.78"/>
</g>
<!-- ScrollToMeDirective  -->
<g id="node14" class="node">
<title>ScrollToMeDirective </title>
<polygon fill="#fb8072" stroke="black" points="291.73,-214.8 152.27,-214.8 152.27,-178.8 291.73,-178.8 291.73,-214.8"/>
<text text-anchor="middle" x="222" y="-192.6" font-family="Times,serif" font-size="14.00">ScrollToMeDirective </text>
</g>
<!-- AirTypographyModule&#45;&gt;ScrollToMeDirective  -->
<g id="edge13" class="edge">
<title>AirTypographyModule&#45;&gt;ScrollToMeDirective </title>
<path fill="none" stroke="black" stroke-dasharray="5,2" d="M623.82,-131.8C490.58,-131.8 222,-131.8 222,-131.8 222,-131.8 222,-168.69 222,-168.69"/>
<polygon fill="black" stroke="black" points="218.5,-168.69 222,-178.69 225.5,-168.69 218.5,-168.69"/>
</g>
<!-- ThemeDirective  -->
<g id="node15" class="node">
<title>ThemeDirective </title>
<polygon fill="#fb8072" stroke="black" points="134.46,-214.8 23.54,-214.8 23.54,-178.8 134.46,-178.8 134.46,-214.8"/>
<text text-anchor="middle" x="79" y="-192.6" font-family="Times,serif" font-size="14.00">ThemeDirective </text>
</g>
<!-- AirTypographyModule&#45;&gt;ThemeDirective  -->
<g id="edge14" class="edge">
<title>AirTypographyModule&#45;&gt;ThemeDirective </title>
<path fill="none" stroke="black" stroke-dasharray="5,2" d="M623.68,-125.8C459.98,-125.8 79,-125.8 79,-125.8 79,-125.8 79,-168.52 79,-168.52"/>
<polygon fill="black" stroke="black" points="75.5,-168.52 79,-178.52 82.5,-168.52 75.5,-168.52"/>
</g>
</g>
</svg>
