<svg viewBox="0 0 13 13" fill="none" xmlns="http://www.w3.org/2000/svg">
  <path
    d="M7.65008 6.08964C7.62657 6.06619 7.61336 6.03435 7.61336 6.00114C7.61336 5.96794 7.62657 5.93609 7.65008 5.91264L12.2816 1.28164C12.5744 0.988381 12.5741 0.513243 12.2808 0.220394C11.9876 -0.0724552 11.5124 -0.0721194 11.2196 0.221144L6.58858 4.85014C6.56513 4.87365 6.53329 4.88687 6.50008 4.88687C6.46687 4.88687 6.43503 4.87365 6.41158 4.85014L1.78058 0.221144C1.48773 -0.0718432 1.01282 -0.0719552 0.719831 0.220894C0.426844 0.513743 0.426732 0.988657 0.719581 1.28164L5.35008 5.91264C5.37359 5.93609 5.3868 5.96794 5.3868 6.00114C5.3868 6.03435 5.37359 6.06619 5.35008 6.08964L0.719581 10.7211C0.530141 10.9107 0.456203 11.1869 0.525621 11.4457C0.595038 11.7045 0.797263 11.9067 1.05612 11.9759C1.31498 12.0452 1.59114 11.9712 1.78058 11.7816L6.41158 7.15014C6.43503 7.12663 6.46687 7.11342 6.50008 7.11342C6.53329 7.11342 6.56513 7.12663 6.58858 7.15014L11.2196 11.7816C11.5124 12.0746 11.9873 12.0747 12.2803 11.7819C12.5733 11.489 12.5734 11.0141 12.2806 10.7211L7.65008 6.08964Z"
    fill="#DC1833"/>
</svg>
