<?xml version="1.0" encoding="UTF-8" standalone="no"?>
<!DOCTYPE svg PUBLIC "-//W3C//DTD SVG 1.1//EN"
 "http://www.w3.org/Graphics/SVG/1.1/DTD/svg11.dtd">
<!-- Generated by graphviz version 2.47.3 (20210619.1520)
 -->
<!-- Title: dependencies Pages: 1 -->
<svg width="1495pt" height="247pt"
 viewBox="0.00 0.00 1495.00 246.80" xmlns="http://www.w3.org/2000/svg" xmlns:xlink="http://www.w3.org/1999/xlink">
<g id="graph0" class="graph" transform="scale(1 1) rotate(0) translate(4 242.8)">
<title>dependencies</title>
<polygon fill="white" stroke="transparent" points="-4,4 -4,-242.8 1491,-242.8 1491,4 -4,4"/>
<text text-anchor="middle" x="743.5" y="-8.2" font-family="sans-serif" font-size="14.00">dependencies</text>
<g id="clust1" class="cluster">
<title>cluster_AirPopoverModule</title>
<polygon fill="none" stroke="black" stroke-dasharray="1,5" points="8,-32.8 8,-230.8 1479,-230.8 1479,-32.8 8,-32.8"/>
</g>
<g id="clust7" class="cluster">
<title>cluster_AirPopoverModule_exports</title>
<polygon fill="none" stroke="black" points="16,-170.8 16,-222.8 1471,-222.8 1471,-170.8 16,-170.8"/>
</g>
<g id="clust2" class="cluster">
<title>cluster_AirPopoverModule_declarations</title>
<polygon fill="none" stroke="black" points="493,-40.8 493,-92.8 915,-92.8 915,-40.8 493,-40.8"/>
</g>
<!-- ConfirmComponent -->
<g id="node1" class="node">
<title>ConfirmComponent</title>
<polygon fill="#ffffb3" stroke="black" points="907.27,-84.8 778.73,-84.8 778.73,-48.8 907.27,-48.8 907.27,-84.8"/>
<text text-anchor="middle" x="843" y="-62.6" font-family="Times,serif" font-size="14.00">ConfirmComponent</text>
</g>
<!-- AirPopoverModule -->
<g id="node4" class="node">
<title>AirPopoverModule</title>
<polygon fill="#8dd3c7" stroke="black" points="759.37,-149.8 756.37,-153.8 735.37,-153.8 732.37,-149.8 634.63,-149.8 634.63,-113.8 759.37,-113.8 759.37,-149.8"/>
<text text-anchor="middle" x="697" y="-127.6" font-family="Times,serif" font-size="14.00">AirPopoverModule</text>
</g>
<!-- ConfirmComponent&#45;&gt;AirPopoverModule -->
<g id="edge1" class="edge">
<title>ConfirmComponent&#45;&gt;AirPopoverModule</title>
<path fill="none" stroke="black" d="M801.47,-85.04C801.47,-100.37 801.47,-119.8 801.47,-119.8 801.47,-119.8 769.58,-119.8 769.58,-119.8"/>
<polygon fill="black" stroke="black" points="769.58,-116.3 759.58,-119.8 769.58,-123.3 769.58,-116.3"/>
</g>
<!-- PopoverComponent -->
<g id="node2" class="node">
<title>PopoverComponent</title>
<polygon fill="#ffffb3" stroke="black" points="760.99,-84.8 633.01,-84.8 633.01,-48.8 760.99,-48.8 760.99,-84.8"/>
<text text-anchor="middle" x="697" y="-62.6" font-family="Times,serif" font-size="14.00">PopoverComponent</text>
</g>
<!-- PopoverComponent&#45;&gt;AirPopoverModule -->
<g id="edge2" class="edge">
<title>PopoverComponent&#45;&gt;AirPopoverModule</title>
<path fill="none" stroke="black" d="M697,-84.91C697,-84.91 697,-103.79 697,-103.79"/>
<polygon fill="black" stroke="black" points="693.5,-103.79 697,-113.79 700.5,-103.79 693.5,-103.79"/>
</g>
<!-- PopoverDirective -->
<g id="node3" class="node">
<title>PopoverDirective</title>
<polygon fill="#ffffb3" stroke="black" points="615.24,-84.8 500.76,-84.8 500.76,-48.8 615.24,-48.8 615.24,-84.8"/>
<text text-anchor="middle" x="558" y="-62.6" font-family="Times,serif" font-size="14.00">PopoverDirective</text>
</g>
<!-- PopoverDirective&#45;&gt;AirPopoverModule -->
<g id="edge3" class="edge">
<title>PopoverDirective&#45;&gt;AirPopoverModule</title>
<path fill="none" stroke="black" d="M590.76,-85.04C590.76,-100.37 590.76,-119.8 590.76,-119.8 590.76,-119.8 624.59,-119.8 624.59,-119.8"/>
<polygon fill="black" stroke="black" points="624.59,-123.3 634.59,-119.8 624.59,-116.3 624.59,-123.3"/>
</g>
<!-- AutofocusDirective  -->
<g id="node5" class="node">
<title>AutofocusDirective </title>
<polygon fill="#fb8072" stroke="black" points="1462.9,-214.8 1333.1,-214.8 1333.1,-178.8 1462.9,-178.8 1462.9,-214.8"/>
<text text-anchor="middle" x="1398" y="-192.6" font-family="Times,serif" font-size="14.00">AutofocusDirective </text>
</g>
<!-- AirPopoverModule&#45;&gt;AutofocusDirective  -->
<g id="edge4" class="edge">
<title>AirPopoverModule&#45;&gt;AutofocusDirective </title>
<path fill="none" stroke="black" stroke-dasharray="5,2" d="M759.52,-125.8C931.33,-125.8 1398,-125.8 1398,-125.8 1398,-125.8 1398,-168.52 1398,-168.52"/>
<polygon fill="black" stroke="black" points="1394.5,-168.52 1398,-178.52 1401.5,-168.52 1394.5,-168.52"/>
</g>
<!-- ClearInputBeforeUploadDirective  -->
<g id="node6" class="node">
<title>ClearInputBeforeUploadDirective </title>
<polygon fill="#fb8072" stroke="black" points="1315.25,-214.8 1104.75,-214.8 1104.75,-178.8 1315.25,-178.8 1315.25,-214.8"/>
<text text-anchor="middle" x="1210" y="-192.6" font-family="Times,serif" font-size="14.00">ClearInputBeforeUploadDirective </text>
</g>
<!-- AirPopoverModule&#45;&gt;ClearInputBeforeUploadDirective  -->
<g id="edge5" class="edge">
<title>AirPopoverModule&#45;&gt;ClearInputBeforeUploadDirective </title>
<path fill="none" stroke="black" stroke-dasharray="5,2" d="M759.39,-131.8C896.11,-131.8 1210,-131.8 1210,-131.8 1210,-131.8 1210,-168.69 1210,-168.69"/>
<polygon fill="black" stroke="black" points="1206.5,-168.69 1210,-178.69 1213.5,-168.69 1206.5,-168.69"/>
</g>
<!-- HideIfEmptyDirective  -->
<g id="node7" class="node">
<title>HideIfEmptyDirective </title>
<polygon fill="#fb8072" stroke="black" points="1086.95,-214.8 941.05,-214.8 941.05,-178.8 1086.95,-178.8 1086.95,-214.8"/>
<text text-anchor="middle" x="1014" y="-192.6" font-family="Times,serif" font-size="14.00">HideIfEmptyDirective </text>
</g>
<!-- AirPopoverModule&#45;&gt;HideIfEmptyDirective  -->
<g id="edge6" class="edge">
<title>AirPopoverModule&#45;&gt;HideIfEmptyDirective </title>
<path fill="none" stroke="black" stroke-dasharray="5,2" d="M759.63,-137.8C852.01,-137.8 1014,-137.8 1014,-137.8 1014,-137.8 1014,-168.78 1014,-168.78"/>
<polygon fill="black" stroke="black" points="1010.5,-168.78 1014,-178.78 1017.5,-168.78 1010.5,-168.78"/>
</g>
<!-- MergePipe  -->
<g id="node8" class="node">
<title>MergePipe </title>
<polygon fill="#fb8072" stroke="black" points="923.42,-214.8 842.58,-214.8 842.58,-178.8 923.42,-178.8 923.42,-214.8"/>
<text text-anchor="middle" x="883" y="-192.6" font-family="Times,serif" font-size="14.00">MergePipe </text>
</g>
<!-- AirPopoverModule&#45;&gt;MergePipe  -->
<g id="edge7" class="edge">
<title>AirPopoverModule&#45;&gt;MergePipe </title>
<path fill="none" stroke="black" stroke-dasharray="5,2" d="M759.49,-143.8C810.77,-143.8 874.96,-143.8 874.96,-143.8 874.96,-143.8 874.96,-168.56 874.96,-168.56"/>
<polygon fill="black" stroke="black" points="871.46,-168.56 874.96,-178.56 878.46,-168.56 871.46,-168.56"/>
</g>
<!-- OverlayDirective  -->
<g id="node9" class="node">
<title>OverlayDirective </title>
<polygon fill="#fb8072" stroke="black" points="824.17,-214.8 707.83,-214.8 707.83,-178.8 824.17,-178.8 824.17,-214.8"/>
<text text-anchor="middle" x="766" y="-192.6" font-family="Times,serif" font-size="14.00">OverlayDirective </text>
</g>
<!-- AirPopoverModule&#45;&gt;OverlayDirective  -->
<g id="edge8" class="edge">
<title>AirPopoverModule&#45;&gt;OverlayDirective </title>
<path fill="none" stroke="black" stroke-dasharray="5,2" d="M733.55,-149.91C733.55,-149.91 733.55,-168.79 733.55,-168.79"/>
<polygon fill="black" stroke="black" points="730.05,-168.79 733.55,-178.79 737.05,-168.79 730.05,-168.79"/>
</g>
<!-- ReplaceStringPipe  -->
<g id="node10" class="node">
<title>ReplaceStringPipe </title>
<polygon fill="#fb8072" stroke="black" points="689.7,-214.8 566.3,-214.8 566.3,-178.8 689.7,-178.8 689.7,-214.8"/>
<text text-anchor="middle" x="628" y="-192.6" font-family="Times,serif" font-size="14.00">ReplaceStringPipe </text>
</g>
<!-- AirPopoverModule&#45;&gt;ReplaceStringPipe  -->
<g id="edge9" class="edge">
<title>AirPopoverModule&#45;&gt;ReplaceStringPipe </title>
<path fill="none" stroke="black" stroke-dasharray="5,2" d="M662.21,-149.91C662.21,-149.91 662.21,-168.79 662.21,-168.79"/>
<polygon fill="black" stroke="black" points="658.71,-168.79 662.21,-178.79 665.71,-168.79 658.71,-168.79"/>
</g>
<!-- ReplaceVarsPipe  -->
<g id="node11" class="node">
<title>ReplaceVarsPipe </title>
<polygon fill="#fb8072" stroke="black" points="547.9,-214.8 432.1,-214.8 432.1,-178.8 547.9,-178.8 547.9,-214.8"/>
<text text-anchor="middle" x="490" y="-192.6" font-family="Times,serif" font-size="14.00">ReplaceVarsPipe </text>
</g>
<!-- AirPopoverModule&#45;&gt;ReplaceVarsPipe  -->
<g id="edge10" class="edge">
<title>AirPopoverModule&#45;&gt;ReplaceVarsPipe </title>
<path fill="none" stroke="black" stroke-dasharray="5,2" d="M634.16,-143.8C584.78,-143.8 524.29,-143.8 524.29,-143.8 524.29,-143.8 524.29,-168.56 524.29,-168.56"/>
<polygon fill="black" stroke="black" points="520.79,-168.56 524.29,-178.56 527.79,-168.56 520.79,-168.56"/>
</g>
<!-- ScrollDirective  -->
<g id="node12" class="node">
<title>ScrollDirective </title>
<polygon fill="#fb8072" stroke="black" points="414.52,-214.8 309.48,-214.8 309.48,-178.8 414.52,-178.8 414.52,-214.8"/>
<text text-anchor="middle" x="362" y="-192.6" font-family="Times,serif" font-size="14.00">ScrollDirective </text>
</g>
<!-- AirPopoverModule&#45;&gt;ScrollDirective  -->
<g id="edge11" class="edge">
<title>AirPopoverModule&#45;&gt;ScrollDirective </title>
<path fill="none" stroke="black" stroke-dasharray="5,2" d="M634.38,-137.8C537.42,-137.8 362,-137.8 362,-137.8 362,-137.8 362,-168.78 362,-168.78"/>
<polygon fill="black" stroke="black" points="358.5,-168.78 362,-178.78 365.5,-168.78 358.5,-168.78"/>
</g>
<!-- ScrollToMeDirective  -->
<g id="node13" class="node">
<title>ScrollToMeDirective </title>
<polygon fill="#fb8072" stroke="black" points="291.73,-214.8 152.27,-214.8 152.27,-178.8 291.73,-178.8 291.73,-214.8"/>
<text text-anchor="middle" x="222" y="-192.6" font-family="Times,serif" font-size="14.00">ScrollToMeDirective </text>
</g>
<!-- AirPopoverModule&#45;&gt;ScrollToMeDirective  -->
<g id="edge12" class="edge">
<title>AirPopoverModule&#45;&gt;ScrollToMeDirective </title>
<path fill="none" stroke="black" stroke-dasharray="5,2" d="M634.41,-131.8C505.43,-131.8 222,-131.8 222,-131.8 222,-131.8 222,-168.69 222,-168.69"/>
<polygon fill="black" stroke="black" points="218.5,-168.69 222,-178.69 225.5,-168.69 218.5,-168.69"/>
</g>
<!-- ThemeDirective  -->
<g id="node14" class="node">
<title>ThemeDirective </title>
<polygon fill="#fb8072" stroke="black" points="134.46,-214.8 23.54,-214.8 23.54,-178.8 134.46,-178.8 134.46,-214.8"/>
<text text-anchor="middle" x="79" y="-192.6" font-family="Times,serif" font-size="14.00">ThemeDirective </text>
</g>
<!-- AirPopoverModule&#45;&gt;ThemeDirective  -->
<g id="edge13" class="edge">
<title>AirPopoverModule&#45;&gt;ThemeDirective </title>
<path fill="none" stroke="black" stroke-dasharray="5,2" d="M634.63,-125.8C477.71,-125.8 79,-125.8 79,-125.8 79,-125.8 79,-168.52 79,-168.52"/>
<polygon fill="black" stroke="black" points="75.5,-168.52 79,-178.52 82.5,-168.52 75.5,-168.52"/>
</g>
</g>
</svg>
