<?xml version="1.0" encoding="UTF-8" standalone="no"?>
<!DOCTYPE svg PUBLIC "-//W3C//DTD SVG 1.1//EN"
 "http://www.w3.org/Graphics/SVG/1.1/DTD/svg11.dtd">
<!-- Generated by graphviz version 2.47.3 (20210619.1520)
 -->
<!-- Title: dependencies Pages: 1 -->
<svg width="404pt" height="247pt"
 viewBox="0.00 0.00 404.00 246.80" xmlns="http://www.w3.org/2000/svg" xmlns:xlink="http://www.w3.org/1999/xlink">
<g id="graph0" class="graph" transform="scale(1 1) rotate(0) translate(4 242.8)">
<title>dependencies</title>
<polygon fill="white" stroke="transparent" points="-4,4 -4,-242.8 400,-242.8 400,4 -4,4"/>
<text text-anchor="middle" x="198" y="-8.2" font-family="sans-serif" font-size="14.00">dependencies</text>
<g id="clust1" class="cluster">
<title>cluster_AirNavModule</title>
<polygon fill="none" stroke="black" stroke-dasharray="1,5" points="8,-32.8 8,-230.8 388,-230.8 388,-32.8 8,-32.8"/>
</g>
<g id="clust5" class="cluster">
<title>cluster_AirNavModule_exports</title>
<polygon fill="none" stroke="black" points="140,-170.8 140,-222.8 264,-222.8 264,-170.8 140,-170.8"/>
</g>
<g id="clust4" class="cluster">
<title>cluster_AirNavModule_imports</title>
<polygon fill="none" stroke="black" points="144,-40.8 144,-92.8 380,-92.8 380,-40.8 144,-40.8"/>
</g>
<g id="clust2" class="cluster">
<title>cluster_AirNavModule_declarations</title>
<polygon fill="none" stroke="black" points="16,-40.8 16,-92.8 136,-92.8 136,-40.8 16,-40.8"/>
</g>
<!-- NavComponent -->
<g id="node1" class="node">
<title>NavComponent</title>
<polygon fill="#ffffb3" stroke="black" points="128.15,-84.8 23.85,-84.8 23.85,-48.8 128.15,-48.8 128.15,-84.8"/>
<text text-anchor="middle" x="76" y="-62.6" font-family="Times,serif" font-size="14.00">NavComponent</text>
</g>
<!-- AirNavModule -->
<g id="node2" class="node">
<title>AirNavModule</title>
<polygon fill="#8dd3c7" stroke="black" points="252.53,-149.8 249.53,-153.8 228.53,-153.8 225.53,-149.8 151.47,-149.8 151.47,-113.8 252.53,-113.8 252.53,-149.8"/>
<text text-anchor="middle" x="202" y="-127.6" font-family="Times,serif" font-size="14.00">AirNavModule</text>
</g>
<!-- NavComponent&#45;&gt;AirNavModule -->
<g id="edge1" class="edge">
<title>NavComponent&#45;&gt;AirNavModule</title>
<path fill="none" stroke="black" d="M76,-84.91C76,-104.14 76,-131.8 76,-131.8 76,-131.8 141.11,-131.8 141.11,-131.8"/>
<polygon fill="black" stroke="black" points="141.11,-135.3 151.11,-131.8 141.11,-128.3 141.11,-135.3"/>
</g>
<!-- NavComponent  -->
<g id="node5" class="node">
<title>NavComponent </title>
<polygon fill="#fb8072" stroke="black" points="256.15,-214.8 147.85,-214.8 147.85,-178.8 256.15,-178.8 256.15,-214.8"/>
<text text-anchor="middle" x="202" y="-192.6" font-family="Times,serif" font-size="14.00">NavComponent </text>
</g>
<!-- AirNavModule&#45;&gt;NavComponent  -->
<g id="edge4" class="edge">
<title>AirNavModule&#45;&gt;NavComponent </title>
<path fill="none" stroke="black" stroke-dasharray="5,2" d="M202,-149.91C202,-149.91 202,-168.79 202,-168.79"/>
<polygon fill="black" stroke="black" points="198.5,-168.79 202,-178.79 205.5,-168.79 198.5,-168.79"/>
</g>
<!-- AirCdkModule -->
<g id="node3" class="node">
<title>AirCdkModule</title>
<polygon fill="#8dd3c7" stroke="black" points="371.55,-84.8 368.55,-88.8 347.55,-88.8 344.55,-84.8 270.45,-84.8 270.45,-48.8 371.55,-48.8 371.55,-84.8"/>
<text text-anchor="middle" x="321" y="-62.6" font-family="Times,serif" font-size="14.00">AirCdkModule</text>
</g>
<!-- AirCdkModule&#45;&gt;AirNavModule -->
<g id="edge2" class="edge">
<title>AirCdkModule&#45;&gt;AirNavModule</title>
<path fill="none" stroke="black" d="M321,-84.91C321,-104.14 321,-131.8 321,-131.8 321,-131.8 262.81,-131.8 262.81,-131.8"/>
<polygon fill="black" stroke="black" points="262.81,-128.3 252.81,-131.8 262.81,-135.3 262.81,-128.3"/>
</g>
<!-- AirListModule -->
<g id="node4" class="node">
<title>AirListModule</title>
<polygon fill="#8dd3c7" stroke="black" points="251.99,-84.8 248.99,-88.8 227.99,-88.8 224.99,-84.8 152.01,-84.8 152.01,-48.8 251.99,-48.8 251.99,-84.8"/>
<text text-anchor="middle" x="202" y="-62.6" font-family="Times,serif" font-size="14.00">AirListModule</text>
</g>
<!-- AirListModule&#45;&gt;AirNavModule -->
<g id="edge3" class="edge">
<title>AirListModule&#45;&gt;AirNavModule</title>
<path fill="none" stroke="black" d="M202,-84.91C202,-84.91 202,-103.79 202,-103.79"/>
<polygon fill="black" stroke="black" points="198.5,-103.79 202,-113.79 205.5,-103.79 198.5,-103.79"/>
</g>
</g>
</svg>
