<svg width="114" height="60" viewBox="0 0 114 60" fill="none" xmlns="http://www.w3.org/2000/svg">
<path d="M89.7184 14.807C83.7689 14.807 79.3614 18.8398 78.2869 24.187V10.0273H72.4667V17.5453C70.7057 15.733 68.4971 14.8966 65.8108 14.8966C60.4781 14.8966 56.001 19.1784 55.1255 24.7546C54.2898 18.8597 50.0316 15.275 44.7089 14.9065C38.8986 14.5082 33.7848 18.5809 32.5412 24.2269V15.0061H26.721V22.9921C26.721 25.5512 24.9103 27.4531 22.3136 27.4531C18.523 27.4531 18.0852 24.2767 18.0852 22.9921V15.0061H12.265V22.9921C12.265 28.9468 15.9661 32.9597 21.5276 32.9597C23.597 32.9597 25.358 32.2527 26.7309 31.1076V33.7563C26.7309 35.8773 25.6266 38.1277 22.4528 38.1277C20.473 38.1277 18.9707 37.2913 18.6225 35.6084H12.5834C13.3793 40.2885 17.4783 43.5546 22.4628 43.5546C28.5417 43.5546 32.5611 39.4919 32.5611 33.358V29.4945C32.8098 30.5898 33.1978 31.6254 33.7152 32.5913C35.5557 35.9968 38.9981 38.3966 43.0971 38.6754C48.7283 39.0637 52.9467 36.2059 54.5783 31.6752L48.3801 31.247C47.2857 32.9896 45.2959 33.6866 43.4055 33.5572C41.4456 33.4178 39.794 32.432 38.7593 30.8387C38.7494 30.8288 38.7394 30.8188 38.7394 30.8089L51.2056 26.537L55.0857 25.1928C55.026 25.7006 54.9962 26.2184 54.9962 26.7462C54.9962 33.3182 59.8016 38.6156 66.6764 38.6156C72.8647 38.6156 77.3915 34.2741 78.1874 28.5684C78.9933 34.2343 83.5201 38.5758 88.9523 38.5758C91.6883 38.5758 94.1557 37.6 95.8769 35.708V38.0879H101.389V26.7561C101.359 20.1841 96.5534 14.807 89.7184 14.807ZM37.7047 26.0989C38.1027 22.2354 40.968 19.7758 44.3109 20.0048C46.1614 20.1343 47.6936 20.9907 48.6586 22.3349L37.7047 26.0989ZM66.6465 33.1987C63.433 33.1987 60.8263 30.4205 60.8263 26.7959C60.8263 23.0419 63.423 20.2637 66.6465 20.2637C69.8601 20.2637 72.4667 23.1714 72.4667 26.7959C72.4667 30.3309 69.87 33.1987 66.6465 33.1987ZM89.7184 33.1987C86.5048 33.1987 83.8982 30.4205 83.8982 26.7959C83.8982 23.0419 86.4949 20.2637 89.7184 20.2637C92.9319 20.2637 95.5386 23.1714 95.5386 26.7959C95.5386 30.3309 92.9319 33.1987 89.7184 33.1987Z" fill="#0A59EB"/>
<path d="M3.83044 0.0995789H0.0895996V11.7102H3.83044V3.86356H11.7499V0.119494H3.83044V0.0995789Z" fill="#0A59EB"/>
<path d="M101.819 0.0697021V3.80381H109.659V11.74H113.389V3.80381H113.419V0.0697021H101.819Z" fill="#0A59EB"/>
<path d="M109.678 49.7084H101.759V53.4525H109.678V53.4724H113.419V41.8618H109.678V49.7084Z" fill="#0A59EB"/>
<path d="M3.85034 41.832H0.119447V49.7682H0.0895996V53.5023H11.6902V49.7682H3.85034V41.832Z" fill="#0A59EB"/>
<path d="M32.2935 56.001C34.1113 56.001 35.5497 54.9252 36.0872 53.2799H34.6487C34.2061 54.1658 33.3684 54.767 32.2935 54.767C30.7919 54.767 29.5589 53.4222 29.5589 51.7453C29.5589 50.0683 30.7919 48.6919 32.2935 48.6919C33.3526 48.6919 34.1903 49.2931 34.6487 50.179H36.0872C35.5339 48.5337 34.1113 47.4579 32.2935 47.4579C30.0489 47.4579 28.2153 49.388 28.2153 51.7453C28.2153 54.1025 30.0489 56.001 32.2935 56.001ZM42.0709 56.001C44.3945 56.001 46.1649 54.1025 46.1649 51.7611C46.1649 49.388 44.3945 47.4579 42.0709 47.4579C39.7631 47.4579 37.9769 49.388 37.9769 51.7611C37.9769 54.1025 39.7631 56.001 42.0709 56.001ZM42.0709 54.767C40.5693 54.767 39.3363 53.4222 39.3363 51.7611C39.3363 50.0683 40.5693 48.6919 42.0709 48.6919C43.5884 48.6919 44.8213 50.0683 44.8213 51.7611C44.8213 53.4222 43.5884 54.767 42.0709 54.767ZM50.1412 55.8111V44.0407H48.7976V55.8111H50.1412ZM54.5759 55.8111V44.0407H53.2323V55.8111H54.5759ZM61.3658 56.001C63.2469 56.001 64.6379 55.0201 65.2069 53.2799H63.7843C63.3417 54.2291 62.5197 54.7828 61.3658 54.7828C60.0223 54.7828 58.7261 53.7861 58.5522 52.0933H65.3966C65.4124 49.1982 63.3891 47.4579 61.2868 47.4579C59.0264 47.4579 57.1928 49.388 57.1928 51.7453C57.1928 54.1342 59.0264 56.001 61.3658 56.001ZM63.9108 50.891H58.6313C58.979 49.4988 60.1645 48.6761 61.2868 48.6761C62.4723 48.6761 63.5788 49.562 63.9108 50.891ZM71.3171 59.8137C73.8146 59.8137 75.506 58.0418 75.506 55.4314V47.6636H74.2098V48.9609C73.6408 48.1382 72.5975 47.4579 71.3962 47.4579C69.0568 47.4579 67.318 49.388 67.318 51.7453C67.318 54.1025 69.0568 56.0168 71.3962 56.0168C72.5659 56.0168 73.5775 55.3682 74.1624 54.5771V55.4314C74.1624 56.9027 73.4037 58.5164 71.3171 58.5164C70.7165 58.5164 69.4203 58.3424 68.8829 57.1242H67.4761C67.8871 58.7854 69.3887 59.8137 71.3171 59.8137ZM71.3962 54.7828C69.8629 54.7828 68.6616 53.4222 68.6616 51.7611C68.6616 50.0683 69.8629 48.7077 71.3962 48.7077C72.8978 48.7077 74.1624 50.0683 74.1624 51.7611C74.1624 53.4222 72.8978 54.7828 71.3962 54.7828ZM82.1378 56.001C84.0188 56.001 85.4099 55.0201 85.9789 53.2799H84.5563C84.1137 54.2291 83.2917 54.7828 82.1378 54.7828C80.7942 54.7828 79.4981 53.7861 79.3242 52.0933H86.1686C86.1844 49.1982 84.1611 47.4579 82.0588 47.4579C79.7984 47.4579 77.9648 49.388 77.9648 51.7453C77.9648 54.1342 79.7984 56.001 82.1378 56.001ZM84.6827 50.891H79.4032C79.751 49.4988 80.9365 48.6761 82.0588 48.6761C83.2443 48.6761 84.3508 49.562 84.6827 50.891Z" fill="#0A59EB"/>
</svg>
