<svg width="24" height="24" viewBox="0 0 24 24" fill="none" xmlns="http://www.w3.org/2000/svg">
<path d="M23 10.5C23.2761 10.5 23.5 10.2761 23.5 10C23.4934 4.47989 19.0201 0.00661223 13.5 0C13.2239 0 13 0.223858 13 0.5V9.525C13.0005 10.0634 13.4366 10.4999 13.975 10.501L23 10.5Z" fill="#0A59EB"/>
<path d="M23.5001 12H14.0001C13.6971 11.9613 13.4058 12.1303 13.2889 12.4125C13.172 12.6946 13.2585 13.0201 13.5001 13.207L20.2181 19.925C20.4133 20.1202 20.7298 20.1202 20.9251 19.925C22.9004 17.9599 24.0077 15.2863 24.0001 12.5C24.0001 12.2239 23.7762 12 23.5001 12Z" fill="#0A59EB"/>
<path d="M10.588 24.0001C13.3476 23.9941 15.9899 22.8834 17.925 20.916C18.1202 20.7208 18.1202 20.4043 17.925 20.209L11.207 13.491C11.0889 13.3492 11.0167 13.1748 11 12.991V3.491C11 3.21486 10.7762 2.991 10.5 2.991C6.74712 3.00672 3.28769 5.02339 1.42486 8.28136C-0.437977 11.5393 -0.421205 15.5436 1.46886 18.7859C3.35892 22.0281 6.83512 24.0157 10.588 24.0001Z" fill="#0A59EB"/>
</svg>
