<svg width="20" height="24" viewBox="0 0 20 24" fill="none" xmlns="http://www.w3.org/2000/svg">
<path d="M12.236 21H7.76401C7.63694 21.0002 7.53025 21.0957 7.51601 21.222C7.50512 21.3143 7.49977 21.4071 7.50001 21.5C7.50001 22.8807 8.6193 24 10 24C11.3807 24 12.5 22.8807 12.5 21.5C12.5003 21.4071 12.4949 21.3143 12.484 21.222C12.4707 21.0953 12.3634 20.9993 12.236 21Z" fill="#0A59EB"/>
<path d="M19.446 19.276C18.3015 17.0011 17.7036 14.4906 17.7 11.944V11.176C17.7562 8.15115 16.3078 5.29554 13.834 3.554C13.1244 3.09656 12.331 2.78453 11.5 2.636V1.5C11.5 0.671573 10.8284 0 9.99996 0C9.17153 0 8.49996 0.671573 8.49996 1.5V2.649C7.46271 2.84545 6.48613 3.28287 5.64896 3.926C3.48724 5.7069 2.25451 8.37554 2.29996 11.176V11.944C2.29632 14.4906 1.69847 17.0011 0.553961 19.276C0.476373 19.4308 0.484434 19.6148 0.575269 19.7622C0.666104 19.9097 0.826775 19.9996 0.999961 20H19C19.1734 20 19.3344 19.9097 19.4253 19.762C19.5162 19.6142 19.524 19.4299 19.446 19.275V19.276Z" fill="#0A59EB"/>
</svg>
