<?xml version="1.0" encoding="UTF-8" standalone="no"?>
<!DOCTYPE svg PUBLIC "-//W3C//DTD SVG 1.1//EN"
 "http://www.w3.org/Graphics/SVG/1.1/DTD/svg11.dtd">
<!-- Generated by graphviz version 2.47.3 (20210619.1520)
 -->
<!-- Title: dependencies Pages: 1 -->
<svg width="3252pt" height="247pt"
 viewBox="0.00 0.00 3252.00 246.80" xmlns="http://www.w3.org/2000/svg" xmlns:xlink="http://www.w3.org/1999/xlink">
<g id="graph0" class="graph" transform="scale(1 1) rotate(0) translate(4 242.8)">
<title>dependencies</title>
<polygon fill="white" stroke="transparent" points="-4,4 -4,-242.8 3248,-242.8 3248,4 -4,4"/>
<text text-anchor="middle" x="1622" y="-8.2" font-family="sans-serif" font-size="14.00">dependencies</text>
<g id="clust1" class="cluster">
<title>cluster_AirLayoutModule</title>
<polygon fill="none" stroke="black" stroke-dasharray="1,5" points="8,-32.8 8,-230.8 3236,-230.8 3236,-32.8 8,-32.8"/>
</g>
<g id="clust25" class="cluster">
<title>cluster_AirLayoutModule_exports</title>
<polygon fill="none" stroke="black" points="948,-170.8 948,-222.8 2403,-222.8 2403,-170.8 948,-170.8"/>
</g>
<g id="clust2" class="cluster">
<title>cluster_AirLayoutModule_declarations</title>
<polygon fill="none" stroke="black" points="172,-40.8 172,-92.8 3228,-92.8 3228,-40.8 172,-40.8"/>
</g>
<g id="clust24" class="cluster">
<title>cluster_AirLayoutModule_imports</title>
<polygon fill="none" stroke="black" points="16,-40.8 16,-92.8 164,-92.8 164,-40.8 16,-40.8"/>
</g>
<!-- ActionsContainerDirective -->
<g id="node1" class="node">
<title>ActionsContainerDirective</title>
<polygon fill="#ffffb3" stroke="black" points="3220.34,-84.8 3053.66,-84.8 3053.66,-48.8 3220.34,-48.8 3220.34,-84.8"/>
<text text-anchor="middle" x="3137" y="-62.6" font-family="Times,serif" font-size="14.00">ActionsContainerDirective</text>
</g>
<!-- AirLayoutModule -->
<g id="node22" class="node">
<title>AirLayoutModule</title>
<polygon fill="#8dd3c7" stroke="black" points="1687.87,-149.8 1684.87,-153.8 1663.87,-153.8 1660.87,-149.8 1570.13,-149.8 1570.13,-113.8 1687.87,-113.8 1687.87,-149.8"/>
<text text-anchor="middle" x="1629" y="-127.6" font-family="Times,serif" font-size="14.00">AirLayoutModule</text>
</g>
<!-- ActionsContainerDirective&#45;&gt;AirLayoutModule -->
<g id="edge1" class="edge">
<title>ActionsContainerDirective&#45;&gt;AirLayoutModule</title>
<path fill="none" stroke="black" d="M3137,-85.08C3137,-106.12 3137,-137.8 3137,-137.8 3137,-137.8 1698.12,-137.8 1698.12,-137.8"/>
<polygon fill="black" stroke="black" points="1698.12,-134.3 1688.12,-137.8 1698.12,-141.3 1698.12,-134.3"/>
</g>
<!-- ActionsPortalComponent -->
<g id="node2" class="node">
<title>ActionsPortalComponent</title>
<polygon fill="#ffffb3" stroke="black" points="3035.32,-84.8 2876.68,-84.8 2876.68,-48.8 3035.32,-48.8 3035.32,-84.8"/>
<text text-anchor="middle" x="2956" y="-62.6" font-family="Times,serif" font-size="14.00">ActionsPortalComponent</text>
</g>
<!-- ActionsPortalComponent&#45;&gt;AirLayoutModule -->
<g id="edge2" class="edge">
<title>ActionsPortalComponent&#45;&gt;AirLayoutModule</title>
<path fill="none" stroke="black" d="M2956,-84.93C2956,-105.37 2956,-135.8 2956,-135.8 2956,-135.8 1698.16,-135.8 1698.16,-135.8"/>
<polygon fill="black" stroke="black" points="1698.16,-132.3 1688.16,-135.8 1698.16,-139.3 1698.16,-132.3"/>
</g>
<!-- BreakpointsDirective -->
<g id="node3" class="node">
<title>BreakpointsDirective</title>
<polygon fill="#ffffb3" stroke="black" points="2858.74,-84.8 2723.26,-84.8 2723.26,-48.8 2858.74,-48.8 2858.74,-84.8"/>
<text text-anchor="middle" x="2791" y="-62.6" font-family="Times,serif" font-size="14.00">BreakpointsDirective</text>
</g>
<!-- BreakpointsDirective&#45;&gt;AirLayoutModule -->
<g id="edge3" class="edge">
<title>BreakpointsDirective&#45;&gt;AirLayoutModule</title>
<path fill="none" stroke="black" d="M2791,-85.11C2791,-104.95 2791,-133.8 2791,-133.8 2791,-133.8 1698.22,-133.8 1698.22,-133.8"/>
<polygon fill="black" stroke="black" points="1698.22,-130.3 1688.22,-133.8 1698.22,-137.3 1698.22,-130.3"/>
</g>
<!-- ContainerComponent -->
<g id="node4" class="node">
<title>ContainerComponent</title>
<polygon fill="#ffffb3" stroke="black" points="2705.04,-84.8 2568.96,-84.8 2568.96,-48.8 2705.04,-48.8 2705.04,-84.8"/>
<text text-anchor="middle" x="2637" y="-62.6" font-family="Times,serif" font-size="14.00">ContainerComponent</text>
</g>
<!-- ContainerComponent&#45;&gt;AirLayoutModule -->
<g id="edge4" class="edge">
<title>ContainerComponent&#45;&gt;AirLayoutModule</title>
<path fill="none" stroke="black" d="M2637,-84.97C2637,-103.89 2637,-130.8 2637,-130.8 2637,-130.8 1697.92,-130.8 1697.92,-130.8"/>
<polygon fill="black" stroke="black" points="1697.92,-127.3 1687.92,-130.8 1697.92,-134.3 1697.92,-127.3"/>
</g>
<!-- ContentDirective -->
<g id="node5" class="node">
<title>ContentDirective</title>
<polygon fill="#ffffb3" stroke="black" points="2551.42,-84.8 2438.58,-84.8 2438.58,-48.8 2551.42,-48.8 2551.42,-84.8"/>
<text text-anchor="middle" x="2495" y="-62.6" font-family="Times,serif" font-size="14.00">ContentDirective</text>
</g>
<!-- ContentDirective&#45;&gt;AirLayoutModule -->
<g id="edge5" class="edge">
<title>ContentDirective&#45;&gt;AirLayoutModule</title>
<path fill="none" stroke="black" d="M2495,-85.07C2495,-103.36 2495,-128.8 2495,-128.8 2495,-128.8 1698.18,-128.8 1698.18,-128.8"/>
<polygon fill="black" stroke="black" points="1698.18,-125.3 1688.18,-128.8 1698.18,-132.3 1698.18,-125.3"/>
</g>
<!-- EndDirective -->
<g id="node6" class="node">
<title>EndDirective</title>
<polygon fill="#ffffb3" stroke="black" points="2420.14,-84.8 2329.86,-84.8 2329.86,-48.8 2420.14,-48.8 2420.14,-84.8"/>
<text text-anchor="middle" x="2375" y="-62.6" font-family="Times,serif" font-size="14.00">EndDirective</text>
</g>
<!-- EndDirective&#45;&gt;AirLayoutModule -->
<g id="edge6" class="edge">
<title>EndDirective&#45;&gt;AirLayoutModule</title>
<path fill="none" stroke="black" d="M2362.32,-84.82C2362.32,-102.17 2362.32,-125.8 2362.32,-125.8 2362.32,-125.8 1698.08,-125.8 1698.08,-125.8"/>
<polygon fill="black" stroke="black" points="1698.08,-122.3 1688.08,-125.8 1698.08,-129.3 1698.08,-122.3"/>
</g>
<!-- FlexDirective -->
<g id="node7" class="node">
<title>FlexDirective</title>
<polygon fill="#ffffb3" stroke="black" points="2311.47,-84.8 2218.53,-84.8 2218.53,-48.8 2311.47,-48.8 2311.47,-84.8"/>
<text text-anchor="middle" x="2265" y="-62.6" font-family="Times,serif" font-size="14.00">FlexDirective</text>
</g>
<!-- FlexDirective&#45;&gt;AirLayoutModule -->
<g id="edge7" class="edge">
<title>FlexDirective&#45;&gt;AirLayoutModule</title>
<path fill="none" stroke="black" d="M2232.94,-84.84C2232.94,-101.53 2232.94,-123.8 2232.94,-123.8 2232.94,-123.8 1698.01,-123.8 1698.01,-123.8"/>
<polygon fill="black" stroke="black" points="1698.01,-120.3 1688.01,-123.8 1698.01,-127.3 1698.01,-120.3"/>
</g>
<!-- FooterDirective -->
<g id="node8" class="node">
<title>FooterDirective</title>
<polygon fill="#ffffb3" stroke="black" points="2200.13,-84.8 2095.87,-84.8 2095.87,-48.8 2200.13,-48.8 2200.13,-84.8"/>
<text text-anchor="middle" x="2148" y="-62.6" font-family="Times,serif" font-size="14.00">FooterDirective</text>
</g>
<!-- FooterDirective&#45;&gt;AirLayoutModule -->
<g id="edge8" class="edge">
<title>FooterDirective&#45;&gt;AirLayoutModule</title>
<path fill="none" stroke="black" d="M2148,-84.81C2148,-100.85 2148,-121.8 2148,-121.8 2148,-121.8 1698.03,-121.8 1698.03,-121.8"/>
<polygon fill="black" stroke="black" points="1698.03,-118.3 1688.03,-121.8 1698.03,-125.3 1698.03,-118.3"/>
</g>
<!-- GridItemDirective -->
<g id="node9" class="node">
<title>GridItemDirective</title>
<polygon fill="#ffffb3" stroke="black" points="2077.9,-84.8 1958.1,-84.8 1958.1,-48.8 2077.9,-48.8 2077.9,-84.8"/>
<text text-anchor="middle" x="2018" y="-62.6" font-family="Times,serif" font-size="14.00">GridItemDirective</text>
</g>
<!-- GridItemDirective&#45;&gt;AirLayoutModule -->
<g id="edge9" class="edge">
<title>GridItemDirective&#45;&gt;AirLayoutModule</title>
<path fill="none" stroke="black" d="M1988.51,-84.99C1988.51,-99.98 1988.51,-118.8 1988.51,-118.8 1988.51,-118.8 1697.96,-118.8 1697.96,-118.8"/>
<polygon fill="black" stroke="black" points="1697.96,-115.3 1687.96,-118.8 1697.96,-122.3 1697.96,-115.3"/>
</g>
<!-- HeaderContainerDirective -->
<g id="node10" class="node">
<title>HeaderContainerDirective</title>
<polygon fill="#ffffb3" stroke="black" points="1939.7,-84.8 1776.3,-84.8 1776.3,-48.8 1939.7,-48.8 1939.7,-84.8"/>
<text text-anchor="middle" x="1858" y="-62.6" font-family="Times,serif" font-size="14.00">HeaderContainerDirective</text>
</g>
<!-- HeaderContainerDirective&#45;&gt;AirLayoutModule -->
<g id="edge10" class="edge">
<title>HeaderContainerDirective&#45;&gt;AirLayoutModule</title>
<path fill="none" stroke="black" d="M1802.59,-84.85C1802.59,-99.17 1802.59,-116.8 1802.59,-116.8 1802.59,-116.8 1698.25,-116.8 1698.25,-116.8"/>
<polygon fill="black" stroke="black" points="1698.25,-113.3 1688.25,-116.8 1698.25,-120.3 1698.25,-113.3"/>
</g>
<!-- HeaderDirective -->
<g id="node11" class="node">
<title>HeaderDirective</title>
<polygon fill="#ffffb3" stroke="black" points="1758.49,-84.8 1649.51,-84.8 1649.51,-48.8 1758.49,-48.8 1758.49,-84.8"/>
<text text-anchor="middle" x="1704" y="-62.6" font-family="Times,serif" font-size="14.00">HeaderDirective</text>
</g>
<!-- HeaderDirective&#45;&gt;AirLayoutModule -->
<g id="edge11" class="edge">
<title>HeaderDirective&#45;&gt;AirLayoutModule</title>
<path fill="none" stroke="black" d="M1668.84,-84.91C1668.84,-84.91 1668.84,-103.79 1668.84,-103.79"/>
<polygon fill="black" stroke="black" points="1665.34,-103.79 1668.84,-113.79 1672.34,-103.79 1665.34,-103.79"/>
</g>
<!-- HeaderPortalComponent -->
<g id="node12" class="node">
<title>HeaderPortalComponent</title>
<polygon fill="#ffffb3" stroke="black" points="1631.68,-84.8 1476.32,-84.8 1476.32,-48.8 1631.68,-48.8 1631.68,-84.8"/>
<text text-anchor="middle" x="1554" y="-62.6" font-family="Times,serif" font-size="14.00">HeaderPortalComponent</text>
</g>
<!-- HeaderPortalComponent&#45;&gt;AirLayoutModule -->
<g id="edge12" class="edge">
<title>HeaderPortalComponent&#45;&gt;AirLayoutModule</title>
<path fill="none" stroke="black" d="M1600.83,-84.91C1600.83,-84.91 1600.83,-103.79 1600.83,-103.79"/>
<polygon fill="black" stroke="black" points="1597.33,-103.79 1600.83,-113.79 1604.33,-103.79 1597.33,-103.79"/>
</g>
<!-- ImpositionContainerDirective -->
<g id="node13" class="node">
<title>ImpositionContainerDirective</title>
<polygon fill="#ffffb3" stroke="black" points="1457.96,-84.8 1274.04,-84.8 1274.04,-48.8 1457.96,-48.8 1457.96,-84.8"/>
<text text-anchor="middle" x="1366" y="-62.6" font-family="Times,serif" font-size="14.00">ImpositionContainerDirective</text>
</g>
<!-- ImpositionContainerDirective&#45;&gt;AirLayoutModule -->
<g id="edge13" class="edge">
<title>ImpositionContainerDirective&#45;&gt;AirLayoutModule</title>
<path fill="none" stroke="black" d="M1411.01,-84.85C1411.01,-99.17 1411.01,-116.8 1411.01,-116.8 1411.01,-116.8 1560.01,-116.8 1560.01,-116.8"/>
<polygon fill="black" stroke="black" points="1560.01,-120.3 1570.01,-116.8 1560.01,-113.3 1560.01,-120.3"/>
</g>
<!-- ImpositionDirective -->
<g id="node14" class="node">
<title>ImpositionDirective</title>
<polygon fill="#ffffb3" stroke="black" points="1256.25,-84.8 1127.75,-84.8 1127.75,-48.8 1256.25,-48.8 1256.25,-84.8"/>
<text text-anchor="middle" x="1192" y="-62.6" font-family="Times,serif" font-size="14.00">ImpositionDirective</text>
</g>
<!-- ImpositionDirective&#45;&gt;AirLayoutModule -->
<g id="edge14" class="edge">
<title>ImpositionDirective&#45;&gt;AirLayoutModule</title>
<path fill="none" stroke="black" d="M1248.93,-84.99C1248.93,-99.98 1248.93,-118.8 1248.93,-118.8 1248.93,-118.8 1560.03,-118.8 1560.03,-118.8"/>
<polygon fill="black" stroke="black" points="1560.03,-122.3 1570.03,-118.8 1560.03,-115.3 1560.03,-122.3"/>
</g>
<!-- LayoutDirective -->
<g id="node15" class="node">
<title>LayoutDirective</title>
<polygon fill="#ffffb3" stroke="black" points="1109.74,-84.8 1002.26,-84.8 1002.26,-48.8 1109.74,-48.8 1109.74,-84.8"/>
<text text-anchor="middle" x="1056" y="-62.6" font-family="Times,serif" font-size="14.00">LayoutDirective</text>
</g>
<!-- LayoutDirective&#45;&gt;AirLayoutModule -->
<g id="edge15" class="edge">
<title>LayoutDirective&#45;&gt;AirLayoutModule</title>
<path fill="none" stroke="black" d="M1097.13,-84.81C1097.13,-100.85 1097.13,-121.8 1097.13,-121.8 1097.13,-121.8 1560.05,-121.8 1560.05,-121.8"/>
<polygon fill="black" stroke="black" points="1560.05,-125.3 1570.05,-121.8 1560.05,-118.3 1560.05,-125.3"/>
</g>
<!-- MarginsDirective -->
<g id="node16" class="node">
<title>MarginsDirective</title>
<polygon fill="#ffffb3" stroke="black" points="984.24,-84.8 869.76,-84.8 869.76,-48.8 984.24,-48.8 984.24,-84.8"/>
<text text-anchor="middle" x="927" y="-62.6" font-family="Times,serif" font-size="14.00">MarginsDirective</text>
</g>
<!-- MarginsDirective&#45;&gt;AirLayoutModule -->
<g id="edge16" class="edge">
<title>MarginsDirective&#45;&gt;AirLayoutModule</title>
<path fill="none" stroke="black" d="M970.07,-84.84C970.07,-101.53 970.07,-123.8 970.07,-123.8 970.07,-123.8 1559.94,-123.8 1559.94,-123.8"/>
<polygon fill="black" stroke="black" points="1559.94,-127.3 1569.94,-123.8 1559.94,-120.3 1559.94,-127.3"/>
</g>
<!-- PaddingsDirective -->
<g id="node17" class="node">
<title>PaddingsDirective</title>
<polygon fill="#ffffb3" stroke="black" points="851.92,-84.8 732.08,-84.8 732.08,-48.8 851.92,-48.8 851.92,-84.8"/>
<text text-anchor="middle" x="792" y="-62.6" font-family="Times,serif" font-size="14.00">PaddingsDirective</text>
</g>
<!-- PaddingsDirective&#45;&gt;AirLayoutModule -->
<g id="edge17" class="edge">
<title>PaddingsDirective&#45;&gt;AirLayoutModule</title>
<path fill="none" stroke="black" d="M792,-84.82C792,-102.17 792,-125.8 792,-125.8 792,-125.8 1559.81,-125.8 1559.81,-125.8"/>
<polygon fill="black" stroke="black" points="1559.81,-129.3 1569.81,-125.8 1559.81,-122.3 1559.81,-129.3"/>
</g>
<!-- PageComponent -->
<g id="node18" class="node">
<title>PageComponent</title>
<polygon fill="#ffffb3" stroke="black" points="714.05,-84.8 605.95,-84.8 605.95,-48.8 714.05,-48.8 714.05,-84.8"/>
<text text-anchor="middle" x="660" y="-62.6" font-family="Times,serif" font-size="14.00">PageComponent</text>
</g>
<!-- PageComponent&#45;&gt;AirLayoutModule -->
<g id="edge18" class="edge">
<title>PageComponent&#45;&gt;AirLayoutModule</title>
<path fill="none" stroke="black" d="M660,-85.07C660,-103.36 660,-128.8 660,-128.8 660,-128.8 1559.84,-128.8 1559.84,-128.8"/>
<polygon fill="black" stroke="black" points="1559.84,-132.3 1569.84,-128.8 1559.84,-125.3 1559.84,-132.3"/>
</g>
<!-- ScrollContainerComponent -->
<g id="node19" class="node">
<title>ScrollContainerComponent</title>
<polygon fill="#ffffb3" stroke="black" points="587.98,-84.8 418.02,-84.8 418.02,-48.8 587.98,-48.8 587.98,-84.8"/>
<text text-anchor="middle" x="503" y="-62.6" font-family="Times,serif" font-size="14.00">ScrollContainerComponent</text>
</g>
<!-- ScrollContainerComponent&#45;&gt;AirLayoutModule -->
<g id="edge19" class="edge">
<title>ScrollContainerComponent&#45;&gt;AirLayoutModule</title>
<path fill="none" stroke="black" d="M503,-84.97C503,-103.89 503,-130.8 503,-130.8 503,-130.8 1560.05,-130.8 1560.05,-130.8"/>
<polygon fill="black" stroke="black" points="1560.05,-134.3 1570.05,-130.8 1560.05,-127.3 1560.05,-134.3"/>
</g>
<!-- StartDirective -->
<g id="node20" class="node">
<title>StartDirective</title>
<polygon fill="#ffffb3" stroke="black" points="400.02,-84.8 305.98,-84.8 305.98,-48.8 400.02,-48.8 400.02,-84.8"/>
<text text-anchor="middle" x="353" y="-62.6" font-family="Times,serif" font-size="14.00">StartDirective</text>
</g>
<!-- StartDirective&#45;&gt;AirLayoutModule -->
<g id="edge20" class="edge">
<title>StartDirective&#45;&gt;AirLayoutModule</title>
<path fill="none" stroke="black" d="M353,-85.11C353,-104.95 353,-133.8 353,-133.8 353,-133.8 1560.01,-133.8 1560.01,-133.8"/>
<polygon fill="black" stroke="black" points="1560.02,-137.3 1570.01,-133.8 1560.01,-130.3 1560.02,-137.3"/>
</g>
<!-- StretchDirective -->
<g id="node21" class="node">
<title>StretchDirective</title>
<polygon fill="#ffffb3" stroke="black" points="287.74,-84.8 180.26,-84.8 180.26,-48.8 287.74,-48.8 287.74,-84.8"/>
<text text-anchor="middle" x="234" y="-62.6" font-family="Times,serif" font-size="14.00">StretchDirective</text>
</g>
<!-- StretchDirective&#45;&gt;AirLayoutModule -->
<g id="edge21" class="edge">
<title>StretchDirective&#45;&gt;AirLayoutModule</title>
<path fill="none" stroke="black" d="M234,-84.93C234,-105.37 234,-135.8 234,-135.8 234,-135.8 1559.95,-135.8 1559.95,-135.8"/>
<polygon fill="black" stroke="black" points="1559.95,-139.3 1569.95,-135.8 1559.95,-132.3 1559.95,-139.3"/>
</g>
<!-- AutofocusDirective  -->
<g id="node24" class="node">
<title>AutofocusDirective </title>
<polygon fill="#fb8072" stroke="black" points="2394.9,-214.8 2265.1,-214.8 2265.1,-178.8 2394.9,-178.8 2394.9,-214.8"/>
<text text-anchor="middle" x="2330" y="-192.6" font-family="Times,serif" font-size="14.00">AutofocusDirective </text>
</g>
<!-- AirLayoutModule&#45;&gt;AutofocusDirective  -->
<g id="edge23" class="edge">
<title>AirLayoutModule&#45;&gt;AutofocusDirective </title>
<path fill="none" stroke="black" stroke-dasharray="5,2" d="M1688.09,-140.8C1849.9,-140.8 2288.27,-140.8 2288.27,-140.8 2288.27,-140.8 2288.27,-168.77 2288.27,-168.77"/>
<polygon fill="black" stroke="black" points="2284.77,-168.77 2288.27,-178.77 2291.77,-168.77 2284.77,-168.77"/>
</g>
<!-- ClearInputBeforeUploadDirective  -->
<g id="node25" class="node">
<title>ClearInputBeforeUploadDirective </title>
<polygon fill="#fb8072" stroke="black" points="2247.25,-214.8 2036.75,-214.8 2036.75,-178.8 2247.25,-178.8 2247.25,-214.8"/>
<text text-anchor="middle" x="2142" y="-192.6" font-family="Times,serif" font-size="14.00">ClearInputBeforeUploadDirective </text>
</g>
<!-- AirLayoutModule&#45;&gt;ClearInputBeforeUploadDirective  -->
<g id="edge24" class="edge">
<title>AirLayoutModule&#45;&gt;ClearInputBeforeUploadDirective </title>
<path fill="none" stroke="black" stroke-dasharray="5,2" d="M1688.08,-142.8C1805.54,-142.8 2057.16,-142.8 2057.16,-142.8 2057.16,-142.8 2057.16,-168.52 2057.16,-168.52"/>
<polygon fill="black" stroke="black" points="2053.66,-168.52 2057.16,-178.52 2060.66,-168.52 2053.66,-168.52"/>
</g>
<!-- HideIfEmptyDirective  -->
<g id="node26" class="node">
<title>HideIfEmptyDirective </title>
<polygon fill="#fb8072" stroke="black" points="2018.95,-214.8 1873.05,-214.8 1873.05,-178.8 2018.95,-178.8 2018.95,-214.8"/>
<text text-anchor="middle" x="1946" y="-192.6" font-family="Times,serif" font-size="14.00">HideIfEmptyDirective </text>
</g>
<!-- AirLayoutModule&#45;&gt;HideIfEmptyDirective  -->
<g id="edge25" class="edge">
<title>AirLayoutModule&#45;&gt;HideIfEmptyDirective </title>
<path fill="none" stroke="black" stroke-dasharray="5,2" d="M1688.2,-145.8C1769.72,-145.8 1906.56,-145.8 1906.56,-145.8 1906.56,-145.8 1906.56,-168.68 1906.56,-168.68"/>
<polygon fill="black" stroke="black" points="1903.06,-168.68 1906.56,-178.68 1910.06,-168.68 1903.06,-168.68"/>
</g>
<!-- MergePipe  -->
<g id="node27" class="node">
<title>MergePipe </title>
<polygon fill="#fb8072" stroke="black" points="1855.42,-214.8 1774.58,-214.8 1774.58,-178.8 1855.42,-178.8 1855.42,-214.8"/>
<text text-anchor="middle" x="1815" y="-192.6" font-family="Times,serif" font-size="14.00">MergePipe </text>
</g>
<!-- AirLayoutModule&#45;&gt;MergePipe  -->
<g id="edge26" class="edge">
<title>AirLayoutModule&#45;&gt;MergePipe </title>
<path fill="none" stroke="black" stroke-dasharray="5,2" d="M1687.93,-147.8C1746.93,-147.8 1829.02,-147.8 1829.02,-147.8 1829.02,-147.8 1829.02,-168.55 1829.02,-168.55"/>
<polygon fill="black" stroke="black" points="1825.52,-168.55 1829.02,-178.55 1832.52,-168.55 1825.52,-168.55"/>
</g>
<!-- OverlayDirective  -->
<g id="node28" class="node">
<title>OverlayDirective </title>
<polygon fill="#fb8072" stroke="black" points="1756.17,-214.8 1639.83,-214.8 1639.83,-178.8 1756.17,-178.8 1756.17,-214.8"/>
<text text-anchor="middle" x="1698" y="-192.6" font-family="Times,serif" font-size="14.00">OverlayDirective </text>
</g>
<!-- AirLayoutModule&#45;&gt;OverlayDirective  -->
<g id="edge27" class="edge">
<title>AirLayoutModule&#45;&gt;OverlayDirective </title>
<path fill="none" stroke="black" stroke-dasharray="5,2" d="M1663.8,-149.91C1663.8,-149.91 1663.8,-168.79 1663.8,-168.79"/>
<polygon fill="black" stroke="black" points="1660.3,-168.79 1663.8,-178.79 1667.3,-168.79 1660.3,-168.79"/>
</g>
<!-- ReplaceStringPipe  -->
<g id="node29" class="node">
<title>ReplaceStringPipe </title>
<polygon fill="#fb8072" stroke="black" points="1621.7,-214.8 1498.3,-214.8 1498.3,-178.8 1621.7,-178.8 1621.7,-214.8"/>
<text text-anchor="middle" x="1560" y="-192.6" font-family="Times,serif" font-size="14.00">ReplaceStringPipe </text>
</g>
<!-- AirLayoutModule&#45;&gt;ReplaceStringPipe  -->
<g id="edge28" class="edge">
<title>AirLayoutModule&#45;&gt;ReplaceStringPipe </title>
<path fill="none" stroke="black" stroke-dasharray="5,2" d="M1595.96,-149.91C1595.96,-149.91 1595.96,-168.79 1595.96,-168.79"/>
<polygon fill="black" stroke="black" points="1592.46,-168.79 1595.96,-178.79 1599.46,-168.79 1592.46,-168.79"/>
</g>
<!-- ReplaceVarsPipe  -->
<g id="node30" class="node">
<title>ReplaceVarsPipe </title>
<polygon fill="#fb8072" stroke="black" points="1479.9,-214.8 1364.1,-214.8 1364.1,-178.8 1479.9,-178.8 1479.9,-214.8"/>
<text text-anchor="middle" x="1422" y="-192.6" font-family="Times,serif" font-size="14.00">ReplaceVarsPipe </text>
</g>
<!-- AirLayoutModule&#45;&gt;ReplaceVarsPipe  -->
<g id="edge29" class="edge">
<title>AirLayoutModule&#45;&gt;ReplaceVarsPipe </title>
<path fill="none" stroke="black" stroke-dasharray="5,2" d="M1570.13,-147.8C1523.86,-147.8 1467.19,-147.8 1467.19,-147.8 1467.19,-147.8 1467.19,-168.55 1467.19,-168.55"/>
<polygon fill="black" stroke="black" points="1463.69,-168.55 1467.19,-178.55 1470.69,-168.55 1463.69,-168.55"/>
</g>
<!-- ScrollDirective  -->
<g id="node31" class="node">
<title>ScrollDirective </title>
<polygon fill="#fb8072" stroke="black" points="1346.52,-214.8 1241.48,-214.8 1241.48,-178.8 1346.52,-178.8 1346.52,-214.8"/>
<text text-anchor="middle" x="1294" y="-192.6" font-family="Times,serif" font-size="14.00">ScrollDirective </text>
</g>
<!-- AirLayoutModule&#45;&gt;ScrollDirective  -->
<g id="edge30" class="edge">
<title>AirLayoutModule&#45;&gt;ScrollDirective </title>
<path fill="none" stroke="black" stroke-dasharray="5,2" d="M1569.8,-145.8C1477.62,-145.8 1310.27,-145.8 1310.27,-145.8 1310.27,-145.8 1310.27,-168.68 1310.27,-168.68"/>
<polygon fill="black" stroke="black" points="1306.77,-168.68 1310.27,-178.68 1313.77,-168.68 1306.77,-168.68"/>
</g>
<!-- ScrollToMeDirective  -->
<g id="node32" class="node">
<title>ScrollToMeDirective </title>
<polygon fill="#fb8072" stroke="black" points="1223.73,-214.8 1084.27,-214.8 1084.27,-178.8 1223.73,-178.8 1223.73,-214.8"/>
<text text-anchor="middle" x="1154" y="-192.6" font-family="Times,serif" font-size="14.00">ScrollToMeDirective </text>
</g>
<!-- AirLayoutModule&#45;&gt;ScrollToMeDirective  -->
<g id="edge31" class="edge">
<title>AirLayoutModule&#45;&gt;ScrollToMeDirective </title>
<path fill="none" stroke="black" stroke-dasharray="5,2" d="M1569.73,-142.8C1446.83,-142.8 1175.62,-142.8 1175.62,-142.8 1175.62,-142.8 1175.62,-168.52 1175.62,-168.52"/>
<polygon fill="black" stroke="black" points="1172.12,-168.52 1175.62,-178.52 1179.12,-168.52 1172.12,-168.52"/>
</g>
<!-- ThemeDirective  -->
<g id="node33" class="node">
<title>ThemeDirective </title>
<polygon fill="#fb8072" stroke="black" points="1066.46,-214.8 955.54,-214.8 955.54,-178.8 1066.46,-178.8 1066.46,-214.8"/>
<text text-anchor="middle" x="1011" y="-192.6" font-family="Times,serif" font-size="14.00">ThemeDirective </text>
</g>
<!-- AirLayoutModule&#45;&gt;ThemeDirective  -->
<g id="edge32" class="edge">
<title>AirLayoutModule&#45;&gt;ThemeDirective </title>
<path fill="none" stroke="black" stroke-dasharray="5,2" d="M1570.07,-140.8C1419.81,-140.8 1034.18,-140.8 1034.18,-140.8 1034.18,-140.8 1034.18,-168.77 1034.18,-168.77"/>
<polygon fill="black" stroke="black" points="1030.68,-168.77 1034.18,-178.77 1037.68,-168.77 1030.68,-168.77"/>
</g>
<!-- AirDirectionModule -->
<g id="node23" class="node">
<title>AirDirectionModule</title>
<polygon fill="#8dd3c7" stroke="black" points="155.58,-84.8 152.58,-88.8 131.58,-88.8 128.58,-84.8 24.42,-84.8 24.42,-48.8 155.58,-48.8 155.58,-84.8"/>
<text text-anchor="middle" x="90" y="-62.6" font-family="Times,serif" font-size="14.00">AirDirectionModule</text>
</g>
<!-- AirDirectionModule&#45;&gt;AirLayoutModule -->
<g id="edge22" class="edge">
<title>AirDirectionModule&#45;&gt;AirLayoutModule</title>
<path fill="none" stroke="black" d="M90,-85.08C90,-106.12 90,-137.8 90,-137.8 90,-137.8 1560.08,-137.8 1560.08,-137.8"/>
<polygon fill="black" stroke="black" points="1560.08,-141.3 1570.08,-137.8 1560.08,-134.3 1560.08,-141.3"/>
</g>
</g>
</svg>
