<?xml version="1.0" encoding="UTF-8" standalone="no"?>
<!DOCTYPE svg PUBLIC "-//W3C//DTD SVG 1.1//EN"
 "http://www.w3.org/Graphics/SVG/1.1/DTD/svg11.dtd">
<!-- Generated by graphviz version 2.47.3 (20210619.1520)
 -->
<!-- Title: dependencies Pages: 1 -->
<svg width="312pt" height="247pt"
 viewBox="0.00 0.00 312.00 246.80" xmlns="http://www.w3.org/2000/svg" xmlns:xlink="http://www.w3.org/1999/xlink">
<g id="graph0" class="graph" transform="scale(1 1) rotate(0) translate(4 242.8)">
<title>dependencies</title>
<polygon fill="white" stroke="transparent" points="-4,4 -4,-242.8 308,-242.8 308,4 -4,4"/>
<text text-anchor="middle" x="152" y="-8.2" font-family="sans-serif" font-size="14.00">dependencies</text>
<g id="clust1" class="cluster">
<title>cluster_AirTooltipModule</title>
<polygon fill="none" stroke="black" stroke-dasharray="1,5" points="8,-32.8 8,-230.8 296,-230.8 296,-32.8 8,-32.8"/>
</g>
<g id="clust2" class="cluster">
<title>cluster_AirTooltipModule_declarations</title>
<polygon fill="none" stroke="black" points="19,-40.8 19,-92.8 285,-92.8 285,-40.8 19,-40.8"/>
</g>
<g id="clust6" class="cluster">
<title>cluster_AirTooltipModule_exports</title>
<polygon fill="none" stroke="black" points="16,-170.8 16,-222.8 288,-222.8 288,-170.8 16,-170.8"/>
</g>
<!-- TooltipComponent -->
<g id="node1" class="node">
<title>TooltipComponent</title>
<polygon fill="#ffffb3" stroke="black" points="277.06,-84.8 154.94,-84.8 154.94,-48.8 277.06,-48.8 277.06,-84.8"/>
<text text-anchor="middle" x="216" y="-62.6" font-family="Times,serif" font-size="14.00">TooltipComponent</text>
</g>
<!-- AirTooltipModule -->
<g id="node3" class="node">
<title>AirTooltipModule</title>
<polygon fill="#8dd3c7" stroke="black" points="141.93,-149.8 138.93,-153.8 117.93,-153.8 114.93,-149.8 22.07,-149.8 22.07,-113.8 141.93,-113.8 141.93,-149.8"/>
<text text-anchor="middle" x="82" y="-127.6" font-family="Times,serif" font-size="14.00">AirTooltipModule</text>
</g>
<!-- TooltipComponent&#45;&gt;AirTooltipModule -->
<g id="edge1" class="edge">
<title>TooltipComponent&#45;&gt;AirTooltipModule</title>
<path fill="none" stroke="black" d="M236.43,-84.82C236.43,-102.17 236.43,-125.8 236.43,-125.8 236.43,-125.8 152.15,-125.8 152.15,-125.8"/>
<polygon fill="black" stroke="black" points="152.15,-122.3 142.15,-125.8 152.15,-129.3 152.15,-122.3"/>
</g>
<!-- TooltipDirective -->
<g id="node2" class="node">
<title>TooltipDirective</title>
<polygon fill="#ffffb3" stroke="black" points="136.81,-84.8 27.19,-84.8 27.19,-48.8 136.81,-48.8 136.81,-84.8"/>
<text text-anchor="middle" x="82" y="-62.6" font-family="Times,serif" font-size="14.00">TooltipDirective</text>
</g>
<!-- TooltipDirective&#45;&gt;AirTooltipModule -->
<g id="edge2" class="edge">
<title>TooltipDirective&#45;&gt;AirTooltipModule</title>
<path fill="none" stroke="black" d="M82,-84.91C82,-84.91 82,-103.79 82,-103.79"/>
<polygon fill="black" stroke="black" points="78.5,-103.79 82,-113.79 85.5,-103.79 78.5,-103.79"/>
</g>
<!-- TooltipComponent  -->
<g id="node4" class="node">
<title>TooltipComponent </title>
<polygon fill="#fb8072" stroke="black" points="280.06,-214.8 153.94,-214.8 153.94,-178.8 280.06,-178.8 280.06,-214.8"/>
<text text-anchor="middle" x="217" y="-192.6" font-family="Times,serif" font-size="14.00">TooltipComponent </text>
</g>
<!-- AirTooltipModule&#45;&gt;TooltipComponent  -->
<g id="edge3" class="edge">
<title>AirTooltipModule&#45;&gt;TooltipComponent </title>
<path fill="none" stroke="black" stroke-dasharray="5,2" d="M141.78,-137.8C169.14,-137.8 195.57,-137.8 195.57,-137.8 195.57,-137.8 195.57,-168.78 195.57,-168.78"/>
<polygon fill="black" stroke="black" points="192.07,-168.78 195.57,-178.78 199.07,-168.78 192.07,-168.78"/>
</g>
<!-- TooltipDirective  -->
<g id="node5" class="node">
<title>TooltipDirective </title>
<polygon fill="#fb8072" stroke="black" points="136.31,-214.8 23.69,-214.8 23.69,-178.8 136.31,-178.8 136.31,-214.8"/>
<text text-anchor="middle" x="80" y="-192.6" font-family="Times,serif" font-size="14.00">TooltipDirective </text>
</g>
<!-- AirTooltipModule&#45;&gt;TooltipDirective  -->
<g id="edge4" class="edge">
<title>AirTooltipModule&#45;&gt;TooltipDirective </title>
<path fill="none" stroke="black" stroke-dasharray="5,2" d="M80,-149.91C80,-149.91 80,-168.79 80,-168.79"/>
<polygon fill="black" stroke="black" points="76.5,-168.79 80,-178.79 83.5,-168.79 76.5,-168.79"/>
</g>
</g>
</svg>
