<?xml version="1.0" encoding="UTF-8" standalone="no"?><svg xmlns="http://www.w3.org/2000/svg" xmlns:xlink="http://www.w3.org/1999/xlink"><symbol id="context-menu" viewBox="0 0 4 18" xmlns="http://www.w3.org/2000/svg"><circle cx="2" cy="16" r="2" transform="rotate(-90 2 16)"></circle><circle cx="2" cy="9" r="2" transform="rotate(-90 2 9)"></circle><circle cx="2" cy="2" r="2" transform="rotate(-90 2 2)"></circle></symbol><symbol id="expand" xmlns="http://www.w3.org/2000/svg"><path d="M1 1L6 6L11 1" stroke-width="1.6" stroke-linecap="round" stroke-linejoin="round"></path></symbol><symbol id="umbrella" enable-background="new 0 0 512 512" viewBox="0 0 512 512" xmlns="http://www.w3.org/2000/svg"><g><path d="m437.019 77.789c-48.301-48.3-112.505-74.92-180.805-74.975-.071 0-.142-.005-.213-.005-.061 0-.122.004-.182.004-58.19.04-113.012 19.102-158.552 55.137-3.248 2.57-3.798 7.287-1.228 10.535 2.569 3.249 7.286 3.797 10.536 1.228 28.892-22.862 61.76-38.455 96.89-46.21-15.63 13.013-29.885 31.944-42.031 56.236-21.618 43.235-34.474 99.184-36.797 159.257-14.598-12.992-34.302-20.584-55.016-20.584-20.107 0-39.271 7.155-53.729 19.463 4.814-56.253 28.983-108.555 69.266-149.044 2.921-2.937 2.908-7.685-.027-10.606-2.938-2.922-7.687-2.91-10.607.027-48.058 48.304-74.524 112.428-74.524 180.559 0 3.34 2.209 6.278 5.418 7.206 3.211.927 6.646-.379 8.427-3.206 11.432-18.134 32.804-29.399 55.775-29.399 22.978 0 44.354 11.265 55.785 29.399 1.374 2.179 3.77 3.5 6.345 3.5s4.971-1.322 6.345-3.5c11.432-18.134 32.804-29.399 55.775-29.399 22.226 0 42.951 10.541 54.63 27.642v93.039c-10.132 3.193-17.5 12.676-17.5 23.849v59.03c0 12.252-9.968 22.22-22.22 22.22-12.253 0-22.221-9.968-22.221-22.22v-26.29c0-13.785-11.215-25-25-25s-25 11.215-25 25v26.29c0 39.822 32.398 72.22 72.221 72.22s72.22-32.398 72.22-72.221v-8.4c0-4.142-3.357-7.5-7.5-7.5s-7.5 3.358-7.5 7.5v8.4c0 31.551-25.669 57.22-57.22 57.22-31.552 0-57.221-25.668-57.221-57.22v-26.29c0-5.514 4.486-10 10-10s10 4.486 10 10v26.29c0 20.523 16.697 37.22 37.221 37.22s37.22-16.697 37.22-37.22v-59.03c0-5.514 4.486-10 10-10s10 4.486 10 10v20.63c0 4.142 3.357 7.5 7.5 7.5s7.5-3.358 7.5-7.5v-20.63c0-11.173-7.368-20.656-17.5-23.849v-93.039c11.678-17.101 32.4-27.642 54.62-27.642 22.978 0 44.354 11.265 55.785 29.399 1.374 2.179 3.77 3.5 6.345 3.5s4.971-1.322 6.345-3.5c11.432-18.134 32.804-29.399 55.775-29.399 22.978 0 44.354 11.265 55.785 29.399 1.398 2.219 3.817 3.501 6.345 3.501.691 0 1.393-.096 2.082-.295 3.209-.927 5.418-3.865 5.418-7.206 0-68.381-26.629-132.67-74.981-181.021zm-243.149 140.622c-20.325 0-39.681 7.313-54.191 19.867 2.367-57.468 14.64-110.769 35.171-151.832 20.291-40.582 46.205-64.431 73.649-68.119v167.084 53.236c-14.557-12.782-34.099-20.236-54.629-20.236zm124.25 0c-20.525 0-40.064 7.454-54.62 20.235v-53.235-167.083c27.444 3.688 53.359 27.537 73.649 68.119 20.531 41.062 32.805 94.364 35.171 151.832-14.511-12.555-33.87-19.868-54.2-19.868zm124.25 0c-20.708 0-40.411 7.592-55.007 20.583-2.323-60.073-15.179-116.021-36.797-159.256-12.136-24.271-26.377-43.191-41.992-56.203 44.3 9.808 84.978 32.003 117.837 64.861 40.549 40.548 64.869 93.002 69.697 149.48-14.458-12.31-33.625-19.465-53.738-19.465z"></path></g></symbol><symbol id="remove" viewBox="0 0 13 13" xmlns="http://www.w3.org/2000/svg"><path d="M7.65008 6.08964C7.62657 6.06619 7.61336 6.03435 7.61336 6.00114C7.61336 5.96794 7.62657 5.93609 7.65008 5.91264L12.2816 1.28164C12.5744 0.988381 12.5741 0.513243 12.2808 0.220394C11.9876 -0.0724552 11.5124 -0.0721194 11.2196 0.221144L6.58858 4.85014C6.56513 4.87365 6.53329 4.88687 6.50008 4.88687C6.46687 4.88687 6.43503 4.87365 6.41158 4.85014L1.78058 0.221144C1.48773 -0.0718432 1.01282 -0.0719552 0.719831 0.220894C0.426844 0.513743 0.426732 0.988657 0.719581 1.28164L5.35008 5.91264C5.37359 5.93609 5.3868 5.96794 5.3868 6.00114C5.3868 6.03435 5.37359 6.06619 5.35008 6.08964L0.719581 10.7211C0.530141 10.9107 0.456203 11.1869 0.525621 11.4457C0.595038 11.7045 0.797263 11.9067 1.05612 11.9759C1.31498 12.0452 1.59114 11.9712 1.78058 11.7816L6.41158 7.15014C6.43503 7.12663 6.46687 7.11342 6.50008 7.11342C6.53329 7.11342 6.56513 7.12663 6.58858 7.15014L11.2196 11.7816C11.5124 12.0746 11.9873 12.0747 12.2803 11.7819C12.5733 11.489 12.5734 11.0141 12.2806 10.7211L7.65008 6.08964Z"></path></symbol></svg>