<?xml version="1.0" encoding="UTF-8" standalone="no"?>
<!DOCTYPE svg PUBLIC "-//W3C//DTD SVG 1.1//EN"
 "http://www.w3.org/Graphics/SVG/1.1/DTD/svg11.dtd">
<!-- Generated by graphviz version 2.47.3 (20210619.1520)
 -->
<!-- Title: dependencies Pages: 1 -->
<svg width="345pt" height="247pt"
 viewBox="0.00 0.00 345.00 246.80" xmlns="http://www.w3.org/2000/svg" xmlns:xlink="http://www.w3.org/1999/xlink">
<g id="graph0" class="graph" transform="scale(1 1) rotate(0) translate(4 242.8)">
<title>dependencies</title>
<polygon fill="white" stroke="transparent" points="-4,4 -4,-242.8 341,-242.8 341,4 -4,4"/>
<text text-anchor="middle" x="168.5" y="-8.2" font-family="sans-serif" font-size="14.00">dependencies</text>
<g id="clust1" class="cluster">
<title>cluster_AirIconModule</title>
<polygon fill="none" stroke="black" stroke-dasharray="1,5" points="8,-32.8 8,-230.8 329,-230.8 329,-32.8 8,-32.8"/>
</g>
<g id="clust6" class="cluster">
<title>cluster_AirIconModule_exports</title>
<polygon fill="none" stroke="black" points="16,-170.8 16,-222.8 321,-222.8 321,-170.8 16,-170.8"/>
</g>
<g id="clust2" class="cluster">
<title>cluster_AirIconModule_declarations</title>
<polygon fill="none" stroke="black" points="20,-40.8 20,-92.8 318,-92.8 318,-40.8 20,-40.8"/>
</g>
<!-- DynamicIconComponent -->
<g id="node1" class="node">
<title>DynamicIconComponent</title>
<polygon fill="#ffffb3" stroke="black" points="309.53,-84.8 152.47,-84.8 152.47,-48.8 309.53,-48.8 309.53,-84.8"/>
<text text-anchor="middle" x="231" y="-62.6" font-family="Times,serif" font-size="14.00">DynamicIconComponent</text>
</g>
<!-- AirIconModule -->
<g id="node3" class="node">
<title>AirIconModule</title>
<polygon fill="#8dd3c7" stroke="black" points="133.58,-149.8 130.58,-153.8 109.58,-153.8 106.58,-149.8 30.42,-149.8 30.42,-113.8 133.58,-113.8 133.58,-149.8"/>
<text text-anchor="middle" x="82" y="-127.6" font-family="Times,serif" font-size="14.00">AirIconModule</text>
</g>
<!-- DynamicIconComponent&#45;&gt;AirIconModule -->
<g id="edge1" class="edge">
<title>DynamicIconComponent&#45;&gt;AirIconModule</title>
<path fill="none" stroke="black" d="M257.25,-84.82C257.25,-102.17 257.25,-125.8 257.25,-125.8 257.25,-125.8 143.63,-125.8 143.63,-125.8"/>
<polygon fill="black" stroke="black" points="143.63,-122.3 133.63,-125.8 143.63,-129.3 143.63,-122.3"/>
</g>
<!-- IconComponent -->
<g id="node2" class="node">
<title>IconComponent</title>
<polygon fill="#ffffb3" stroke="black" points="134.21,-84.8 27.79,-84.8 27.79,-48.8 134.21,-48.8 134.21,-84.8"/>
<text text-anchor="middle" x="81" y="-62.6" font-family="Times,serif" font-size="14.00">IconComponent</text>
</g>
<!-- IconComponent&#45;&gt;AirIconModule -->
<g id="edge2" class="edge">
<title>IconComponent&#45;&gt;AirIconModule</title>
<path fill="none" stroke="black" d="M82,-84.91C82,-84.91 82,-103.79 82,-103.79"/>
<polygon fill="black" stroke="black" points="78.5,-103.79 82,-113.79 85.5,-103.79 78.5,-103.79"/>
</g>
<!-- DynamicIconComponent  -->
<g id="node4" class="node">
<title>DynamicIconComponent </title>
<polygon fill="#fb8072" stroke="black" points="312.52,-214.8 151.48,-214.8 151.48,-178.8 312.52,-178.8 312.52,-214.8"/>
<text text-anchor="middle" x="232" y="-192.6" font-family="Times,serif" font-size="14.00">DynamicIconComponent </text>
</g>
<!-- AirIconModule&#45;&gt;DynamicIconComponent  -->
<g id="edge3" class="edge">
<title>AirIconModule&#45;&gt;DynamicIconComponent </title>
<path fill="none" stroke="black" stroke-dasharray="5,2" d="M133.7,-137.8C167.25,-137.8 204.75,-137.8 204.75,-137.8 204.75,-137.8 204.75,-168.78 204.75,-168.78"/>
<polygon fill="black" stroke="black" points="201.25,-168.78 204.75,-178.78 208.25,-168.78 201.25,-168.78"/>
</g>
<!-- IconComponent  -->
<g id="node5" class="node">
<title>IconComponent </title>
<polygon fill="#fb8072" stroke="black" points="133.71,-214.8 24.29,-214.8 24.29,-178.8 133.71,-178.8 133.71,-214.8"/>
<text text-anchor="middle" x="79" y="-192.6" font-family="Times,serif" font-size="14.00">IconComponent </text>
</g>
<!-- AirIconModule&#45;&gt;IconComponent  -->
<g id="edge4" class="edge">
<title>AirIconModule&#45;&gt;IconComponent </title>
<path fill="none" stroke="black" stroke-dasharray="5,2" d="M82,-149.91C82,-149.91 82,-168.79 82,-168.79"/>
<polygon fill="black" stroke="black" points="78.5,-168.79 82,-178.79 85.5,-168.79 78.5,-168.79"/>
</g>
</g>
</svg>
