<?xml version="1.0" encoding="UTF-8" standalone="no"?>
<!DOCTYPE svg PUBLIC "-//W3C//DTD SVG 1.1//EN"
 "http://www.w3.org/Graphics/SVG/1.1/DTD/svg11.dtd">
<!-- Generated by graphviz version 2.47.3 (20210619.1520)
 -->
<!-- Title: dependencies Pages: 1 -->
<svg width="1495pt" height="247pt"
 viewBox="0.00 0.00 1495.00 246.80" xmlns="http://www.w3.org/2000/svg" xmlns:xlink="http://www.w3.org/1999/xlink">
<g id="graph0" class="graph" transform="scale(1 1) rotate(0) translate(4 242.8)">
<title>dependencies</title>
<polygon fill="white" stroke="transparent" points="-4,4 -4,-242.8 1491,-242.8 1491,4 -4,4"/>
<text text-anchor="middle" x="743.5" y="-8.2" font-family="sans-serif" font-size="14.00">dependencies</text>
<g id="clust1" class="cluster">
<title>cluster_AirZoomImageModule</title>
<polygon fill="none" stroke="black" stroke-dasharray="1,5" points="8,-32.8 8,-230.8 1479,-230.8 1479,-32.8 8,-32.8"/>
</g>
<g id="clust8" class="cluster">
<title>cluster_AirZoomImageModule_providers</title>
<polygon fill="none" stroke="black" points="1099,-40.8 1099,-92.8 1289,-92.8 1289,-40.8 1099,-40.8"/>
</g>
<g id="clust2" class="cluster">
<title>cluster_AirZoomImageModule_declarations</title>
<polygon fill="none" stroke="black" points="771,-40.8 771,-92.8 1091,-92.8 1091,-40.8 771,-40.8"/>
</g>
<g id="clust6" class="cluster">
<title>cluster_AirZoomImageModule_exports</title>
<polygon fill="none" stroke="black" points="16,-170.8 16,-222.8 1471,-222.8 1471,-170.8 16,-170.8"/>
</g>
<g id="clust5" class="cluster">
<title>cluster_AirZoomImageModule_imports</title>
<polygon fill="none" stroke="black" points="255,-40.8 255,-92.8 763,-92.8 763,-40.8 255,-40.8"/>
</g>
<!-- ZoomImageComponent -->
<g id="node1" class="node">
<title>ZoomImageComponent</title>
<polygon fill="#ffffb3" stroke="black" points="1082.76,-84.8 933.24,-84.8 933.24,-48.8 1082.76,-48.8 1082.76,-84.8"/>
<text text-anchor="middle" x="1008" y="-62.6" font-family="Times,serif" font-size="14.00">ZoomImageComponent</text>
</g>
<!-- AirZoomImageModule -->
<g id="node3" class="node">
<title>AirZoomImageModule</title>
<polygon fill="#8dd3c7" stroke="black" points="770.13,-149.8 767.13,-153.8 746.13,-153.8 743.13,-149.8 623.87,-149.8 623.87,-113.8 770.13,-113.8 770.13,-149.8"/>
<text text-anchor="middle" x="697" y="-127.6" font-family="Times,serif" font-size="14.00">AirZoomImageModule</text>
</g>
<!-- ZoomImageComponent&#45;&gt;AirZoomImageModule -->
<g id="edge1" class="edge">
<title>ZoomImageComponent&#45;&gt;AirZoomImageModule</title>
<path fill="none" stroke="black" d="M937.2,-85.04C937.2,-100.37 937.2,-119.8 937.2,-119.8 937.2,-119.8 780.37,-119.8 780.37,-119.8"/>
<polygon fill="black" stroke="black" points="780.37,-116.3 770.37,-119.8 780.37,-123.3 780.37,-116.3"/>
</g>
<!-- ZoomImageDirective -->
<g id="node2" class="node">
<title>ZoomImageDirective</title>
<polygon fill="#ffffb3" stroke="black" points="915.01,-84.8 778.99,-84.8 778.99,-48.8 915.01,-48.8 915.01,-84.8"/>
<text text-anchor="middle" x="847" y="-62.6" font-family="Times,serif" font-size="14.00">ZoomImageDirective</text>
</g>
<!-- ZoomImageDirective&#45;&gt;AirZoomImageModule -->
<g id="edge2" class="edge">
<title>ZoomImageDirective&#45;&gt;AirZoomImageModule</title>
<path fill="none" stroke="black" d="M778.99,-66.8C769.4,-66.8 762.74,-66.8 762.74,-66.8 762.74,-66.8 762.74,-103.69 762.74,-103.69"/>
<polygon fill="black" stroke="black" points="759.24,-103.69 762.74,-113.69 766.24,-103.69 759.24,-103.69"/>
</g>
<!-- AutofocusDirective  -->
<g id="node8" class="node">
<title>AutofocusDirective </title>
<polygon fill="#fb8072" stroke="black" points="1462.9,-214.8 1333.1,-214.8 1333.1,-178.8 1462.9,-178.8 1462.9,-214.8"/>
<text text-anchor="middle" x="1398" y="-192.6" font-family="Times,serif" font-size="14.00">AutofocusDirective </text>
</g>
<!-- AirZoomImageModule&#45;&gt;AutofocusDirective  -->
<g id="edge7" class="edge">
<title>AirZoomImageModule&#45;&gt;AutofocusDirective </title>
<path fill="none" stroke="black" stroke-dasharray="5,2" d="M770.36,-129.8C950.13,-129.8 1398,-129.8 1398,-129.8 1398,-129.8 1398,-168.49 1398,-168.49"/>
<polygon fill="black" stroke="black" points="1394.5,-168.49 1398,-178.49 1401.5,-168.49 1394.5,-168.49"/>
</g>
<!-- ClearInputBeforeUploadDirective  -->
<g id="node9" class="node">
<title>ClearInputBeforeUploadDirective </title>
<polygon fill="#fb8072" stroke="black" points="1315.25,-214.8 1104.75,-214.8 1104.75,-178.8 1315.25,-178.8 1315.25,-214.8"/>
<text text-anchor="middle" x="1210" y="-192.6" font-family="Times,serif" font-size="14.00">ClearInputBeforeUploadDirective </text>
</g>
<!-- AirZoomImageModule&#45;&gt;ClearInputBeforeUploadDirective  -->
<g id="edge8" class="edge">
<title>AirZoomImageModule&#45;&gt;ClearInputBeforeUploadDirective </title>
<path fill="none" stroke="black" stroke-dasharray="5,2" d="M770.37,-134.8C902.07,-134.8 1164.94,-134.8 1164.94,-134.8 1164.94,-134.8 1164.94,-168.53 1164.94,-168.53"/>
<polygon fill="black" stroke="black" points="1161.44,-168.53 1164.94,-178.53 1168.44,-168.53 1161.44,-168.53"/>
</g>
<!-- HideIfEmptyDirective  -->
<g id="node10" class="node">
<title>HideIfEmptyDirective </title>
<polygon fill="#fb8072" stroke="black" points="1086.95,-214.8 941.05,-214.8 941.05,-178.8 1086.95,-178.8 1086.95,-214.8"/>
<text text-anchor="middle" x="1014" y="-192.6" font-family="Times,serif" font-size="14.00">HideIfEmptyDirective </text>
</g>
<!-- AirZoomImageModule&#45;&gt;HideIfEmptyDirective  -->
<g id="edge9" class="edge">
<title>AirZoomImageModule&#45;&gt;HideIfEmptyDirective </title>
<path fill="none" stroke="black" stroke-dasharray="5,2" d="M770.47,-139.8C863.58,-139.8 1012.08,-139.8 1012.08,-139.8 1012.08,-139.8 1012.08,-168.76 1012.08,-168.76"/>
<polygon fill="black" stroke="black" points="1008.58,-168.76 1012.08,-178.76 1015.58,-168.76 1008.58,-168.76"/>
</g>
<!-- MergePipe  -->
<g id="node11" class="node">
<title>MergePipe </title>
<polygon fill="#fb8072" stroke="black" points="923.42,-214.8 842.58,-214.8 842.58,-178.8 923.42,-178.8 923.42,-214.8"/>
<text text-anchor="middle" x="883" y="-192.6" font-family="Times,serif" font-size="14.00">MergePipe </text>
</g>
<!-- AirZoomImageModule&#45;&gt;MergePipe  -->
<g id="edge10" class="edge">
<title>AirZoomImageModule&#45;&gt;MergePipe </title>
<path fill="none" stroke="black" stroke-dasharray="5,2" d="M770.2,-144.8C820.74,-144.8 878.9,-144.8 878.9,-144.8 878.9,-144.8 878.9,-168.61 878.9,-168.61"/>
<polygon fill="black" stroke="black" points="875.4,-168.61 878.9,-178.61 882.4,-168.61 875.4,-168.61"/>
</g>
<!-- OverlayDirective  -->
<g id="node12" class="node">
<title>OverlayDirective </title>
<polygon fill="#fb8072" stroke="black" points="824.17,-214.8 707.83,-214.8 707.83,-178.8 824.17,-178.8 824.17,-214.8"/>
<text text-anchor="middle" x="766" y="-192.6" font-family="Times,serif" font-size="14.00">OverlayDirective </text>
</g>
<!-- AirZoomImageModule&#45;&gt;OverlayDirective  -->
<g id="edge11" class="edge">
<title>AirZoomImageModule&#45;&gt;OverlayDirective </title>
<path fill="none" stroke="black" stroke-dasharray="5,2" d="M738.99,-149.91C738.99,-149.91 738.99,-168.79 738.99,-168.79"/>
<polygon fill="black" stroke="black" points="735.49,-168.79 738.99,-178.79 742.49,-168.79 735.49,-168.79"/>
</g>
<!-- ReplaceStringPipe  -->
<g id="node13" class="node">
<title>ReplaceStringPipe </title>
<polygon fill="#fb8072" stroke="black" points="689.7,-214.8 566.3,-214.8 566.3,-178.8 689.7,-178.8 689.7,-214.8"/>
<text text-anchor="middle" x="628" y="-192.6" font-family="Times,serif" font-size="14.00">ReplaceStringPipe </text>
</g>
<!-- AirZoomImageModule&#45;&gt;ReplaceStringPipe  -->
<g id="edge12" class="edge">
<title>AirZoomImageModule&#45;&gt;ReplaceStringPipe </title>
<path fill="none" stroke="black" stroke-dasharray="5,2" d="M656.77,-149.91C656.77,-149.91 656.77,-168.79 656.77,-168.79"/>
<polygon fill="black" stroke="black" points="653.27,-168.79 656.77,-178.79 660.27,-168.79 653.27,-168.79"/>
</g>
<!-- ReplaceVarsPipe  -->
<g id="node14" class="node">
<title>ReplaceVarsPipe </title>
<polygon fill="#fb8072" stroke="black" points="547.9,-214.8 432.1,-214.8 432.1,-178.8 547.9,-178.8 547.9,-214.8"/>
<text text-anchor="middle" x="490" y="-192.6" font-family="Times,serif" font-size="14.00">ReplaceVarsPipe </text>
</g>
<!-- AirZoomImageModule&#45;&gt;ReplaceVarsPipe  -->
<g id="edge13" class="edge">
<title>AirZoomImageModule&#45;&gt;ReplaceVarsPipe </title>
<path fill="none" stroke="black" stroke-dasharray="5,2" d="M623.42,-144.8C580.05,-144.8 533.59,-144.8 533.59,-144.8 533.59,-144.8 533.59,-168.61 533.59,-168.61"/>
<polygon fill="black" stroke="black" points="530.09,-168.61 533.59,-178.61 537.09,-168.61 530.09,-168.61"/>
</g>
<!-- ScrollDirective  -->
<g id="node15" class="node">
<title>ScrollDirective </title>
<polygon fill="#fb8072" stroke="black" points="414.52,-214.8 309.48,-214.8 309.48,-178.8 414.52,-178.8 414.52,-214.8"/>
<text text-anchor="middle" x="362" y="-192.6" font-family="Times,serif" font-size="14.00">ScrollDirective </text>
</g>
<!-- AirZoomImageModule&#45;&gt;ScrollDirective  -->
<g id="edge14" class="edge">
<title>AirZoomImageModule&#45;&gt;ScrollDirective </title>
<path fill="none" stroke="black" stroke-dasharray="5,2" d="M623.69,-139.8C537.63,-139.8 406.48,-139.8 406.48,-139.8 406.48,-139.8 406.48,-168.76 406.48,-168.76"/>
<polygon fill="black" stroke="black" points="402.98,-168.76 406.48,-178.76 409.98,-168.76 402.98,-168.76"/>
</g>
<!-- ScrollToMeDirective  -->
<g id="node16" class="node">
<title>ScrollToMeDirective </title>
<polygon fill="#fb8072" stroke="black" points="291.73,-214.8 152.27,-214.8 152.27,-178.8 291.73,-178.8 291.73,-214.8"/>
<text text-anchor="middle" x="222" y="-192.6" font-family="Times,serif" font-size="14.00">ScrollToMeDirective </text>
</g>
<!-- AirZoomImageModule&#45;&gt;ScrollToMeDirective  -->
<g id="edge15" class="edge">
<title>AirZoomImageModule&#45;&gt;ScrollToMeDirective </title>
<path fill="none" stroke="black" stroke-dasharray="5,2" d="M623.42,-134.8C503.06,-134.8 277.34,-134.8 277.34,-134.8 277.34,-134.8 277.34,-168.53 277.34,-168.53"/>
<polygon fill="black" stroke="black" points="273.84,-168.53 277.34,-178.53 280.84,-168.53 273.84,-168.53"/>
</g>
<!-- ThemeDirective  -->
<g id="node17" class="node">
<title>ThemeDirective </title>
<polygon fill="#fb8072" stroke="black" points="134.46,-214.8 23.54,-214.8 23.54,-178.8 134.46,-178.8 134.46,-214.8"/>
<text text-anchor="middle" x="79" y="-192.6" font-family="Times,serif" font-size="14.00">ThemeDirective </text>
</g>
<!-- AirZoomImageModule&#45;&gt;ThemeDirective  -->
<g id="edge16" class="edge">
<title>AirZoomImageModule&#45;&gt;ThemeDirective </title>
<path fill="none" stroke="black" stroke-dasharray="5,2" d="M623.68,-129.8C459.98,-129.8 79,-129.8 79,-129.8 79,-129.8 79,-168.49 79,-168.49"/>
<polygon fill="black" stroke="black" points="75.5,-168.49 79,-178.49 82.5,-168.49 75.5,-168.49"/>
</g>
<!-- AirButtonModule -->
<g id="node4" class="node">
<title>AirButtonModule</title>
<polygon fill="#8dd3c7" stroke="black" points="755.33,-84.8 752.33,-88.8 731.33,-88.8 728.33,-84.8 638.67,-84.8 638.67,-48.8 755.33,-48.8 755.33,-84.8"/>
<text text-anchor="middle" x="697" y="-62.6" font-family="Times,serif" font-size="14.00">AirButtonModule</text>
</g>
<!-- AirButtonModule&#45;&gt;AirZoomImageModule -->
<g id="edge3" class="edge">
<title>AirButtonModule&#45;&gt;AirZoomImageModule</title>
<path fill="none" stroke="black" d="M697,-84.91C697,-84.91 697,-103.79 697,-103.79"/>
<polygon fill="black" stroke="black" points="693.5,-103.79 697,-113.79 700.5,-103.79 693.5,-103.79"/>
</g>
<!-- AirCdkModule -->
<g id="node5" class="node">
<title>AirCdkModule</title>
<polygon fill="#8dd3c7" stroke="black" points="620.55,-84.8 617.55,-88.8 596.55,-88.8 593.55,-84.8 519.45,-84.8 519.45,-48.8 620.55,-48.8 620.55,-84.8"/>
<text text-anchor="middle" x="570" y="-62.6" font-family="Times,serif" font-size="14.00">AirCdkModule</text>
</g>
<!-- AirCdkModule&#45;&gt;AirZoomImageModule -->
<g id="edge4" class="edge">
<title>AirCdkModule&#45;&gt;AirZoomImageModule</title>
<path fill="none" stroke="black" d="M620.59,-66.8C626.94,-66.8 631.26,-66.8 631.26,-66.8 631.26,-66.8 631.26,-103.69 631.26,-103.69"/>
<polygon fill="black" stroke="black" points="627.76,-103.69 631.26,-113.69 634.76,-103.69 627.76,-103.69"/>
</g>
<!-- AirIconModule -->
<g id="node6" class="node">
<title>AirIconModule</title>
<polygon fill="#8dd3c7" stroke="black" points="501.58,-84.8 498.58,-88.8 477.58,-88.8 474.58,-84.8 398.42,-84.8 398.42,-48.8 501.58,-48.8 501.58,-84.8"/>
<text text-anchor="middle" x="450" y="-62.6" font-family="Times,serif" font-size="14.00">AirIconModule</text>
</g>
<!-- AirIconModule&#45;&gt;AirZoomImageModule -->
<g id="edge5" class="edge">
<title>AirIconModule&#45;&gt;AirZoomImageModule</title>
<path fill="none" stroke="black" d="M466.8,-85.04C466.8,-100.37 466.8,-119.8 466.8,-119.8 466.8,-119.8 613.85,-119.8 613.85,-119.8"/>
<polygon fill="black" stroke="black" points="613.85,-123.3 623.85,-119.8 613.85,-116.3 613.85,-123.3"/>
</g>
<!-- AirLayoutModule -->
<g id="node7" class="node">
<title>AirLayoutModule</title>
<polygon fill="#8dd3c7" stroke="black" points="380.87,-84.8 377.87,-88.8 356.87,-88.8 353.87,-84.8 263.13,-84.8 263.13,-48.8 380.87,-48.8 380.87,-84.8"/>
<text text-anchor="middle" x="322" y="-62.6" font-family="Times,serif" font-size="14.00">AirLayoutModule</text>
</g>
<!-- AirLayoutModule&#45;&gt;AirZoomImageModule -->
<g id="edge6" class="edge">
<title>AirLayoutModule&#45;&gt;AirZoomImageModule</title>
<path fill="none" stroke="black" d="M345.21,-84.83C345.21,-101.86 345.21,-124.8 345.21,-124.8 345.21,-124.8 613.68,-124.8 613.68,-124.8"/>
<polygon fill="black" stroke="black" points="613.68,-128.3 623.68,-124.8 613.68,-121.3 613.68,-128.3"/>
</g>
<!-- ZoomImageService -->
<g id="node18" class="node">
<title>ZoomImageService</title>
<ellipse fill="#fdb462" stroke="black" cx="1194" cy="-66.8" rx="87.38" ry="18"/>
<text text-anchor="middle" x="1194" y="-62.6" font-family="Times,serif" font-size="14.00">ZoomImageService</text>
</g>
<!-- ZoomImageService&#45;&gt;AirZoomImageModule -->
<g id="edge17" class="edge">
<title>ZoomImageService&#45;&gt;AirZoomImageModule</title>
<path fill="none" stroke="black" d="M1223.06,-83.89C1223.06,-101 1223.06,-124.8 1223.06,-124.8 1223.06,-124.8 780.15,-124.8 780.15,-124.8"/>
<polygon fill="black" stroke="black" points="780.15,-121.3 770.15,-124.8 780.15,-128.3 780.15,-121.3"/>
</g>
</g>
</svg>
